<?xml  version="1.0" encoding="UTF-8"?>
<!DOCTYPE svg PUBLIC "-//W3C//DTD SVG 1.0//EN" "http://www.w3.org/TR/2001/REC-SVG-20010904/DTD/svg10.dtd" >
<svg xmlns="http://www.w3.org/2000/svg" >
<metadata>
<version>1.0</version>
<id><![CDATA[Basic Commercial W01 Roman]]></id>
<vendor>Monotype Imaging Inc.</vendor>
<credits>
<name>Fonts.com WebFonts</name>
<URL>http://webfonts.fonts.com</URL>
<role>Home of the Web fonts</role>
</credits>
<license>
<URL>http://webfonts.fonts.com/Legal</URL>
</license>
<copyright><![CDATA[Copyright 2003 - 2007 Linotype GmbH, www.linotype.com. All rights reserved. This font software may not be reproduced, modified, disclosed or transferred without the express written approval of Linotype GmbH. Basic Commercial is a trademark of Linotype GmbH registered in the U.S. Patent and Trademark Office and may be registered in certain other jurisdictions. This typeface is original artwork of Linotype Design Studio. The design may be protected in certain jurisdictions.]]></copyright>
<trademark><![CDATA[Basic Commercial is a trademark of Linotype GmbH registered in the U.S. Patent and Trademark Office and may be registered in certain other jurisdictions.]]></trademark>
<licensee>
<name></name>
</licensee>
</metadata>
<defs >
<font horiz-adv-x="514" id="0ad7bf84-e32e-42e6-ae85-68acbb28f50a">
<font-face font-family="" panose-1="2 11 5 3 4 5 3 2 2 4" ascent="938" descent="-236" units-per-em="1000" alphabetic="0">
</font-face>
<missing-glyph horiz-adv-x="278" />

<glyph unicode="&#xA;" />
<glyph unicode="&#xD;" horiz-adv-x="278" />
<glyph unicode=" " horiz-adv-x="278" />
<glyph unicode="!" horiz-adv-x="296" d="M104 94H192V0H104V94ZM107 417V712H189V417L164 147H132L107 417Z"  />
<glyph unicode="&quot;" horiz-adv-x="389" d="M225 712H289V444H225V712ZM100 712H164V444H100V712Z"  />
<glyph unicode="#" horiz-adv-x="556" d="M350 409H226L206 271H330L350 409ZM322 213H198L167 0H99L130 213H28V271H138L158 409H56V467H166L197 680H265L234 467H358L389 680H457L426 467H528V409H418L398 271H500V213H390L359 0H291L322 213Z"  />
<glyph unicode="$" horiz-adv-x="556" d="M254 610Q234 609 216 603T184 585T162 556T153 518Q153 495 162 479T185 450T217 429T254 413V610ZM254 -6Q210 -5 171 8T100 45T46 103T13 182L106 200Q120 146 158 110T254 70V309Q214 323 179 339T117 379T75 436T59 516Q59 553 76 583T122 636T185 671T254 686V792H318V686Q354 684 388 673T449 642T496 593T522 525L432 518Q419 557 390 582T318 610V392L357 376Q394 361 428 345T487 308T528 258T543 188Q543 137 526 101T478 41T408 6T321 -6V-123H254V-6ZM318 70Q343 71 366 78T408 99T438 133T449 179Q449 204 436 222T403 252T360 274T318 290V70Z"  />
<glyph unicode="%" horiz-adv-x="1000" d="M680 712H749L319 -32H250L680 712ZM644 172Q644 149 649 129T664 92T691 67T731 58Q754 58 770 67T797 92T813 128T818 172Q818 194 813 215T798 251T771 276T731 286Q708 286 692 277T665 252T649 215T644 172ZM568 172Q568 213 580 246T614 302T665 337T731 350Q767 350 796 338T848 302T882 246T894 172Q894 131 882 98T848 42T797 7T731 -6Q695 -6 666 6T614 42T580 98T568 172ZM106 508Q106 549 118 582T152 638T203 673T269 686Q305 686 334 674T386 638T420 582T432 508Q432 467 420 434T386 378T335 343T269 330Q233 330 204 342T152 378T118 434T106 508ZM182 508Q182 485 187 465T202 428T229 403T269 394Q292 394 308 403T335 428T351 464T356 508Q356 530 351 551T336 587T309 612T269 622Q246 622 230 613T203 588T187 551T182 508Z"  />
<glyph unicode="&amp;" horiz-adv-x="648" d="M261 569Q261 556 264 541T272 509T283 478T294 451Q315 460 335 473T370 502T394 539T404 584Q404 613 386 630T339 648Q304 648 283 626T261 569ZM245 344Q195 324 164 289T133 197Q133 171 142 148T167 108T205 81T253 70Q294 70 320 86T370 128L245 344ZM430 201Q446 233 459 265T480 333H558Q549 279 528 230T477 136Q516 82 573 82Q581 82 588 82Q595 82 603 84V0Q596 -3 584 -4T560 -6Q518 -6 484 13T419 68Q402 53 385 40T347 16T301 0T244 -6Q203 -6 167 8T104 48T61 110T45 193Q45 232 58 266T95 329T149 378T214 415Q199 442 189 476T179 541Q179 578 190 609T221 664T272 699T340 712Q371 712 397 702T443 673T474 628T486 571Q486 535 472 506T436 454T385 412T326 381L430 201Z"  />
<glyph unicode="&apos;" horiz-adv-x="278" d="M107 712H171V444H107V712Z"  />
<glyph unicode="(" horiz-adv-x="315" d="M234 -172Q170 -71 128 44T86 281Q86 339 97 398T129 514T177 626T235 730H301Q272 683 248 628T206 514T178 396T168 282Q168 163 204 47T300 -172H234Z"  />
<glyph unicode=")" horiz-adv-x="315" d="M81 730Q145 629 187 514T229 277Q229 219 218 160T186 44T138 -68T80 -172H14Q42 -125 66 -70T109 44T137 162T147 276Q147 395 111 511T15 730H81Z"  />
<glyph unicode="*" horiz-adv-x="389" d="M77 430L150 530L30 565L50 626L164 590V712H228V589L340 629L359 566L245 529L318 438L269 395L198 491L128 394L77 430Z"  />
<glyph unicode="+" horiz-adv-x="600" d="M265 218H47V288H265V506H335V288H553V218H335V0H265V218Z"  />
<glyph unicode="&#x2c;" horiz-adv-x="278" d="M88 113H190V0Q190 -10 188 -28T181 -68T169 -113T153 -155H106Q120 -111 125 -77T130 0H88V113Z"  />
<glyph unicode="-" horiz-adv-x="296" d="M46 295H250V213H46V295Z"  />
<glyph unicode="." horiz-adv-x="278" d="M88 113H190V0H88V113Z"  />
<glyph unicode="/" horiz-adv-x="333" d="M247 730H320L86 -18H13L247 730Z"  />
<glyph unicode="0" horiz-adv-x="556" d="M31 340Q31 398 44 459T86 571T162 654T278 686Q346 686 393 654T469 572T512 460T525 340Q525 281 512 220T470 109T393 26T278 -6Q210 -6 163 26T86 108T44 220T31 340ZM125 340Q125 260 139 209T176 129T225 88T278 76Q303 76 330 87T380 128T416 209T431 340Q431 419 417 470T380 551T331 592T278 604Q252 604 225 593T176 552T140 471T125 340Z"  />
<glyph unicode="1" horiz-adv-x="556" d="M271 495H126V559Q162 560 191 565T241 582T278 618T300 680H365V0H271V495Z"  />
<glyph unicode="2" horiz-adv-x="556" d="M68 89Q99 105 136 129T211 183T285 247T348 320T393 397T410 477Q410 604 279 604Q246 604 223 593T184 564T163 524T156 478Q156 458 158 437T165 393H77Q68 433 68 470Q68 513 81 552T120 621T188 668T285 686Q334 686 374 671T443 627T488 558T504 469Q504 405 473 348T395 242T294 153T191 83V84L190 82H511V0H68V89Z"  />
<glyph unicode="3" horiz-adv-x="556" d="M214 389Q233 389 251 388T289 387Q296 387 316 389T357 402T394 433T410 491Q410 544 382 577T281 610Q244 610 219 597T177 561T153 509T144 450L56 455Q59 570 116 628T283 686Q342 686 384 669T452 624T491 562T504 494Q504 473 499 452T485 411T460 377T423 354Q471 333 497 289T523 194Q523 168 515 134T480 68T407 16T281 -6Q169 -6 102 50T33 225H121Q125 143 164 110T282 76Q310 76 336 82T383 101T416 137T429 191Q429 229 417 252T385 289T336 306T276 311Q260 311 245 311Q230 311 214 309V389Z"  />
<glyph unicode="4" horiz-adv-x="556" d="M338 535H336L125 245H338V535ZM338 163H37V245L360 680H432V245H527V163H432V0H338V163Z"  />
<glyph unicode="5" horiz-adv-x="556" d="M474 598H157L146 422H148Q168 448 208 463T296 478Q354 478 396 457T465 402T506 324T519 234Q519 182 502 138T454 62T381 12T286 -6Q226 -6 184 9T115 48T72 99T49 151T39 193T37 213L131 218Q131 200 136 176T158 129T203 92T281 76Q319 76 346 91T391 129T417 180T425 234Q425 284 411 316T377 368T333 394T290 402Q242 402 207 378T150 310L64 316L87 680H474V598Z"  />
<glyph unicode="6" horiz-adv-x="556" d="M143 221Q143 188 154 162T184 116T229 87T285 76Q315 76 341 86T386 116T416 161T427 221Q427 254 416 280T386 326T341 355T285 366Q255 366 229 356T184 326T154 281T143 221ZM411 497Q403 550 371 580T293 610Q242 610 211 587T162 528T138 449T129 366H131Q135 375 147 388T180 415T229 438T296 448Q344 448 384 432T454 388T499 319T515 231Q515 193 504 152T464 75T391 17T277 -6Q247 -6 207 6T129 55T67 158T41 331Q41 370 45 411T61 492T90 567T136 628T202 670T291 686Q379 686 429 639T499 507L411 497Z"  />
<glyph unicode="7" horiz-adv-x="556" d="M77 680H493V595Q493 567 480 534T440 455Q408 400 379 346T326 236T283 122T254 0H146Q159 66 181 129T233 254T298 374T369 488Q377 500 385 514T401 543T412 572T417 598H147V471H77V680Z"  />
<glyph unicode="8" horiz-adv-x="556" d="M142 501Q142 458 175 428T278 398Q347 398 380 428T414 501Q414 544 381 574T278 604Q209 604 176 574T142 501ZM130 205Q130 138 170 107T278 76Q345 76 385 107T426 205Q426 221 421 241T399 280T353 310T278 322Q231 322 203 310T158 280T136 242T130 205ZM36 200Q36 253 57 293T127 365Q85 388 70 424T54 502Q54 524 61 556T91 616T159 665T278 686Q352 686 396 666T464 617T495 556T502 502Q502 460 487 424T429 365Q477 334 498 294T520 200Q520 168 508 132T468 65T394 14T278 -6Q209 -6 163 14T88 65T48 132T36 200Z"  />
<glyph unicode="9" horiz-adv-x="556" d="M145 183Q156 136 185 103T267 70Q313 70 344 92T393 148T420 222T429 301L428 303Q391 257 351 238T251 219Q216 219 179 232T111 274T61 345T41 450Q41 502 59 545T109 620T182 668T269 686Q323 686 368 670T445 614T496 509T515 347Q515 314 512 275T498 197T471 121T426 56T361 11T270 -6Q184 -6 133 39T60 166L145 183ZM129 452Q129 408 142 379T176 332T223 308T275 301Q301 301 327 309T374 334T408 381T421 452Q421 476 413 503T388 552T343 589T275 604Q235 604 207 590T162 553T137 503T129 452Z"  />
<glyph unicode=":" horiz-adv-x="278" d="M88 377V490H190V377H88ZM190 0H88V113H190V0Z"  />
<glyph unicode=";" horiz-adv-x="278" d="M88 490H190V377H88V490ZM88 113H190V0Q190 -10 188 -28T181 -68T169 -113T153 -155H106Q120 -111 125 -77T130 0H88V113Z"  />
<glyph unicode="&lt;" horiz-adv-x="600" d="M553 440L136 253L553 66V-8L47 224V282L553 514V440Z"  />
<glyph unicode="=" horiz-adv-x="600" d="M47 189H553V119H47V189ZM47 387H553V317H47V387Z"  />
<glyph unicode="&gt;" horiz-adv-x="600" d="M47 66L464 253L47 440V514L553 282V224L47 -8V66Z"  />
<glyph unicode="?" horiz-adv-x="574" d="M239 94H327V0H239V94ZM242 392H279Q322 392 351 401T399 427T426 468T434 522Q434 548 423 571T392 611T347 638T295 648Q217 648 183 604T146 482H58Q58 536 74 581T121 657T194 706T286 724Q333 724 374 710T447 669T497 602T516 509Q516 465 502 430T463 368T402 327T324 310V154H242V392Z"  />
<glyph unicode="@" horiz-adv-x="930" d="M579 233Q579 276 556 304T489 333Q454 333 427 317T380 274T351 214T341 145Q341 97 365 69T432 40Q467 40 494 58T540 105T569 168T579 233ZM863 266Q863 201 846 150T798 61T729 5T647 -15Q614 -15 590 -1T553 45Q524 10 490 -6T418 -22Q344 -22 301 23T258 141Q258 191 274 237T321 318T392 374T483 395Q528 395 556 379T599 337H601L610 384H692L634 128Q629 109 628 96T626 75Q626 61 637 53T661 44Q686 44 709 60T750 105T778 174T789 265Q789 326 766 376T702 462T608 517T492 537Q417 537 355 508T247 430T177 314T152 173Q152 98 176 37T244 -68T351 -135T489 -159Q558 -159 625 -138T743 -84L777 -138Q715 -176 643 -200T486 -224Q393 -224 316 -196T184 -117T99 8T68 173Q68 263 100 341T188 477T322 568T492 602Q573 602 641 578T758 509T835 403T863 266Z"  />
<glyph unicode="A" horiz-adv-x="648" d="M331 595H329L221 300H433L331 595ZM281 712H381L639 0H538L462 218H192L110 0H9L281 712Z"  />
<glyph unicode="B" horiz-adv-x="685" d="M71 712H404Q469 712 512 695T582 652T619 592T630 527Q630 472 601 432T526 377V375Q592 359 621 310T651 194Q651 174 644 141T615 77T549 23T435 0H71V712ZM165 410H382Q411 410 437 414T484 431T516 466T528 523Q528 563 515 585T481 617T434 628T381 630H165V410ZM165 82H418Q475 82 512 110T549 198Q549 244 535 270T497 309T444 325T384 328H165V82Z"  />
<glyph unicode="C" horiz-adv-x="778" d="M632 492Q623 528 602 558T550 609T484 642T407 654Q341 654 293 630T213 564T166 469T151 356Q151 297 166 243T212 148T292 83T407 58Q453 58 493 73T563 116T614 183T640 269L739 257Q727 194 696 143T620 57T520 2T407 -18Q324 -18 258 9T145 85T74 204T49 356Q49 439 73 508T144 626T257 703T407 730Q464 730 516 716T610 675T683 606T730 510L632 492Z"  />
<glyph unicode="D" horiz-adv-x="704" d="M165 82H324Q387 82 431 102T502 159T541 247T553 361Q553 422 541 471T502 556T433 610T332 630H165V82ZM71 712H340Q421 712 480 686T579 613T636 499T655 352Q655 276 636 212T577 100T479 27T340 0H71V712Z"  />
<glyph unicode="E" horiz-adv-x="611" d="M71 712H571V630H165V410H518V328H165V82H581V0H71V712Z"  />
<glyph unicode="F" horiz-adv-x="593" d="M71 712H527V630H165V418H501V336H165V0H71V712Z"  />
<glyph unicode="G" horiz-adv-x="815" d="M662 99H660Q615 32 549 7T407 -18Q324 -18 258 9T145 85T74 204T49 356Q49 425 72 492T142 612T254 697T407 730Q464 730 516 717T611 677T688 611T741 520L647 495Q635 529 615 557T566 605T498 636T407 648Q347 648 300 625T219 562T169 471T151 362Q151 303 166 249T212 154T292 89T407 64Q463 64 509 78T589 121T641 193T660 293H414V375H744V-6H662V99Z"  />
<glyph unicode="H" horiz-adv-x="722" d="M71 712H165V410H557V712H651V0H557V328H165V0H71V712Z"  />
<glyph unicode="I" horiz-adv-x="258" d="M82 712H176V0H82V712Z"  />
<glyph unicode="J" horiz-adv-x="389" d="M213 712H307V154Q307 121 296 90T260 35T200 -3T113 -18Q90 -18 66 -16T17 -8V95Q37 84 59 80T100 76Q136 76 158 85T192 111T208 153T213 210V712Z"  />
<glyph unicode="K" horiz-adv-x="648" d="M71 712H165V367L504 712H620L334 418L631 0H517L269 350L165 248V0H71V712Z"  />
<glyph unicode="L" horiz-adv-x="556" d="M71 712H165V82H520V0H71V712Z"  />
<glyph unicode="M" horiz-adv-x="832" d="M74 712H198L416 134L634 712H758V0H664V573H662L454 0H378L170 573H168V0H74V712Z"  />
<glyph unicode="N" horiz-adv-x="704" d="M71 712H166L543 150H545V712H633V0H539L161 561H159V0H71V712Z"  />
<glyph unicode="O" horiz-adv-x="814" d="M151 356Q151 297 166 243T212 148T292 83T407 58Q473 58 521 82T600 148T647 243T663 356Q663 415 648 469T601 564T521 629T407 654Q341 654 293 630T213 564T166 469T151 356ZM49 356Q49 439 73 508T144 626T257 703T407 730Q490 730 556 703T669 627T740 508T765 356Q765 273 741 204T670 86T557 9T407 -18Q324 -18 258 9T145 85T74 204T49 356Z"  />
<glyph unicode="P" horiz-adv-x="630" d="M165 386H383Q444 386 481 414T519 508Q519 568 491 599T396 630H165V386ZM71 712H427Q459 712 492 702T552 668T596 605T613 507Q613 455 596 417T551 353T488 316T419 304H165V0H71V712Z"  />
<glyph unicode="Q" horiz-adv-x="814" d="M151 356Q151 297 166 243T212 148T292 83T407 58Q473 58 521 82T600 148T647 243T663 356Q663 415 648 469T601 564T521 629T407 654Q341 654 293 630T213 564T166 469T151 356ZM636 56Q591 20 534 1T407 -18Q324 -18 258 9T145 85T74 204T49 356Q49 439 73 508T144 626T257 703T407 730Q490 730 556 703T669 627T740 508T765 356Q765 288 749 230T700 125L806 37L747 -34L636 56Z"  />
<glyph unicode="R" horiz-adv-x="667" d="M165 384H378Q411 384 438 390T486 410T517 447T528 507Q528 542 517 565T486 603T439 624T378 630H165V384ZM71 712H393Q435 712 476 703T549 670T602 608T622 507Q622 473 614 441T586 381T535 335T457 308L653 0H539L347 302H165V0H71V712Z"  />
<glyph unicode="S" horiz-adv-x="667" d="M519 503Q517 542 502 570T462 617T405 645T335 654Q310 654 282 649T231 632T192 599T176 547Q176 512 195 491T246 456T319 434T402 416T485 393T557 356T608 296T628 203Q628 146 604 105T542 36T454 -4T354 -18Q291 -18 236 -5T138 38T70 115T39 231L141 240Q145 143 201 101T350 58Q384 58 415 66T471 91T511 135T526 200Q526 237 507 259T456 296T383 320T300 338T217 359T145 392T94 445T74 527Q74 579 96 617T155 680T237 717T329 730Q384 730 433 717T520 677T583 608T616 508L519 503Z"  />
<glyph unicode="T" horiz-adv-x="556" d="M231 630H17V712H539V630H325V0H231V630Z"  />
<glyph unicode="U" horiz-adv-x="684" d="M613 234Q613 173 594 126T540 47T455 -1T342 -18Q279 -18 229 -2T144 47T90 126T71 234V712H165V250Q165 156 207 110T342 64Q435 64 477 110T519 250V712H613V234Z"  />
<glyph unicode="V" horiz-adv-x="610" d="M11 712H114L300 130H302L500 712H599L346 0H249L11 712Z"  />
<glyph unicode="W" horiz-adv-x="999" d="M3 712H104L270 156H272L451 712H548L727 156H729L895 712H996L777 0H684L500 582H498L315 0H222L3 712Z"  />
<glyph unicode="X" horiz-adv-x="610" d="M249 374L34 712H146L305 459L464 712H576L361 374L599 0H486L305 291L124 0H11L249 374Z"  />
<glyph unicode="Y" horiz-adv-x="628" d="M267 328L11 712H124L314 417L504 712H617L361 328V0H267V328Z"  />
<glyph unicode="Z" horiz-adv-x="611" d="M22 90L467 630H57V712H570V624L123 82H589V0H22V90Z"  />
<glyph unicode="[" horiz-adv-x="315" d="M109 712H297V648H191V-90H297V-154H109V712Z"  />
<glyph unicode="\" horiz-adv-x="333" d="M13 730H86L320 -18H247L13 730Z"  />
<glyph unicode="]" horiz-adv-x="315" d="M18 -90H124V648H18V712H206V-154H18V-90Z"  />
<glyph unicode="^" horiz-adv-x="600" d="M271 680H329L553 257H477L300 592L123 257H47L271 680Z"  />
<glyph unicode="_" horiz-adv-x="500" d="M0 -75H500V-125H0V-75Z"  />
<glyph unicode="`" horiz-adv-x="204" d="M-34 713H74L163 572H96L-34 713Z"  />
<glyph unicode="a" horiz-adv-x="500" d="M343 329Q343 380 318 403T231 426Q138 426 133 328L51 333Q59 414 105 452T232 490Q262 490 296 485T358 463T406 418T425 342V120Q425 85 436 76T460 66Q472 66 485 71V3Q473 0 460 -2T434 -4Q397 -4 378 12T351 62Q284 -12 181 -12Q149 -12 121 -2T73 26T40 68T28 120Q28 169 49 200T111 249T210 275T343 287V329ZM343 233Q293 226 251 219T179 200T133 171T116 125Q116 103 125 89T147 67T177 55T208 52Q266 52 304 85T343 178V233Z"  />
<glyph unicode="b" horiz-adv-x="562" d="M440 239Q440 275 432 307T405 365T359 405T291 420Q255 420 228 405T181 365T152 308T142 239Q142 203 150 171T177 113T223 73T291 58Q331 58 359 73T405 113T431 170T440 239ZM63 712H145V418H147Q173 454 212 472T300 490Q361 490 404 469T475 413T515 332T528 239Q528 191 516 146T477 66T404 9T293 -12Q249 -12 210 5T146 57H145V0H63V712Z"  />
<glyph unicode="c" horiz-adv-x="519" d="M398 320Q389 369 355 397T271 426Q227 426 199 409T153 365T129 305T122 238Q122 203 130 170T155 110T200 68T269 52Q330 52 367 86T406 181L494 174Q483 86 423 37T272 -12Q214 -12 170 6T95 56T50 134T34 234Q34 289 49 336T95 417T169 471T271 490Q308 490 343 480T407 450T456 400T486 329L398 320Z"  />
<glyph unicode="d" horiz-adv-x="562" d="M122 239Q122 203 130 171T157 113T203 73T271 58Q311 58 339 73T385 113T411 170T420 239Q420 275 410 307T381 365T335 405T271 420Q231 420 203 405T157 365T131 308T122 239ZM499 0H417V57H415Q391 23 352 6T269 -12Q203 -12 158 9T86 65T46 146T34 239Q34 287 46 332T86 412T157 469T262 490Q310 490 349 472T415 418H417V712H499V0Z"  />
<glyph unicode="e" horiz-adv-x="519" d="M397 285Q393 314 383 340T355 385T312 415T253 426Q223 426 200 414T160 383T134 338T122 285H397ZM122 221Q122 185 131 155T159 101T204 65T266 52Q373 52 400 159L481 149Q458 68 401 28T263 -12Q208 -12 166 7T94 59T49 138T34 235Q34 293 48 340T90 420T161 472T262 490Q318 490 360 471T429 418T471 339T485 240V221H122Z"  />
<glyph unicode="f" horiz-adv-x="278" d="M86 408H7V478H86V563Q86 642 118 677T219 712Q233 712 246 710T271 706V644Q261 646 251 647T226 648Q216 648 206 646T188 637T174 617T168 581V478H257V408H168V0H86V408Z"  />
<glyph unicode="g" horiz-adv-x="562" d="M417 478H499V-4Q499 -31 494 -69T466 -141T400 -200T279 -224Q235 -224 196 -215T127 -184T79 -130T57 -49H145Q144 -78 154 -99T183 -133T225 -153T276 -160Q328 -160 356 -144T398 -103T414 -49T417 6V74H415Q381 30 343 9T252 -12Q221 -12 183 -2T112 37T57 114T34 239Q34 291 47 337T87 417T155 470T253 490Q311 490 352 469T415 413L417 412V478ZM263 420Q200 420 158 376T116 239Q116 201 125 169T154 111T200 72T263 58Q299 58 327 73T376 113T407 172T417 242Q416 291 405 325T373 380T325 410T263 420Z"  />
<glyph unicode="h" horiz-adv-x="519" d="M63 712H145V414H147Q170 450 205 470T287 490Q323 490 354 482T407 453T443 399T456 315V0H374V307Q374 338 367 358T346 391T314 409T273 414Q216 414 181 380T145 288V0H63V712Z"  />
<glyph unicode="i" horiz-adv-x="204" d="M61 712H143V618H61V712ZM61 478H143V0H61V478Z"  />
<glyph unicode="j" horiz-adv-x="204" d="M61 712H143V618H61V712ZM143 -92Q143 -124 139 -150T123 -196T88 -225T28 -236Q3 -236 -8 -235T-26 -232V-162Q-18 -163 -12 -164T3 -166Q13 -166 23 -164T42 -156T55 -140T61 -111V478H143V-92Z"  />
<glyph unicode="k" horiz-adv-x="481" d="M63 712H145V273L333 476H432L258 287L473 0H370L202 228L145 167V0H63V712Z"  />
<glyph unicode="l" horiz-adv-x="204" d="M61 712H143V0H61V712Z"  />
<glyph unicode="m" horiz-adv-x="778" d="M63 478H139V418H141Q164 447 198 468T275 490Q294 490 314 486T354 472T388 446T414 407Q427 425 444 440T480 466T519 483T559 490Q588 490 616 483T666 456T701 402T715 316V0H633V320Q633 365 613 389T549 414Q530 414 509 409T471 391T442 360T430 314V0H348V320Q348 365 328 389T264 414Q245 414 224 409T186 391T157 360T145 314V0H63V478Z"  />
<glyph unicode="n" horiz-adv-x="519" d="M63 478H145V414H147Q170 450 205 470T287 490Q323 490 354 482T407 453T443 399T456 315V0H374V307Q374 338 367 358T346 391T314 409T273 414Q216 414 181 380T145 288V0H63V478Z"  />
<glyph unicode="o" horiz-adv-x="536" d="M122 239Q122 209 128 177T150 116T195 70T268 52Q312 52 340 70T385 116T408 176T414 239Q414 269 408 301T386 362T341 408T268 426Q224 426 196 408T151 362T128 302T122 239ZM34 239Q34 293 50 339T96 418T169 471T268 490Q323 490 366 471T440 419T486 339T502 239Q502 185 486 139T440 60T367 7T268 -12Q213 -12 170 7T96 59T50 139T34 239Z"  />
<glyph unicode="p" horiz-adv-x="562" d="M440 239Q440 275 432 307T405 365T359 405T291 420Q251 420 223 405T177 365T151 308T142 239Q142 203 152 171T181 113T227 73T291 58Q331 58 359 73T405 113T431 170T440 239ZM63 478H145V421H146Q166 448 207 469T299 490Q362 490 406 469T477 413T516 332T528 239Q528 191 516 146T476 66T405 9T300 -12Q252 -12 213 6T147 60H145V-224H63V478Z"  />
<glyph unicode="q" horiz-adv-x="562" d="M122 239Q122 203 130 171T157 113T203 73T271 58Q307 58 334 73T381 113T410 170T420 239Q420 275 412 307T385 365T339 405T271 420Q231 420 203 405T157 365T131 308T122 239ZM499 -224H417V60H415Q389 24 350 6T262 -12Q200 -12 157 9T87 65T47 146T34 239Q34 287 46 332T85 412T157 469T266 490Q287 490 309 485T352 470T388 448T415 421H417V478H499V-224Z"  />
<glyph unicode="r" horiz-adv-x="333" d="M63 478H145V396H147Q176 445 215 464T316 484V394Q304 395 288 395T261 396Q231 396 210 384T174 353T152 312T145 268V0H63V478Z"  />
<glyph unicode="s" horiz-adv-x="481" d="M119 168Q119 135 131 113T162 77T206 58T255 52Q269 52 287 55T322 67T350 92T362 134Q362 164 339 178T281 201T206 217T131 238T73 278T50 351Q50 387 66 413T108 457T166 482T230 490Q254 490 289 483T357 458T412 410T435 334L353 323Q353 349 343 368T317 400T279 419T234 426Q217 426 199 423T166 412T142 391T132 355Q132 328 155 315T214 292T291 275T367 252T426 210T450 135Q450 97 433 70T386 24T319 -3T243 -12Q204 -12 168 -3T102 27T54 79T31 157L119 168Z"  />
<glyph unicode="t" horiz-adv-x="278" d="M7 478H86V627H168V478H257V408H168V104Q168 87 172 73T201 58Q215 58 227 60T252 68V-2Q232 -7 212 -9T171 -12Q139 -12 122 -5T97 14T88 44T86 82V408H7V478Z"  />
<glyph unicode="u" horiz-adv-x="519" d="M456 0H374V64H372Q349 28 314 8T232 -12Q196 -12 165 -4T112 25T76 79T63 163V478H145V163Q145 112 173 88T246 64Q303 64 338 98T374 190V478H456V0Z"  />
<glyph unicode="v" horiz-adv-x="444" d="M11 478H96L224 122H226L349 478H433L264 0H187L11 478Z"  />
<glyph unicode="w" horiz-adv-x="741" d="M13 478H102L221 127H223L337 478H407L519 127H521L645 478H728L554 0H483L370 351H368L252 0H179L13 478Z"  />
<glyph unicode="x" horiz-adv-x="407" d="M157 242L18 478H111L204 315L303 478H396L250 242L396 0H303L204 168L102 0H11L157 242Z"  />
<glyph unicode="y" horiz-adv-x="444" d="M347 478H431L224 -105Q215 -131 204 -155T177 -197T138 -225T82 -236Q64 -236 46 -232T13 -222V-151Q21 -153 36 -156T66 -160Q92 -160 110 -147T143 -93L176 -1L15 478H102L220 117H222L347 478Z"  />
<glyph unicode="z" horiz-adv-x="426" d="M23 70L296 408H48V478H397V410L120 70H403V0H23V70Z"  />
<glyph unicode="{" horiz-adv-x="333" d="M280 648H232Q210 648 200 637T190 598V423Q190 382 183 357T165 316T141 292T116 279Q128 274 141 266T165 243T183 201T190 135V-40Q190 -68 200 -79T232 -90H280V-154H225Q165 -154 137 -128T108 -38V135Q108 183 91 215T34 247V311Q74 311 91 343T108 423V596Q108 659 136 685T225 712H280V648Z"  />
<glyph unicode="|" horiz-adv-x="222" d="M76 786H146V-214H76V786Z"  />
<glyph unicode="}" horiz-adv-x="333" d="M53 -90H101Q123 -90 133 -79T143 -40V135Q143 175 150 201T168 242T192 266T217 279Q205 284 192 292T168 315T150 356T143 423V598Q143 626 133 637T101 648H53V712H108Q168 712 196 686T225 596V423Q225 375 242 343T299 311V247Q259 247 242 215T225 135V-38Q225 -101 197 -127T108 -154H53V-90Z"  />
<glyph unicode="~" horiz-adv-x="600" d="M69 235Q77 251 88 266T115 294T149 313T194 321Q222 321 251 311T309 287Q338 274 363 265T407 255Q423 255 436 261T459 278T478 301T495 325L531 271Q520 255 508 240T481 212T448 193T406 185Q376 185 352 195T302 219Q277 232 251 241T189 251Q156 251 137 229T105 181L69 235Z"  />
<glyph unicode="&#xA0;" horiz-adv-x="278" />
<glyph unicode="&#xA1;" horiz-adv-x="296" d="M104 488H192V394H104V488ZM189 71V-224H107V71L132 341H164L189 71Z"  />
<glyph unicode="&#xA2;" horiz-adv-x="556" d="M253 -11Q203 -7 165 13T101 65T62 140T48 234Q48 285 61 329T100 407T164 461T253 487V586H311V488Q378 483 431 444T500 329L412 320Q404 362 378 389T311 424V52Q360 60 389 93T420 181L508 174Q498 93 445 44T311 -12V-114H253V-11ZM253 423Q219 417 197 398T161 354T142 298T136 238Q136 206 142 176T163 120T199 77T253 53V423Z"  />
<glyph unicode="&#xA3;" horiz-adv-x="556" d="M26 337H131Q99 373 82 413T64 490Q64 538 83 574T134 636T204 673T283 686Q330 686 370 675T439 641T486 583T507 497L419 483Q417 502 411 524T389 566T350 597T287 610Q255 610 233 599T195 571T173 535T166 498Q166 474 173 453T192 413T216 376T241 337H433V273H272Q279 250 282 230T285 193Q285 170 279 150T259 108Q287 95 311 86T368 76Q390 76 406 85T434 108T450 142T455 183H543Q541 142 530 108T498 48T446 9T374 -6Q334 -6 295 12T221 47Q199 21 174 8T113 -6Q72 -6 43 13T13 76Q13 103 24 120T51 146T84 158T113 161Q136 161 156 155T195 137Q203 158 203 176Q203 202 195 226T175 273H26V337ZM77 75Q77 62 89 57T116 52Q130 52 144 58T164 75Q153 82 139 89T112 97Q98 97 88 93T77 75Z"  />
<glyph unicode="&#xA4;" horiz-adv-x="556" d="M99 340Q99 300 111 266T147 208T204 169T278 155Q319 155 352 169T408 207T444 266T457 340Q457 380 445 413T409 472T352 511T278 525Q237 525 204 511T148 472T112 414T99 340ZM278 589Q317 589 357 578T427 541L481 594L532 546L477 492Q501 461 514 422T527 340Q527 297 514 258T477 188L532 134L481 86L427 139Q397 113 357 102T278 91Q239 91 199 102T129 139L75 86L24 134L79 188Q55 219 42 258T29 340Q29 383 42 422T79 492L24 546L75 594L129 541Q159 567 199 578T278 589Z"  />
<glyph unicode="&#xA5;" horiz-adv-x="556" d="M237 165H91V223H237V308H91V366H204L9 680H109L278 398L447 680H547L352 366H465V308H319V223H465V165H319V0H237V165Z"  />
<glyph unicode="&#xA6;" horiz-adv-x="222" d="M76 661H146V411H76V661ZM76 161H146V-89H76V161Z"  />
<glyph unicode="&#xA7;" horiz-adv-x="556" d="M98 -45Q141 -68 187 -86T283 -105Q302 -105 321 -102T355 -91T381 -67T391 -28Q391 -9 380 6T353 32T319 52T286 69L153 138Q124 153 101 169T61 205T36 253T27 316Q27 370 56 409T135 468Q107 491 90 515T73 578Q73 617 91 646T139 693T203 721T273 730Q331 730 385 710T488 658L448 590Q408 617 365 635T272 654Q255 654 237 651T203 639T177 617T167 583Q167 553 182 541T221 515L431 407Q482 381 505 348T529 264Q529 203 498 161T407 105Q485 61 485 -30Q485 -68 469 -96T427 -144T368 -172T300 -181Q265 -181 235 -177T175 -165T117 -145T56 -117L98 -45ZM328 149Q348 152 368 160T405 181T431 211T441 249Q441 280 422 299T380 331L195 426Q189 424 176 418T150 400T126 368T115 320Q115 285 138 261T191 220L328 149Z"  />
<glyph unicode="&#xA8;" horiz-adv-x="204" d="M138 686H226V586H138V686ZM-22 686H66V586H-22V686Z"  />
<glyph unicode="&#xA9;" horiz-adv-x="800" d="M90 356Q90 291 114 234T181 134T280 65T400 40Q463 40 519 65T618 133T685 234T710 356Q710 420 686 477T619 578T520 647T400 672Q337 672 281 647T182 579T115 478T90 356ZM26 356Q26 434 55 502T135 620T254 700T400 730Q478 730 546 701T664 621T744 502T774 356Q774 278 745 210T665 92T546 12T400 -18Q322 -18 254 11T136 91T56 210T26 356ZM596 282Q587 210 536 167T405 123Q358 123 319 141T252 190T208 264T192 357Q192 407 207 450T250 524T318 573T409 591Q444 591 476 581T533 551T574 502T596 435H527Q525 453 517 470T494 502T459 524T410 533Q375 533 348 519T301 480T272 424T262 358Q262 325 272 293T302 236T347 196T405 181Q460 181 489 209T527 282H596Z"  />
<glyph unicode="&#xAA;" horiz-adv-x="325" d="M220 589Q220 618 205 629T152 640Q121 640 105 629T87 589L35 592Q40 641 70 663T153 686Q172 686 194 683T235 670T266 643T278 597V478Q278 452 281 441T302 431Q306 431 309 431T317 434V390Q300 385 288 385Q268 385 252 395T229 429Q208 406 180 396T119 385Q98 385 80 391T49 408T28 433T20 464Q20 501 42 521T95 551T160 563T220 568V589ZM220 528Q189 523 163 519T118 509T89 492T78 467Q78 444 97 438T137 431Q177 431 198 443T220 499V528Z"  />
<glyph unicode="&#xAB;" horiz-adv-x="407" d="M191 415V322L114 254L191 186V93L55 210V298L191 415ZM352 415V322L275 254L352 186V93L216 210V298L352 415Z"  />
<glyph unicode="&#xAC;" horiz-adv-x="600" d="M483 317H47V387H553V108H483V317Z"  />
<glyph unicode="&#xAD;" horiz-adv-x="296" d="M46 295H250V213H46V295Z"  />
<glyph unicode="&#xAE;" horiz-adv-x="800" d="M90 356Q90 291 114 234T181 134T280 65T400 40Q463 40 519 65T618 133T685 234T710 356Q710 420 686 477T619 578T520 647T400 672Q337 672 281 647T182 579T115 478T90 356ZM26 356Q26 434 55 502T135 620T254 700T400 730Q478 730 546 701T664 621T744 502T774 356Q774 278 745 210T665 92T546 12T400 -18Q322 -18 254 11T136 91T56 210T26 356ZM328 385H404Q427 385 446 387T479 397T500 417T508 453Q508 488 481 503T410 518H328V385ZM264 576H427Q572 576 572 453Q572 422 563 400T539 363T505 340T465 328L588 136H515L394 327H328V136H264V576Z"  />
<glyph unicode="&#xAF;" horiz-adv-x="204" d="M-35 680H239V622H-35V680Z"  />
<glyph unicode="&#xB0;" horiz-adv-x="400" d="M57 543Q57 573 68 599T98 644T144 675T200 686Q230 686 256 675T301 645T332 599T343 543Q343 513 332 487T302 442T256 411T200 400Q170 400 144 411T99 441T68 487T57 543ZM109 543Q109 526 117 510T137 481T166 460T200 452Q217 452 233 460T262 480T283 509T291 543Q291 560 283 576T263 605T234 626T200 634Q183 634 167 626T138 606T117 577T109 543Z"  />
<glyph unicode="&#xB1;" horiz-adv-x="600" d="M47 70H553V0H47V70ZM265 269H47V339H265V506H335V339H553V269H335V103H265V269Z"  />
<glyph unicode="&#xB2;" horiz-adv-x="361" d="M40 336Q70 351 106 375T173 429T226 491T247 554Q247 586 228 604T177 622Q157 622 144 616T124 601T113 581T110 561Q110 549 112 536T116 510H46Q40 535 40 559Q40 614 73 650T181 686Q245 686 284 651T323 555Q323 517 303 483T255 421T197 373T144 340V338H328V274H40V336Z"  />
<glyph unicode="&#xB3;" horiz-adv-x="361" d="M139 517Q151 517 160 517T181 516Q188 516 200 517T223 524T243 538T251 565Q251 574 250 584T241 603T221 616T183 622Q141 622 123 599T106 544L36 547Q38 616 73 651T184 686Q222 686 249 676T293 649T319 611T327 570Q327 541 315 518T275 487V485Q306 474 323 447T340 388Q340 372 335 352T312 313T264 281T182 268Q110 268 66 302T21 407H91Q96 364 118 348T183 332Q223 332 243 349T264 393Q264 411 257 422T237 440T209 449T179 452Q169 452 159 452Q150 452 139 450V517Z"  />
<glyph unicode="&#xB4;" horiz-adv-x="204" d="M130 713H238L108 572H41L130 713Z"  />
<glyph unicode="&#xB5;" horiz-adv-x="555" d="M456 104Q456 94 457 86T461 71Q466 62 474 60T491 58Q500 58 511 60T540 68V-2Q521 -6 497 -9T454 -12Q439 -12 423 -9T394 9Q384 20 379 35T374 64H372Q358 40 334 21Q291 -12 232 -12Q219 -12 203 -11T171 -3Q156 4 145 12V-224H63V478H145V163Q145 146 150 125T175 87Q185 78 202 71T246 64Q270 64 294 72Q304 75 313 80T330 91Q359 113 366 138T374 190V478H456V104Z"  />
<glyph unicode="&#xB6;" horiz-adv-x="600" d="M271 332Q226 332 188 347T121 387T78 447T62 520Q62 617 121 664T287 712H515V-163H457V666H329V-163H271V332Z"  />
<glyph unicode="&#xB7;" horiz-adv-x="278" d="M82 310Q82 336 98 352T139 369Q164 369 180 353T196 310Q196 284 180 267T139 250Q114 250 98 267T82 310Z"  />
<glyph unicode="&#xB8;" horiz-adv-x="204" d="M12 -163Q29 -170 44 -174T77 -178Q96 -178 114 -170T133 -138Q133 -117 119 -108T85 -98Q75 -98 66 -100T46 -105L29 -86L93 0H140L94 -62H96Q102 -60 110 -59T126 -58Q160 -58 184 -77T209 -132Q209 -157 197 -175T166 -205T128 -221T95 -225Q86 -225 78 -224Q57 -221 36 -216T-5 -203L12 -163Z"  />
<glyph unicode="&#xB9;" horiz-adv-x="361" d="M160 560H72V612Q116 614 144 626T182 680H236V274H160V560Z"  />
<glyph unicode="&#xBA;" horiz-adv-x="349" d="M87 535Q87 518 90 500T104 466T130 441T174 431Q201 431 218 441T245 466T258 499T262 535Q262 552 259 570T246 604T219 630T174 640Q147 640 131 630T104 605T91 571T87 535ZM23 535Q23 568 33 595T63 643T111 674T174 686Q210 686 238 675T285 643T315 596T326 535Q326 469 286 427T174 385Q139 385 111 396T64 427T34 474T23 535Z"  />
<glyph unicode="&#xBB;" horiz-adv-x="407" d="M216 93V186L293 254L216 322V415L352 298V210L216 93ZM55 93V186L132 254L55 322V415L191 298V210L55 93Z"  />
<glyph unicode="&#xBC;" horiz-adv-x="834" d="M143 560H55V612Q99 614 127 626T165 680H219V274H143V560ZM595 712H664L234 -32H165L595 712ZM677 303H675L556 148H677V303ZM677 84H486V145L691 406H753V148H807V84H753V0H677V84Z"  />
<glyph unicode="&#xBD;" horiz-adv-x="834" d="M474 62Q504 77 540 101T607 155T660 217T681 280Q681 312 662 330T611 348Q591 348 578 342T558 327T547 307T544 287Q544 275 546 262T550 236H480Q474 261 474 285Q474 340 507 376T615 412Q679 412 718 377T757 281Q757 243 737 209T689 147T631 99T578 66V64H762V0H474V62ZM143 560H55V612Q99 614 127 626T165 680H219V274H143V560ZM548 712H617L187 -32H118L548 712Z"  />
<glyph unicode="&#xBE;" horiz-adv-x="834" d="M173 517Q185 517 194 517T215 516Q222 516 234 517T257 524T277 538T285 565Q285 574 284 584T275 603T255 616T217 622Q175 622 157 599T140 544L70 547Q72 616 107 651T218 686Q256 686 283 676T327 649T353 611T361 570Q361 541 349 518T309 487V485Q340 474 357 447T374 388Q374 372 369 352T346 313T298 281T216 268Q144 268 100 302T55 407H125Q130 364 152 348T217 332Q257 332 277 349T298 393Q298 411 291 422T271 440T243 449T213 452Q203 452 193 452Q184 452 173 450V517ZM655 712H724L294 -32H225L655 712ZM677 303H675L556 148H677V303ZM677 84H486V145L691 406H753V148H807V84H753V0H677V84Z"  />
<glyph unicode="&#xBF;" horiz-adv-x="574" d="M335 394H247V488H335V394ZM332 96H295Q252 96 223 87T175 61T148 20T140 -34Q140 -60 151 -83T182 -123T227 -150T279 -160Q357 -160 391 -116T428 6H516Q516 -48 500 -93T453 -169T380 -218T288 -236Q241 -236 200 -222T127 -181T77 -114T58 -21Q58 22 72 58T111 120T172 161T250 178V334H332V96Z"  />
<glyph unicode="&#xC0;" horiz-adv-x="648" d="M331 595H329L221 300H433L331 595ZM281 712H381L639 0H538L462 218H192L110 0H9L281 712ZM188 902H296L385 761H318L188 902Z"  />
<glyph unicode="&#xC1;" horiz-adv-x="648" d="M331 595H329L221 300H433L331 595ZM281 712H381L639 0H538L462 218H192L110 0H9L281 712ZM352 902H460L330 761H263L352 902Z"  />
<glyph unicode="&#xC2;" horiz-adv-x="648" d="M331 595H329L221 300H433L331 595ZM281 712H381L639 0H538L462 218H192L110 0H9L281 712ZM277 902H369L470 761H389L323 856L257 761H178L277 902Z"  />
<glyph unicode="&#xC3;" horiz-adv-x="648" d="M331 595H329L221 300H433L331 595ZM281 712H381L639 0H538L462 218H192L110 0H9L281 712ZM154 770Q158 815 184 846T258 878Q278 878 297 873T333 860Q350 852 365 847T392 841Q415 841 430 852T446 886H494Q491 865 484 846T463 811T432 786T390 777Q375 777 356 783T316 797Q296 804 278 809T246 814Q229 814 216 800T202 770H154Z"  />
<glyph unicode="&#xC4;" horiz-adv-x="648" d="M331 595H329L221 300H433L331 595ZM281 712H381L639 0H538L462 218H192L110 0H9L281 712ZM360 875H448V775H360V875ZM200 875H288V775H200V875Z"  />
<glyph unicode="&#xC5;" horiz-adv-x="648" d="M331 595H329L221 300H433L331 595ZM281 712H381L639 0H538L462 218H192L110 0H9L281 712ZM269 836Q269 812 287 793T331 774Q356 774 374 793T393 836Q393 860 375 879T331 898Q306 898 288 879T269 836ZM229 836Q229 857 237 875T259 908T291 930T331 938Q352 938 370 930T403 908T425 876T433 836Q433 815 425 797T403 764T371 742T331 734Q310 734 292 742T259 764T237 796T229 836Z"  />
<glyph unicode="&#xC6;" horiz-adv-x="1056" d="M519 618H517L321 316H519V618ZM519 234H266L109 0H0L483 712H1023V630H613V398H925V316H613V82H1039V0H519V234Z"  />
<glyph unicode="&#xC7;" horiz-adv-x="778" d="M374 -16Q298 -11 238 18T136 95T72 210T49 356Q49 439 73 508T144 626T257 703T407 730Q464 730 516 716T610 675T683 606T730 510L632 492Q623 528 602 558T550 609T484 642T407 654Q341 654 293 630T213 564T166 469T151 356Q151 297 166 243T212 148T292 83T407 58Q453 58 493 73T563 116T614 183T640 269L739 257Q727 196 698 147T625 62T530 6T421 -17L387 -62H389Q395 -60 403 -59T419 -58Q453 -58 477 -77T502 -132Q502 -157 490 -175T459 -205T421 -221T388 -225Q379 -225 371 -224Q350 -221 329 -216T288 -203L305 -163Q322 -170 337 -174T370 -178Q389 -178 407 -170T426 -138Q426 -117 412 -108T378 -98Q368 -98 359 -100T339 -105L322 -86L374 -16Z"  />
<glyph unicode="&#xC8;" horiz-adv-x="611" d="M71 712H571V630H165V410H518V328H165V82H581V0H71V712ZM170 902H278L367 761H300L170 902Z"  />
<glyph unicode="&#xC9;" horiz-adv-x="611" d="M71 712H571V630H165V410H518V328H165V82H581V0H71V712ZM334 902H442L312 761H245L334 902Z"  />
<glyph unicode="&#xCA;" horiz-adv-x="611" d="M71 712H571V630H165V410H518V328H165V82H581V0H71V712ZM259 902H351L452 761H371L305 856L239 761H160L259 902Z"  />
<glyph unicode="&#xCB;" horiz-adv-x="611" d="M71 712H571V630H165V410H518V328H165V82H581V0H71V712ZM342 875H430V775H342V875ZM182 875H270V775H182V875Z"  />
<glyph unicode="&#xCC;" horiz-adv-x="258" d="M82 712H176V0H82V712ZM-7 902H101L190 761H123L-7 902Z"  />
<glyph unicode="&#xCD;" horiz-adv-x="258" d="M82 712H176V0H82V712ZM157 902H265L135 761H68L157 902Z"  />
<glyph unicode="&#xCE;" horiz-adv-x="258" d="M82 712H176V0H82V712ZM82 902H174L275 761H194L128 856L62 761H-17L82 902Z"  />
<glyph unicode="&#xCF;" horiz-adv-x="258" d="M82 712H176V0H82V712ZM165 875H253V775H165V875ZM5 875H93V775H5V875Z"  />
<glyph unicode="&#xD0;" horiz-adv-x="704" d="M165 82H324Q387 82 431 102T502 159T541 247T553 361Q553 422 541 471T502 556T433 610T332 630H165V410H369V340H165V82ZM71 340H3V410H71V712H340Q421 712 480 686T579 613T636 499T655 352Q655 276 636 212T577 100T479 27T340 0H71V340Z"  />
<glyph unicode="&#xD1;" horiz-adv-x="704" d="M71 712H166L543 150H545V712H633V0H539L161 561H159V0H71V712ZM182 770Q186 815 212 846T286 878Q306 878 325 873T361 860Q378 852 393 847T420 841Q443 841 458 852T474 886H522Q519 865 512 846T491 811T460 786T418 777Q403 777 384 783T344 797Q324 804 306 809T274 814Q257 814 244 800T230 770H182Z"  />
<glyph unicode="&#xD2;" horiz-adv-x="814" d="M151 356Q151 297 166 243T212 148T292 83T407 58Q473 58 521 82T600 148T647 243T663 356Q663 415 648 469T601 564T521 629T407 654Q341 654 293 630T213 564T166 469T151 356ZM49 356Q49 439 73 508T144 626T257 703T407 730Q490 730 556 703T669 627T740 508T765 356Q765 273 741 204T670 86T557 9T407 -18Q324 -18 258 9T145 85T74 204T49 356ZM271 902H379L468 761H401L271 902Z"  />
<glyph unicode="&#xD3;" horiz-adv-x="814" d="M151 356Q151 297 166 243T212 148T292 83T407 58Q473 58 521 82T600 148T647 243T663 356Q663 415 648 469T601 564T521 629T407 654Q341 654 293 630T213 564T166 469T151 356ZM49 356Q49 439 73 508T144 626T257 703T407 730Q490 730 556 703T669 627T740 508T765 356Q765 273 741 204T670 86T557 9T407 -18Q324 -18 258 9T145 85T74 204T49 356ZM435 902H543L413 761H346L435 902Z"  />
<glyph unicode="&#xD4;" horiz-adv-x="814" d="M151 356Q151 297 166 243T212 148T292 83T407 58Q473 58 521 82T600 148T647 243T663 356Q663 415 648 469T601 564T521 629T407 654Q341 654 293 630T213 564T166 469T151 356ZM49 356Q49 439 73 508T144 626T257 703T407 730Q490 730 556 703T669 627T740 508T765 356Q765 273 741 204T670 86T557 9T407 -18Q324 -18 258 9T145 85T74 204T49 356ZM360 902H452L553 761H472L406 856L340 761H261L360 902Z"  />
<glyph unicode="&#xD5;" horiz-adv-x="814" d="M151 356Q151 297 166 243T212 148T292 83T407 58Q473 58 521 82T600 148T647 243T663 356Q663 415 648 469T601 564T521 629T407 654Q341 654 293 630T213 564T166 469T151 356ZM49 356Q49 439 73 508T144 626T257 703T407 730Q490 730 556 703T669 627T740 508T765 356Q765 273 741 204T670 86T557 9T407 -18Q324 -18 258 9T145 85T74 204T49 356ZM237 770Q241 815 267 846T341 878Q361 878 380 873T416 860Q433 852 448 847T475 841Q498 841 513 852T529 886H577Q574 865 567 846T546 811T515 786T473 777Q458 777 439 783T399 797Q379 804 361 809T329 814Q312 814 299 800T285 770H237Z"  />
<glyph unicode="&#xD6;" horiz-adv-x="814" d="M151 356Q151 297 166 243T212 148T292 83T407 58Q473 58 521 82T600 148T647 243T663 356Q663 415 648 469T601 564T521 629T407 654Q341 654 293 630T213 564T166 469T151 356ZM49 356Q49 439 73 508T144 626T257 703T407 730Q490 730 556 703T669 627T740 508T765 356Q765 273 741 204T670 86T557 9T407 -18Q324 -18 258 9T145 85T74 204T49 356ZM443 875H531V775H443V875ZM283 875H371V775H283V875Z"  />
<glyph unicode="&#xD7;" horiz-adv-x="600" d="M300 204L119 22L69 71L251 253L69 435L119 484L300 303L482 484L531 435L350 253L531 71L482 22L300 204Z"  />
<glyph unicode="&#xD8;" horiz-adv-x="815" d="M114 125Q82 172 66 230T49 356Q49 439 73 508T144 626T257 703T407 730Q484 730 545 707T652 642L720 708L770 659L698 590Q765 496 765 356Q765 273 741 204T670 86T557 9T407 -18Q330 -18 269 5T160 71L95 9L45 59L114 125ZM225 134Q257 99 302 79T407 58Q473 58 521 82T600 148T647 243T663 356Q663 448 627 522L225 134ZM587 580Q555 615 511 634T407 654Q341 654 293 630T213 564T166 469T151 356Q151 311 159 270T185 194L587 580Z"  />
<glyph unicode="&#xD9;" horiz-adv-x="684" d="M613 234Q613 173 594 126T540 47T455 -1T342 -18Q279 -18 229 -2T144 47T90 126T71 234V712H165V250Q165 156 207 110T342 64Q435 64 477 110T519 250V712H613V234ZM206 902H314L403 761H336L206 902Z"  />
<glyph unicode="&#xDA;" horiz-adv-x="684" d="M613 234Q613 173 594 126T540 47T455 -1T342 -18Q279 -18 229 -2T144 47T90 126T71 234V712H165V250Q165 156 207 110T342 64Q435 64 477 110T519 250V712H613V234ZM370 902H478L348 761H281L370 902Z"  />
<glyph unicode="&#xDB;" horiz-adv-x="684" d="M613 234Q613 173 594 126T540 47T455 -1T342 -18Q279 -18 229 -2T144 47T90 126T71 234V712H165V250Q165 156 207 110T342 64Q435 64 477 110T519 250V712H613V234ZM295 902H387L488 761H407L341 856L275 761H196L295 902Z"  />
<glyph unicode="&#xDC;" horiz-adv-x="684" d="M613 234Q613 173 594 126T540 47T455 -1T342 -18Q279 -18 229 -2T144 47T90 126T71 234V712H165V250Q165 156 207 110T342 64Q435 64 477 110T519 250V712H613V234ZM378 875H466V775H378V875ZM218 875H306V775H218V875Z"  />
<glyph unicode="&#xDD;" horiz-adv-x="628" d="M267 328L11 712H124L314 417L504 712H617L361 328V0H267V328ZM342 902H450L320 761H253L342 902Z"  />
<glyph unicode="&#xDE;" horiz-adv-x="630" d="M165 282H383Q444 282 481 310T519 404Q519 464 491 495T396 526H165V282ZM71 712H165V608H427Q459 608 492 598T552 564T596 501T613 403Q613 351 596 313T551 249T488 212T419 200H165V0H71V712Z"  />
<glyph unicode="&#xDF;" horiz-adv-x="556" d="M505 237Q505 201 499 158T470 77T404 14T287 -12Q263 -12 240 -8T193 4V84Q217 75 242 70T294 64Q357 64 390 107T423 229Q423 279 405 310T356 358T285 380T200 386V463Q209 463 217 463T235 462Q260 462 283 466T326 482T356 512T368 561Q368 589 360 607T336 635T301 650T258 654Q198 654 172 621T145 536V0H63V532Q63 627 113 678T257 730Q301 730 337 721T398 691T436 638T450 561Q450 517 428 480T364 428V426Q401 419 428 402T472 359T497 302T505 237Z"  />
<glyph unicode="&#xE0;" horiz-adv-x="500" d="M343 329Q343 380 318 403T231 426Q138 426 133 328L51 333Q59 414 105 452T232 490Q262 490 296 485T358 463T406 418T425 342V120Q425 85 436 76T460 66Q472 66 485 71V3Q473 0 460 -2T434 -4Q397 -4 378 12T351 62Q284 -12 181 -12Q149 -12 121 -2T73 26T40 68T28 120Q28 169 49 200T111 249T210 275T343 287V329ZM343 233Q293 226 251 219T179 200T133 171T116 125Q116 103 125 89T147 67T177 55T208 52Q266 52 304 85T343 178V233ZM114 713H222L311 572H244L114 713Z"  />
<glyph unicode="&#xE1;" horiz-adv-x="500" d="M343 329Q343 380 318 403T231 426Q138 426 133 328L51 333Q59 414 105 452T232 490Q262 490 296 485T358 463T406 418T425 342V120Q425 85 436 76T460 66Q472 66 485 71V3Q473 0 460 -2T434 -4Q397 -4 378 12T351 62Q284 -12 181 -12Q149 -12 121 -2T73 26T40 68T28 120Q28 169 49 200T111 249T210 275T343 287V329ZM343 233Q293 226 251 219T179 200T133 171T116 125Q116 103 125 89T147 67T177 55T208 52Q266 52 304 85T343 178V233ZM278 713H386L256 572H189L278 713Z"  />
<glyph unicode="&#xE2;" horiz-adv-x="500" d="M343 329Q343 380 318 403T231 426Q138 426 133 328L51 333Q59 414 105 452T232 490Q262 490 296 485T358 463T406 418T425 342V120Q425 85 436 76T460 66Q472 66 485 71V3Q473 0 460 -2T434 -4Q397 -4 378 12T351 62Q284 -12 181 -12Q149 -12 121 -2T73 26T40 68T28 120Q28 169 49 200T111 249T210 275T343 287V329ZM343 233Q293 226 251 219T179 200T133 171T116 125Q116 103 125 89T147 67T177 55T208 52Q266 52 304 85T343 178V233ZM203 713H295L396 572H315L249 667L183 572H104L203 713Z"  />
<glyph unicode="&#xE3;" horiz-adv-x="500" d="M343 329Q343 380 318 403T231 426Q138 426 133 328L51 333Q59 414 105 452T232 490Q262 490 296 485T358 463T406 418T425 342V120Q425 85 436 76T460 66Q472 66 485 71V3Q473 0 460 -2T434 -4Q397 -4 378 12T351 62Q284 -12 181 -12Q149 -12 121 -2T73 26T40 68T28 120Q28 169 49 200T111 249T210 275T343 287V329ZM343 233Q293 226 251 219T179 200T133 171T116 125Q116 103 125 89T147 67T177 55T208 52Q266 52 304 85T343 178V233ZM80 581Q84 626 110 657T184 689Q204 689 223 684T259 671Q276 663 291 658T318 652Q341 652 356 663T372 697H420Q417 676 410 657T389 622T358 597T316 588Q301 588 282 594T242 608Q222 615 204 620T172 625Q155 625 142 611T128 581H80Z"  />
<glyph unicode="&#xE4;" horiz-adv-x="500" d="M343 329Q343 380 318 403T231 426Q138 426 133 328L51 333Q59 414 105 452T232 490Q262 490 296 485T358 463T406 418T425 342V120Q425 85 436 76T460 66Q472 66 485 71V3Q473 0 460 -2T434 -4Q397 -4 378 12T351 62Q284 -12 181 -12Q149 -12 121 -2T73 26T40 68T28 120Q28 169 49 200T111 249T210 275T343 287V329ZM343 233Q293 226 251 219T179 200T133 171T116 125Q116 103 125 89T147 67T177 55T208 52Q266 52 304 85T343 178V233ZM286 686H374V586H286V686ZM126 686H214V586H126V686Z"  />
<glyph unicode="&#xE5;" horiz-adv-x="500" d="M343 329Q343 380 318 403T231 426Q138 426 133 328L51 333Q59 414 105 452T232 490Q262 490 296 485T358 463T406 418T425 342V120Q425 85 436 76T460 66Q472 66 485 71V3Q473 0 460 -2T434 -4Q397 -4 378 12T351 62Q284 -12 181 -12Q149 -12 121 -2T73 26T40 68T28 120Q28 169 49 200T111 249T210 275T343 287V329ZM343 233Q293 226 251 219T179 200T133 171T116 125Q116 103 125 89T147 67T177 55T208 52Q266 52 304 85T343 178V233ZM188 657Q188 633 206 614T250 595Q275 595 293 614T312 657Q312 681 294 700T250 719Q225 719 207 700T188 657ZM148 657Q148 678 156 696T178 729T210 751T250 759Q271 759 289 751T322 729T344 697T352 657Q352 636 344 618T322 585T290 563T250 555Q229 555 211 563T178 585T156 617T148 657Z"  />
<glyph unicode="&#xE6;" horiz-adv-x="815" d="M299 215Q275 215 244 213T184 202T136 175T116 125Q116 103 125 90T147 68T177 57T208 54Q244 54 271 68T317 104T345 156T354 215H299ZM773 142Q764 104 743 76T693 28T630 -2T560 -12Q515 -12 484 0T431 29T398 61T382 83Q358 56 337 38T292 9T243 -7T182 -12Q150 -12 122 -2T73 25T40 66T28 115Q28 161 46 192T98 243T180 271T288 279H354Q354 309 348 335T329 382T295 414T242 426Q190 426 165 404T133 328L51 333Q78 490 232 490Q284 490 327 472T396 405Q428 450 468 470T558 490Q615 490 656 469T726 410T767 322T781 215H436Q436 184 444 155T468 103T510 66T569 52Q618 51 649 79T691 154L773 142ZM693 279Q690 307 680 333T654 380T614 413T560 426Q531 426 508 413T469 380T444 333T436 279H693Z"  />
<glyph unicode="&#xE7;" horiz-adv-x="519" d="M243 -10Q141 -1 88 65T34 234Q34 289 49 336T95 417T169 471T271 490Q308 490 343 480T407 450T456 400T486 329L398 320Q389 369 355 397T271 426Q227 426 199 409T153 365T129 305T122 238Q122 203 130 170T155 110T200 68T269 52Q330 52 367 86T406 181L494 174Q484 91 429 43T290 -11L252 -62H254Q260 -60 268 -59T284 -58Q318 -58 342 -77T367 -132Q367 -157 355 -175T324 -205T286 -221T253 -225Q244 -225 236 -224Q215 -221 194 -216T153 -203L170 -163Q187 -170 202 -174T235 -178Q254 -178 272 -170T291 -138Q291 -117 277 -108T243 -98Q233 -98 224 -100T204 -105L187 -86L243 -10Z"  />
<glyph unicode="&#xE8;" horiz-adv-x="519" d="M397 285Q393 314 383 340T355 385T312 415T253 426Q223 426 200 414T160 383T134 338T122 285H397ZM122 221Q122 185 131 155T159 101T204 65T266 52Q373 52 400 159L481 149Q458 68 401 28T263 -12Q208 -12 166 7T94 59T49 138T34 235Q34 293 48 340T90 420T161 472T262 490Q318 490 360 471T429 418T471 339T485 240V221H122ZM124 713H232L321 572H254L124 713Z"  />
<glyph unicode="&#xE9;" horiz-adv-x="519" d="M397 285Q393 314 383 340T355 385T312 415T253 426Q223 426 200 414T160 383T134 338T122 285H397ZM122 221Q122 185 131 155T159 101T204 65T266 52Q373 52 400 159L481 149Q458 68 401 28T263 -12Q208 -12 166 7T94 59T49 138T34 235Q34 293 48 340T90 420T161 472T262 490Q318 490 360 471T429 418T471 339T485 240V221H122ZM288 713H396L266 572H199L288 713Z"  />
<glyph unicode="&#xEA;" horiz-adv-x="519" d="M397 285Q393 314 383 340T355 385T312 415T253 426Q223 426 200 414T160 383T134 338T122 285H397ZM122 221Q122 185 131 155T159 101T204 65T266 52Q373 52 400 159L481 149Q458 68 401 28T263 -12Q208 -12 166 7T94 59T49 138T34 235Q34 293 48 340T90 420T161 472T262 490Q318 490 360 471T429 418T471 339T485 240V221H122ZM213 713H305L406 572H325L259 667L193 572H114L213 713Z"  />
<glyph unicode="&#xEB;" horiz-adv-x="519" d="M397 285Q393 314 383 340T355 385T312 415T253 426Q223 426 200 414T160 383T134 338T122 285H397ZM122 221Q122 185 131 155T159 101T204 65T266 52Q373 52 400 159L481 149Q458 68 401 28T263 -12Q208 -12 166 7T94 59T49 138T34 235Q34 293 48 340T90 420T161 472T262 490Q318 490 360 471T429 418T471 339T485 240V221H122ZM296 686H384V586H296V686ZM136 686H224V586H136V686Z"  />
<glyph unicode="&#xEC;" horiz-adv-x="204" d="M61 478H143V0H61V478ZM-34 713H74L163 572H96L-34 713Z"  />
<glyph unicode="&#xED;" horiz-adv-x="204" d="M61 478H143V0H61V478ZM130 713H238L108 572H41L130 713Z"  />
<glyph unicode="&#xEE;" horiz-adv-x="204" d="M61 478H143V0H61V478ZM55 713H147L248 572H167L101 667L35 572H-44L55 713Z"  />
<glyph unicode="&#xEF;" horiz-adv-x="204" d="M61 478H143V0H61V478ZM138 686H226V586H138V686ZM-22 686H66V586H-22V686Z"  />
<glyph unicode="&#xF0;" horiz-adv-x="536" d="M122 239Q122 209 128 177T150 116T195 70T268 52Q312 52 340 70T385 116T408 176T414 239Q414 269 408 301T386 362T341 408T268 426Q224 426 196 408T151 362T128 302T122 239ZM110 576L207 630Q193 644 171 656T128 680L192 730Q212 720 236 705T283 673L384 730L418 696L323 642Q417 563 459 466T502 270Q502 211 488 160T446 70T373 10T268 -12Q213 -12 170 7T96 59T50 139T34 239Q34 293 50 339T96 418T169 471T268 490Q297 490 326 477T373 444V447Q353 493 320 533T249 601L144 542L110 576Z"  />
<glyph unicode="&#xF1;" horiz-adv-x="519" d="M63 478H145V414H147Q170 450 205 470T287 490Q323 490 354 482T407 453T443 399T456 315V0H374V307Q374 338 367 358T346 391T314 409T273 414Q216 414 181 380T145 288V0H63V478ZM90 581Q94 626 120 657T194 689Q214 689 233 684T269 671Q286 663 301 658T328 652Q351 652 366 663T382 697H430Q427 676 420 657T399 622T368 597T326 588Q311 588 292 594T252 608Q232 615 214 620T182 625Q165 625 152 611T138 581H90Z"  />
<glyph unicode="&#xF2;" horiz-adv-x="536" d="M122 239Q122 209 128 177T150 116T195 70T268 52Q312 52 340 70T385 116T408 176T414 239Q414 269 408 301T386 362T341 408T268 426Q224 426 196 408T151 362T128 302T122 239ZM34 239Q34 293 50 339T96 418T169 471T268 490Q323 490 366 471T440 419T486 339T502 239Q502 185 486 139T440 60T367 7T268 -12Q213 -12 170 7T96 59T50 139T34 239ZM132 713H240L329 572H262L132 713Z"  />
<glyph unicode="&#xF3;" horiz-adv-x="536" d="M122 239Q122 209 128 177T150 116T195 70T268 52Q312 52 340 70T385 116T408 176T414 239Q414 269 408 301T386 362T341 408T268 426Q224 426 196 408T151 362T128 302T122 239ZM34 239Q34 293 50 339T96 418T169 471T268 490Q323 490 366 471T440 419T486 339T502 239Q502 185 486 139T440 60T367 7T268 -12Q213 -12 170 7T96 59T50 139T34 239ZM296 713H404L274 572H207L296 713Z"  />
<glyph unicode="&#xF4;" horiz-adv-x="536" d="M122 239Q122 209 128 177T150 116T195 70T268 52Q312 52 340 70T385 116T408 176T414 239Q414 269 408 301T386 362T341 408T268 426Q224 426 196 408T151 362T128 302T122 239ZM34 239Q34 293 50 339T96 418T169 471T268 490Q323 490 366 471T440 419T486 339T502 239Q502 185 486 139T440 60T367 7T268 -12Q213 -12 170 7T96 59T50 139T34 239ZM221 713H313L414 572H333L267 667L201 572H122L221 713Z"  />
<glyph unicode="&#xF5;" horiz-adv-x="536" d="M122 239Q122 209 128 177T150 116T195 70T268 52Q312 52 340 70T385 116T408 176T414 239Q414 269 408 301T386 362T341 408T268 426Q224 426 196 408T151 362T128 302T122 239ZM34 239Q34 293 50 339T96 418T169 471T268 490Q323 490 366 471T440 419T486 339T502 239Q502 185 486 139T440 60T367 7T268 -12Q213 -12 170 7T96 59T50 139T34 239ZM98 581Q102 626 128 657T202 689Q222 689 241 684T277 671Q294 663 309 658T336 652Q359 652 374 663T390 697H438Q435 676 428 657T407 622T376 597T334 588Q319 588 300 594T260 608Q240 615 222 620T190 625Q173 625 160 611T146 581H98Z"  />
<glyph unicode="&#xF6;" horiz-adv-x="536" d="M122 239Q122 209 128 177T150 116T195 70T268 52Q312 52 340 70T385 116T408 176T414 239Q414 269 408 301T386 362T341 408T268 426Q224 426 196 408T151 362T128 302T122 239ZM34 239Q34 293 50 339T96 418T169 471T268 490Q323 490 366 471T440 419T486 339T502 239Q502 185 486 139T440 60T367 7T268 -12Q213 -12 170 7T96 59T50 139T34 239ZM304 686H392V586H304V686ZM144 686H232V586H144V686Z"  />
<glyph unicode="&#xF7;" horiz-adv-x="600" d="M240 48Q240 73 258 90T300 108Q324 108 342 90T360 48Q360 37 355 26T342 7T324 -7T301 -12Q276 -12 258 6T240 48ZM240 458Q240 483 258 500T300 518Q324 518 342 500T360 458Q360 447 355 436T342 417T324 403T301 398Q276 398 258 416T240 458ZM47 288H553V218H47V288Z"  />
<glyph unicode="&#xF8;" horiz-adv-x="537" d="M73 91Q34 153 34 239Q34 293 50 339T96 418T169 471T268 490Q317 490 356 475T425 434L469 477L506 442L458 395Q502 331 502 239Q502 185 486 139T440 60T367 7T268 -12Q217 -12 177 4T105 50L66 12L31 50L73 91ZM160 103Q176 80 202 66T268 52Q312 52 340 70T385 116T408 176T414 239Q414 262 411 287T398 336L160 103ZM371 382Q354 402 329 414T268 426Q224 426 196 408T151 362T128 302T122 239Q122 218 124 196T135 152L371 382Z"  />
<glyph unicode="&#xF9;" horiz-adv-x="519" d="M456 0H374V64H372Q349 28 314 8T232 -12Q196 -12 165 -4T112 25T76 79T63 163V478H145V163Q145 112 173 88T246 64Q303 64 338 98T374 190V478H456V0ZM124 713H232L321 572H254L124 713Z"  />
<glyph unicode="&#xFA;" horiz-adv-x="519" d="M456 0H374V64H372Q349 28 314 8T232 -12Q196 -12 165 -4T112 25T76 79T63 163V478H145V163Q145 112 173 88T246 64Q303 64 338 98T374 190V478H456V0ZM288 713H396L266 572H199L288 713Z"  />
<glyph unicode="&#xFB;" horiz-adv-x="519" d="M456 0H374V64H372Q349 28 314 8T232 -12Q196 -12 165 -4T112 25T76 79T63 163V478H145V163Q145 112 173 88T246 64Q303 64 338 98T374 190V478H456V0ZM213 713H305L406 572H325L259 667L193 572H114L213 713Z"  />
<glyph unicode="&#xFC;" horiz-adv-x="519" d="M456 0H374V64H372Q349 28 314 8T232 -12Q196 -12 165 -4T112 25T76 79T63 163V478H145V163Q145 112 173 88T246 64Q303 64 338 98T374 190V478H456V0ZM296 686H384V586H296V686ZM136 686H224V586H136V686Z"  />
<glyph unicode="&#xFD;" horiz-adv-x="444" d="M347 478H431L224 -105Q215 -131 204 -155T177 -197T138 -225T82 -236Q64 -236 46 -232T13 -222V-151Q21 -153 36 -156T66 -160Q92 -160 110 -147T143 -93L176 -1L15 478H102L220 117H222L347 478ZM250 713H358L228 572H161L250 713Z"  />
<glyph unicode="&#xFE;" horiz-adv-x="562" d="M440 239Q440 275 432 307T405 365T359 405T291 420Q251 420 223 405T177 365T151 308T142 239Q142 203 152 171T181 113T227 73T291 58Q331 58 359 73T405 113T431 170T440 239ZM145 712V421H146Q171 455 210 472T293 490Q362 490 407 469T479 413T517 332T528 239Q528 191 517 146T478 66T408 9T300 -12Q252 -12 213 6T147 60H145V-224H63V712H145Z"  />
<glyph unicode="&#xFF;" horiz-adv-x="444" d="M347 478H431L224 -105Q215 -131 204 -155T177 -197T138 -225T82 -236Q64 -236 46 -232T13 -222V-151Q21 -153 36 -156T66 -160Q92 -160 110 -147T143 -93L176 -1L15 478H102L220 117H222L347 478ZM258 686H346V586H258V686ZM98 686H186V586H98V686Z"  />
<glyph unicode="&#x131;" horiz-adv-x="204" d="M61 478H143V0H61V478Z"  />
<glyph unicode="&#x152;" horiz-adv-x="1148" d="M151 356Q151 300 165 247T210 151T286 84T395 58Q449 58 491 80T561 141T603 235T618 356Q618 411 608 464T573 560T504 628T395 654Q332 654 286 629T210 561T166 466T151 356ZM618 79Q573 31 512 7T384 -18Q304 -18 242 11T137 90T72 209T49 356Q49 430 71 497T135 617T241 699T385 730Q450 730 512 710T618 642V712H1122V630H712V410H1042V328H712V82H1131V0H618V79Z"  />
<glyph unicode="&#x153;" horiz-adv-x="870" d="M748 279Q745 307 735 333T706 380T664 413T610 426Q582 426 558 413T516 379T488 332T478 279H748ZM259 426Q218 426 192 408T150 362T128 302T122 239Q122 209 128 177T149 116T191 70T259 52Q300 52 326 70T368 116T390 176T396 239Q396 269 390 301T369 362T327 408T259 426ZM829 142Q820 104 799 76T749 28T686 -2T616 -12Q561 -12 513 10T435 80Q409 37 365 13T259 -12Q208 -12 166 7T95 59T50 139T34 239Q34 293 50 339T95 418T166 471T259 490Q315 490 364 470T438 404Q470 448 512 469T605 490Q668 490 711 469T783 411T823 324T836 215H478Q477 183 487 154T516 101T563 64T625 50Q674 50 705 79T747 154L829 142Z"  />
<glyph unicode="&#x160;" horiz-adv-x="667" d="M519 503Q517 542 502 570T462 617T405 645T335 654Q310 654 282 649T231 632T192 599T176 547Q176 512 195 491T246 456T319 434T402 416T485 393T557 356T608 296T628 203Q628 146 604 105T542 36T454 -4T354 -18Q291 -18 236 -5T138 38T70 115T39 231L141 240Q145 143 201 101T350 58Q384 58 415 66T471 91T511 135T526 200Q526 237 507 259T456 296T383 320T300 338T217 359T145 392T94 445T74 527Q74 579 96 617T155 680T237 717T329 730Q384 730 433 717T520 677T583 608T616 508L519 503ZM188 902H268L333 807L399 902H480L379 761H287L188 902Z"  />
<glyph unicode="&#x161;" horiz-adv-x="481" d="M119 168Q119 135 131 113T162 77T206 58T255 52Q269 52 287 55T322 67T350 92T362 134Q362 164 339 178T281 201T206 217T131 238T73 278T50 351Q50 387 66 413T108 457T166 482T230 490Q254 490 289 483T357 458T412 410T435 334L353 323Q353 349 343 368T317 400T279 419T234 426Q217 426 199 423T166 412T142 391T132 355Q132 328 155 315T214 292T291 275T367 252T426 210T450 135Q450 97 433 70T386 24T319 -3T243 -12Q204 -12 168 -3T102 27T54 79T31 157L119 168ZM95 713H175L240 618L306 713H387L286 572H194L95 713Z"  />
<glyph unicode="&#x178;" horiz-adv-x="628" d="M267 328L11 712H124L314 417L504 712H617L361 328V0H267V328ZM350 875H438V775H350V875ZM190 875H278V775H190V875Z"  />
<glyph unicode="&#x17D;" horiz-adv-x="611" d="M22 90L467 630H57V712H570V624L123 82H589V0H22V90ZM160 902H240L305 807L371 902H452L351 761H259L160 902Z"  />
<glyph unicode="&#x17E;" horiz-adv-x="426" d="M23 70L296 408H48V478H397V410L120 70H403V0H23V70ZM67 713H147L212 618L278 713H359L258 572H166L67 713Z"  />
<glyph unicode="&#x192;" horiz-adv-x="556" d="M65 -138Q89 -148 120 -148Q139 -148 151 -143T171 -125T183 -92T191 -43L227 269H116L121 333H233L257 543Q260 573 267 599T289 644T325 675T382 686Q424 686 466 672L454 601Q438 606 425 608T392 610Q379 610 370 607T353 593T341 564T333 515L313 333H425L421 269H305L269 -45Q263 -96 254 -130T229 -185T190 -215T134 -224Q116 -224 96 -221T58 -212L65 -138Z"  />
<glyph unicode="&#x2C6;" horiz-adv-x="204" d="M55 713H147L248 572H167L101 667L35 572H-44L55 713Z"  />
<glyph unicode="&#x2C7;" horiz-adv-x="204" d="M-44 713H36L101 618L167 713H248L147 572H55L-44 713Z"  />
<glyph unicode="&#x2DA;" horiz-adv-x="204" d="M40 657Q40 633 58 614T102 595Q127 595 145 614T164 657Q164 681 146 700T102 719Q77 719 59 700T40 657ZM0 657Q0 678 8 696T30 729T62 751T102 759Q123 759 141 751T174 729T196 697T204 657Q204 636 196 618T174 585T142 563T102 555Q81 555 63 563T30 585T8 617T0 657Z"  />
<glyph unicode="&#x2DC;" horiz-adv-x="204" d="M-68 581Q-64 626 -38 657T36 689Q56 689 75 684T111 671Q128 663 143 658T170 652Q193 652 208 663T224 697H272Q269 676 262 657T241 622T210 597T168 588Q153 588 134 594T94 608Q74 615 56 620T24 625Q7 625 -6 611T-20 581H-68Z"  />
<glyph unicode="&#x2013;" horiz-adv-x="500" d="M0 292H500V216H0V292Z"  />
<glyph unicode="&#x2014;" horiz-adv-x="1000" d="M130 292H870V216H130V292Z"  />
<glyph unicode="&#x2018;" horiz-adv-x="278" d="M88 557Q88 567 90 585T97 625T109 670T125 712H172Q158 668 153 634T148 557H190V444H88V557Z"  />
<glyph unicode="&#x2019;" horiz-adv-x="278" d="M88 712H190V599Q190 589 188 571T181 531T169 486T153 444H106Q120 488 125 522T130 599H88V712Z"  />
<glyph unicode="&#x201A;" horiz-adv-x="278" d="M88 113H190V0Q190 -10 188 -28T181 -68T169 -113T153 -155H106Q120 -111 125 -77T130 0H88V113Z"  />
<glyph unicode="&#x201C;" horiz-adv-x="389" d="M67 557Q67 567 69 585T76 625T88 670T104 712H151Q137 668 132 634T127 557H169V444H67V557ZM220 557Q220 567 222 585T229 625T241 670T257 712H304Q290 668 285 634T280 557H322V444H220V557Z"  />
<glyph unicode="&#x201D;" horiz-adv-x="389" d="M220 712H322V599Q322 589 320 571T313 531T301 486T285 444H238Q252 488 257 522T262 599H220V712ZM67 712H169V599Q169 589 167 571T160 531T148 486T132 444H85Q99 488 104 522T109 599H67V712Z"  />
<glyph unicode="&#x201E;" horiz-adv-x="389" d="M220 113H322V0Q322 -10 320 -28T313 -68T301 -113T285 -155H238Q252 -111 257 -77T262 0H220V113ZM67 113H169V0Q169 -10 167 -28T160 -68T148 -113T132 -155H85Q99 -111 104 -77T109 0H67V113Z"  />
<glyph unicode="&#x2020;" horiz-adv-x="556" d="M237 408H61V484H237V712H319V484H495V408H319V-116H237V408Z"  />
<glyph unicode="&#x2021;" horiz-adv-x="556" d="M237 95H61V171H237V434H61V510H237V712H319V510H495V434H319V171H495V95H319V-116H237V95Z"  />
<glyph unicode="&#x2022;" horiz-adv-x="500" d="M72 356Q72 393 86 425T124 482T180 520T250 534Q287 534 319 520T376 482T414 426T428 356Q428 319 414 287T376 230T320 192T250 178Q213 178 181 192T124 230T86 286T72 356Z"  />
<glyph unicode="&#x2026;" horiz-adv-x="1000" d="M782 113H884V0H782V113ZM449 113H551V0H449V113ZM116 113H218V0H116V113Z"  />
<glyph unicode="&#x2030;" horiz-adv-x="1000" d="M514 712H583L129 -32H60L514 712ZM87 516Q87 496 90 477T102 443T124 419T158 410Q178 410 191 419T213 443T225 477T229 516Q229 535 226 554T214 588T192 612T158 622Q138 622 125 613T103 588T91 554T87 516ZM11 516Q11 544 18 574T42 629T88 670T158 686Q200 686 228 670T273 630T298 575T305 516Q305 487 298 457T274 403T228 362T158 346Q116 346 88 362T43 402T18 457T11 516ZM348 164Q348 192 355 222T379 277T425 318T495 334Q537 334 565 318T610 278T635 223T642 164Q642 135 635 105T611 51T565 10T495 -6Q453 -6 425 10T380 50T355 105T348 164ZM424 164Q424 144 427 125T439 91T461 67T495 58Q515 58 528 67T550 91T562 125T566 164Q566 183 563 202T551 236T529 260T495 270Q475 270 462 261T440 236T428 202T424 164ZM771 164Q771 144 774 125T786 91T808 67T842 58Q862 58 875 67T897 91T909 125T913 164Q913 183 910 202T898 236T876 260T842 270Q822 270 809 261T787 236T775 202T771 164ZM695 164Q695 192 702 222T726 277T772 318T842 334Q884 334 912 318T957 278T982 223T989 164Q989 135 982 105T958 51T912 10T842 -6Q800 -6 772 10T727 50T702 105T695 164Z"  />
<glyph unicode="&#x2039;" horiz-adv-x="296" d="M216 415V322L139 254L216 186V93L80 210V298L216 415Z"  />
<glyph unicode="&#x203A;" horiz-adv-x="296" d="M216 210L80 93V186L157 254L80 322V415L216 298V210Z"  />
<glyph unicode="&#x20AC;" horiz-adv-x="556" d="M525 548Q453 614 369 614Q303 614 255 562Q207 510 189 420H479L457 363H182Q181 355 181 346Q181 337 181 328Q181 319 181 312Q181 306 182 302H434L413 245H187Q204 149 252 107Q296 67 377 67Q423 67 455 80Q472 87 490 100T531 132V36Q463 -6 377 -6Q228 -6 151 102Q123 140 112 164Q98 194 90 245H17L40 302H86Q85 307 85 313Q85 320 85 327Q85 339 85 348Q85 357 86 363H17L39 420H93Q120 546 194 615Q268 686 377 686Q429 686 467 674Q487 667 509 656T558 627L525 548Z"  />
<glyph unicode="&#x2122;" horiz-adv-x="990" d="M452 712H553L679 394L805 712H906V300H842V654H840L697 300H661L518 654H516V300H452V712ZM199 654H70V712H392V654H263V300H199V654Z"  />
<glyph unicode="&#xE300;" horiz-adv-x="258" d="M-7 902H101L190 761H123L-7 902Z"  />
<glyph unicode="&#xE301;" horiz-adv-x="258" d="M157 902H265L135 761H68L157 902Z"  />
<glyph unicode="&#xE302;" horiz-adv-x="258" d="M82 902H174L275 761H194L128 856L62 761H-17L82 902Z"  />
<glyph unicode="&#xE303;" horiz-adv-x="258" d="M-17 902H63L128 807L194 902H275L174 761H82L-17 902Z"  />
<glyph unicode="&#xE304;" horiz-adv-x="258" d="M-40 770Q-36 815 -10 846T64 878Q84 878 103 873T139 860Q156 852 171 847T198 841Q221 841 236 852T252 886H300Q297 865 290 846T269 811T238 786T196 777Q181 777 162 783T122 797Q102 804 84 809T52 814Q35 814 22 800T8 770H-40Z"  />
<glyph unicode="&#xE305;" horiz-adv-x="258" d="M165 875H253V775H165V875ZM5 875H93V775H5V875Z"  />
<glyph unicode="&#xE308;" horiz-adv-x="258" d="M69 836Q69 812 87 793T131 774Q156 774 174 793T193 836Q193 860 175 879T131 898Q106 898 88 879T69 836ZM29 836Q29 857 37 875T59 908T91 930T131 938Q152 938 170 930T203 908T225 876T233 836Q233 815 225 797T203 764T171 742T131 734Q110 734 92 742T59 764T37 796T29 836Z"  />

</font>
</defs>
</svg>
