<?xml  version="1.0" encoding="UTF-8"?>
<!DOCTYPE svg PUBLIC "-//W3C//DTD SVG 1.0//EN" "http://www.w3.org/TR/2001/REC-SVG-20010904/DTD/svg10.dtd" >
<svg xmlns="http://www.w3.org/2000/svg" >
<metadata>
<version>1.0</version>
<id><![CDATA[Basic Commercial W01 Light]]></id>
<vendor>Monotype Imaging Inc.</vendor>
<credits>
<name>Fonts.com WebFonts</name>
<URL>http://webfonts.fonts.com</URL>
<role>Home of the Web fonts</role>
</credits>
<license>
<URL>http://webfonts.fonts.com/Legal</URL>
</license>
<copyright><![CDATA[Copyright © 2003 - 2007 Linotype GmbH, www.linotype.com. All rights reserved. This font software may not be reproduced, modified, disclosed or transferred without the express written approval of Linotype GmbH. Basic Commercial is a trademark of Linotype GmbH registered in the U.S. Patent and Trademark Office and may be registered in certain other jurisdictions. This typeface is original artwork of Linotype Design Studio. The design may be protected in certain jurisdictions.]]></copyright>
<trademark><![CDATA[Basic Commercial is a trademark of Linotype GmbH registered in the U.S. Patent and Trademark Office and may be registered in certain other jurisdictions.]]></trademark>
<licensee>
<name></name>
</licensee>
</metadata>
<defs >
<font horiz-adv-x="502" id="56f5655f-7190-49b7-9bde-2829caa5b5d0">
<font-face font-family="" panose-1="2 11 3 3 4 5 3 2 2 4" ascent="931" descent="-248" units-per-em="1000" alphabetic="0">
</font-face>
<missing-glyph horiz-adv-x="0" />

<glyph unicode="&#xA;" />
<glyph unicode="&#xD;" horiz-adv-x="0" />
<glyph unicode=" " horiz-adv-x="278" />
<glyph unicode="!" horiz-adv-x="278" d="M101 116H177V0H101V116ZM173 712V329L164 169H114L105 329V712H173Z"  />
<glyph unicode="&quot;" horiz-adv-x="315" d="M188 712H238V438H188V712ZM77 712H127V438H77V712Z"  />
<glyph unicode="#" horiz-adv-x="556" d="M359 436H219L197 277H337L359 436ZM141 233H27V277H147L169 436H55V480H175L207 712H257L225 480H365L397 712H447L415 480H529V436H409L387 277H501V233H381L349 0H299L331 233H191L159 0H109L141 233Z"  />
<glyph unicode="$" horiz-adv-x="556" d="M303 50Q326 50 355 56T410 79T453 122T471 191Q471 226 456 249T417 287T363 313T303 333V50ZM243 662Q221 662 197 655T154 635T121 601T108 551Q108 519 120 498T151 461T195 436T243 419V662ZM68 182Q78 157 96 134T138 93T189 64T243 50V350Q198 363 161 378T97 416T55 468T40 543Q40 593 60 627T111 683T177 714T243 724V790H303V724Q383 715 434 677T512 552L439 547Q431 569 419 589T390 624T352 650T303 662V403Q358 386 402 370T476 331T523 275T539 191Q539 145 519 108T465 44T389 3T303 -12V-109H243V-12Q200 -12 161 3T90 45T33 105T-5 175L68 182Z"  />
<glyph unicode="%" horiz-adv-x="889" d="M655 722L261 -36L223 -18L617 741L655 722ZM640 38Q670 38 688 51T717 84T731 128T735 175Q735 197 732 221T718 266T689 299T640 312Q610 312 592 299T563 266T549 222T545 175Q545 152 549 128T563 84T591 51T640 38ZM640 362Q678 362 705 345T750 302T776 242T785 175Q785 142 777 109T752 48T708 5T641 -12H639Q600 -12 573 4T528 48T503 108T495 175Q495 208 503 241T529 301T574 345T640 362ZM249 400Q279 400 297 413T326 446T340 490T344 537Q344 559 341 583T327 628T298 661T249 674Q219 674 201 661T172 628T158 584T154 537Q154 514 158 490T172 446T200 413T249 400ZM249 724Q287 724 314 707T359 664T385 604T394 537Q394 504 386 471T361 410T317 367T250 350H248Q209 350 182 366T137 410T112 470T104 537Q104 570 112 603T138 663T183 707T249 724Z"  />
<glyph unicode="&amp;" horiz-adv-x="630" d="M388 595Q388 629 366 648T311 668Q272 668 250 645T227 583Q227 551 244 520T278 463Q296 474 315 487T351 515T377 550T388 595ZM258 379Q231 362 205 344T158 305T125 256T112 194Q112 159 125 132T159 85T208 55T266 44Q316 44 356 66T429 126Q381 186 340 250T258 379ZM552 316Q548 268 538 222T501 135Q512 121 524 107T549 80T579 59T616 50V-12Q590 -12 569 -5T529 14T496 43T464 78Q421 32 376 10T266 -12Q220 -12 180 2T109 44T62 109T44 194Q44 234 60 269T101 334T159 388T225 431Q199 469 183 502T167 583Q167 649 206 686T311 724Q372 724 410 691T448 595Q448 562 436 536T405 487T361 447T312 411Q347 352 385 297T461 186Q474 217 481 250T492 316H552Z"  />
<glyph unicode="&apos;" horiz-adv-x="278" d="M114 712H164V438H114V712Z"  />
<glyph unicode="(" horiz-adv-x="296" d="M289 -188Q226 -153 181 -101T105 13T61 146T46 288Q46 359 60 429T103 562T179 677T289 764V712Q239 673 206 623T152 518T123 403T114 288Q114 232 122 173T151 59T205 -47T289 -136V-188Z"  />
<glyph unicode=")" horiz-adv-x="296" d="M7 -136Q57 -97 90 -47T144 58T173 173T182 288Q182 344 174 403T145 517T91 623T7 712V764Q70 729 115 677T191 563T235 430T250 288Q250 217 236 147T193 14T117 -101T7 -188V-136Z"  />
<glyph unicode="*" horiz-adv-x="278" d="M115 622L112 712H166L161 622L247 652L259 604L172 579L226 511L183 484L138 560L92 484L49 511L104 581L19 604L31 652L115 622Z"  />
<glyph unicode="+" horiz-adv-x="600" d="M275 506H325V278H553V228H325V0H275V228H47V278H275V506Z"  />
<glyph unicode="&#x2c;" horiz-adv-x="278" d="M101 116H177V8Q177 -1 176 -17T170 -54T155 -102T125 -158L91 -133Q115 -105 125 -70T134 0H101V116Z"  />
<glyph unicode="-" horiz-adv-x="370" d="M45 232V294H325V232H45Z"  />
<glyph unicode="." horiz-adv-x="278" d="M177 0H101V116H177V0Z"  />
<glyph unicode="/" horiz-adv-x="463" d="M397 730H450L66 -18H13L397 730Z"  />
<glyph unicode="0" horiz-adv-x="556" d="M27 356Q27 453 47 523T103 637T183 703T278 724Q327 724 372 703T453 638T508 523T529 356Q529 258 509 189T453 75T373 9T278 -12Q228 -12 183 9T103 74T48 188T27 356ZM95 356Q95 257 114 196T161 101T220 56T278 44Q303 44 335 55T395 101T442 196T461 356Q461 455 442 516T395 611T335 656T278 668Q252 668 221 657T161 611T114 516T95 356Z"  />
<glyph unicode="1" horiz-adv-x="556" d="M145 603Q167 602 190 605T232 621T265 655T279 712H337V0H277V578Q247 560 214 554T145 547V603Z"  />
<glyph unicode="2" horiz-adv-x="556" d="M67 395Q54 423 48 453T42 514Q42 562 58 600T105 666T179 709T275 724Q395 724 458 662T522 494Q522 447 503 402T453 316T383 236T301 165T217 105T141 58V56H489V0H44V56Q70 76 110 102T196 160T288 230T371 310T431 400T454 498Q454 536 441 567T404 621T349 656T279 668Q242 668 210 658T154 627T116 576T102 507Q102 474 114 443T147 387L67 395Z"  />
<glyph unicode="3" horiz-adv-x="556" d="M98 227Q98 170 117 135T164 79T224 51T283 44Q316 44 346 54T400 83T438 129T452 193Q452 247 434 277T387 321T323 339T255 343H222Q207 343 193 343Q180 343 163 341V400Q178 399 192 399Q207 399 222 399H253Q342 399 390 431T438 523Q438 596 394 632T282 668Q205 668 163 627T112 512L44 530Q69 632 130 678T289 724Q349 724 390 706T457 660T494 599T506 535Q506 502 497 474T468 425T422 390T357 376V374Q362 374 376 373T408 366T446 349T482 318T509 268T520 196Q520 145 501 106T450 41T375 2T284 -12Q175 -12 108 43T30 205L98 227Z"  />
<glyph unicode="4" horiz-adv-x="556" d="M102 234H351V609H349L102 234ZM34 234L345 712H411V234H524V178H411V0H351V178H34V234Z"  />
<glyph unicode="5" horiz-adv-x="556" d="M61 310L82 712H458V650H138L125 413H127Q139 435 156 450T194 474T237 488T279 492Q351 492 396 466T467 403T502 322T512 244Q512 211 502 167T465 83T389 16T262 -12Q168 -12 108 40T32 192L98 211Q106 136 148 90T262 44Q297 44 330 54T388 88T429 150T444 245Q444 287 433 322T401 383T346 422T269 436Q210 436 172 399T119 306L61 310Z"  />
<glyph unicode="6" horiz-adv-x="556" d="M289 424Q248 424 214 411T155 373T116 317T102 248Q102 201 117 163T157 99T214 58T282 44Q315 44 346 55T401 88T439 146T454 228Q454 263 446 298T419 361T368 406T289 424ZM448 543Q443 586 428 610T391 648T347 664T305 668Q245 668 208 644T149 580T117 489T102 384H104Q119 405 139 423T183 453T233 473T285 480Q325 480 367 468T443 427T500 349T522 227Q522 182 508 139T465 63T390 9T280 -12Q210 -12 163 15T88 90T47 199T34 332Q34 418 46 480T80 586T128 657T185 699T247 719T306 724Q387 724 440 685T516 565L448 543Z"  />
<glyph unicode="7" horiz-adv-x="556" d="M54 712H512V656Q455 585 410 504T332 338T281 167T259 0H191Q200 99 219 182T268 342T341 493T442 650H114V491H54V712Z"  />
<glyph unicode="8" horiz-adv-x="556" d="M278 724Q353 724 398 703T467 652T499 590T507 537Q507 503 495 476T465 429T426 398T386 384V382Q415 373 440 356T485 316T516 264T527 203Q527 149 509 109T457 42T379 2T278 -12Q237 -12 193 -1T113 35T53 102T29 203Q29 237 40 266T70 318T115 357T170 382V384Q152 387 131 398T91 428T61 475T49 537Q49 558 56 590T88 651T158 702T278 724ZM278 405Q324 405 355 419T405 455T431 498T439 538Q439 556 433 578T409 621T360 654T278 668Q232 668 201 657T152 626T125 584T117 538Q117 515 127 492T157 449T207 418T278 405ZM278 349Q189 350 143 307T97 194Q97 159 111 131T150 84T208 54T278 44Q315 44 348 54T405 83T444 131T459 194Q459 263 413 306T278 349Z"  />
<glyph unicode="9" horiz-adv-x="556" d="M267 288Q307 288 341 301T401 339T440 395T454 466Q454 508 439 545T399 609T342 652T274 668Q241 668 210 657T155 624T117 566T102 484Q102 450 110 416T137 353T188 306T267 288ZM108 169Q113 126 128 101T165 64T208 48T251 44Q311 44 348 68T407 132T439 223T454 328H452Q437 307 417 289T373 259T323 239T271 232Q231 232 189 244T113 286T56 364T34 485Q34 530 48 573T90 649T163 703T270 724Q343 724 391 698T469 627T510 522T522 392Q522 302 510 237T476 127T428 55T371 13T309 -7T250 -12Q169 -12 116 27T40 147L108 169Z"  />
<glyph unicode=":" horiz-adv-x="278" d="M177 357H101V473H177V357ZM177 0H101V116H177V0Z"  />
<glyph unicode=";" horiz-adv-x="278" d="M177 357H101V473H177V357ZM101 116H177V8Q177 -1 176 -17T170 -54T155 -102T125 -158L91 -133Q115 -105 125 -70T134 0H101V116Z"  />
<glyph unicode="&lt;" horiz-adv-x="600" d="M553 -8L47 226V280L553 514V459L108 253L553 47V-8Z"  />
<glyph unicode="=" horiz-adv-x="600" d="M553 131H47V181H553V131ZM553 325H47V375H553V325Z"  />
<glyph unicode="&gt;" horiz-adv-x="600" d="M553 226L47 -8V47L492 253L47 459V514L553 280V226Z"  />
<glyph unicode="?" horiz-adv-x="481" d="M185 0V116H261V0H185ZM193 174V234Q193 266 206 290T239 335T282 375T325 417T358 468T371 534Q371 564 361 588T333 630T291 658T238 668Q209 668 184 658T141 631T113 591T102 541Q102 524 104 511T109 486T118 462T129 434L54 456Q46 479 44 502T42 549Q42 577 52 609T84 668T144 712T238 730Q282 730 319 716T382 677T424 615T439 534Q439 487 425 454T391 394T346 348T302 307T267 263T253 208V174H193Z"  />
<glyph unicode="@" horiz-adv-x="930" d="M590 229Q590 277 565 308T488 340Q448 340 418 323T366 277T334 212T323 137Q323 85 348 53T424 20Q463 20 493 39T545 90T578 157T590 229ZM627 110Q622 91 621 78T619 56Q619 42 631 34T658 25Q686 25 710 43T753 92T781 166T792 259Q792 323 767 374T700 462T604 518T489 538Q413 538 350 509T242 429T171 311T146 167Q146 90 170 28T239 -79T347 -148T487 -173Q560 -173 625 -151T741 -95L770 -140Q709 -178 641 -203T486 -229Q395 -229 320 -201T190 -120T106 5T76 167Q76 256 108 334T195 469T326 560T489 594Q565 594 632 570T748 502T826 397T855 260Q855 196 838 143T793 53T726 -5T645 -26Q615 -26 593 -12T560 35Q528 0 493 -16T419 -33Q381 -33 351 -21T299 13T267 65T255 133Q255 183 271 230T318 313T392 371T488 393Q536 393 566 376T611 332H613L623 382H688L627 110Z"  />
<glyph unicode="A" horiz-adv-x="611" d="M441 270L309 621L173 270H441ZM340 712L616 0H543L463 214H150L65 0H-5L285 712H340Z"  />
<glyph unicode="B" horiz-adv-x="648" d="M133 62H379Q422 62 453 73T503 104T532 148T541 198Q541 266 494 308T355 350H133V62ZM65 712H371Q441 712 483 692T547 644T576 588T583 545Q583 475 552 437T453 386V384Q492 380 521 364T570 323T599 265T609 198Q609 159 596 124T555 61T483 17T378 0H65V712ZM133 412H351Q429 412 472 442T515 532Q515 598 476 624T357 650H133V412Z"  />
<glyph unicode="C" horiz-adv-x="648" d="M558 512Q547 549 531 578T491 627T433 657T350 668Q290 668 246 646T172 582T127 484T112 356Q112 271 130 212T182 115T261 61T361 44Q445 44 491 84T561 195L626 160Q588 64 518 23T348 -18Q285 -18 230 2T133 68T68 184T44 356Q44 457 69 528T135 644T231 709T343 730Q396 730 439 720T516 688T578 631T626 546L558 512Z"  />
<glyph unicode="D" horiz-adv-x="685" d="M80 712H360Q414 712 456 697T530 655T582 593T617 518T635 437T641 356Q641 300 627 237T578 122T486 35T341 0H80V712ZM148 62H337Q403 62 448 88T521 155T561 249T573 356Q573 405 562 457T525 552T457 622T351 650H148V62Z"  />
<glyph unicode="E" horiz-adv-x="593" d="M65 712H531V650H133V398H492V336H133V62H552V0H65V712Z"  />
<glyph unicode="F" horiz-adv-x="556" d="M65 712H529V650H133V412H487V350H133V0H65V712Z"  />
<glyph unicode="G" horiz-adv-x="685" d="M569 516Q543 596 496 632T370 668Q302 668 254 640T174 568T127 467T112 356Q112 300 125 245T168 145T243 72T352 44Q410 44 451 65T518 119T555 193T567 273V312H303V374H627V0H567V103H565Q552 70 530 47T479 10T418 -11T352 -18Q274 -18 216 11T120 92T63 211T44 356Q44 428 63 495T122 615T222 698T365 730Q467 730 531 686T634 551L569 516Z"  />
<glyph unicode="H" horiz-adv-x="722" d="M80 712H148V398H574V712H642V0H574V336H148V0H80V712Z"  />
<glyph unicode="I" horiz-adv-x="222" d="M77 712H145V0H77V712Z"  />
<glyph unicode="J" horiz-adv-x="481" d="M404 712V213Q404 161 393 119T358 46T296 -1T202 -18Q102 -18 47 31T-8 178V196L60 208V182Q60 122 95 83T202 44Q241 44 266 55T307 88T329 140T336 208V712H404Z"  />
<glyph unicode="K" horiz-adv-x="630" d="M65 712H133V316L520 712H615L337 432L639 0H556L288 383L133 226V0H65V712Z"  />
<glyph unicode="L" horiz-adv-x="556" d="M80 712H148V62H541V0H80V712Z"  />
<glyph unicode="M" horiz-adv-x="778" d="M74 712H157L388 116H390L621 712H704V0H636V582H634L412 0H366L144 582H142V0H74V712Z"  />
<glyph unicode="N" horiz-adv-x="704" d="M80 712H147L554 114H556V712H624V0H557L150 598H148V0H80V712Z"  />
<glyph unicode="O" horiz-adv-x="704" d="M112 356Q112 300 125 245T168 145T243 72T352 44Q415 44 460 72T535 144T578 244T592 356Q592 411 579 467T536 567T461 640T352 668Q289 668 244 640T169 568T126 467T112 356ZM44 356Q44 427 62 494T119 613T215 698T352 730Q431 730 489 698T585 614T641 494T660 356Q660 285 642 218T585 99T489 14T352 -18Q273 -18 215 14T119 98T63 218T44 356Z"  />
<glyph unicode="P" horiz-adv-x="630" d="M148 385H374Q548 385 548 518Q548 534 545 556T527 600T484 635T402 650H148V385ZM80 712H431Q483 712 518 695T576 649T607 587T616 518Q616 466 600 429T556 369T488 334T400 323H148V0H80V712Z"  />
<glyph unicode="Q" horiz-adv-x="704" d="M112 356Q112 300 125 245T168 145T243 72T352 44Q415 44 460 72T535 144T578 244T592 356Q592 411 579 467T536 567T461 640T352 668Q289 668 244 640T169 568T126 467T112 356ZM651 -18L561 70Q523 29 472 6T352 -18Q273 -18 215 14T119 98T63 218T44 356Q44 427 62 494T119 613T215 698T352 730Q431 730 489 698T585 614T641 494T660 356Q660 292 645 231T599 119L697 31L651 -18Z"  />
<glyph unicode="R" horiz-adv-x="611" d="M65 712H380Q435 712 474 695T539 651T576 587T588 514Q588 422 532 374T379 319L607 0H521L295 316H133V0H65V712ZM133 378H344Q398 378 432 390T485 422T512 466T520 514Q520 576 483 613T355 650H133V378Z"  />
<glyph unicode="S" horiz-adv-x="611" d="M108 214Q110 169 125 137T166 84T228 54T308 44Q350 44 385 54T447 84T488 129T503 189Q503 230 485 255T437 298T369 325T291 346T213 370T145 406T97 462T78 549Q78 598 99 632T154 688T227 720T305 730Q396 730 462 695T559 571L496 537Q474 607 423 637T305 668Q278 668 250 661T198 638T161 601T146 549Q146 509 164 485T212 444T280 418T358 398T436 375T504 341T552 285T571 200Q571 94 502 38T308 -18Q254 -18 210 -8T131 26T73 87T40 179L108 214Z"  />
<glyph unicode="T" horiz-adv-x="536" d="M11 712H525V650H302V0H234V650H11V712Z"  />
<glyph unicode="U" horiz-adv-x="666" d="M595 231Q595 170 577 124T524 46T441 -2T333 -18Q274 -18 226 -2T143 45T90 123T71 231V712H139V233Q139 181 154 145T196 87T257 54T333 44Q373 44 408 54T470 86T511 145T527 233V712H595V231Z"  />
<glyph unicode="V" horiz-adv-x="593" d="M0 712H73L296 108L523 712H593L326 0H266L0 712Z"  />
<glyph unicode="W" horiz-adv-x="870" d="M3 712H74L239 120H241L412 712H462L638 124H640L797 712H867L664 0H609L436 574H434L269 0H216L3 712Z"  />
<glyph unicode="X" horiz-adv-x="630" d="M35 712H123L316 431L511 712H596L362 384L630 0H545L315 343L79 0H0L269 388L35 712Z"  />
<glyph unicode="Y" horiz-adv-x="610" d="M271 297L3 712H85L307 360L529 712H607L339 297V0H271V297Z"  />
<glyph unicode="Z" horiz-adv-x="574" d="M47 712H550V668L119 62H546V0H24V44L455 650H47V712Z"  />
<glyph unicode="[" horiz-adv-x="296" d="M93 -188V764H262V714H153V-138H262V-188H93Z"  />
<glyph unicode="\" horiz-adv-x="463" d="M13 730H66L450 -18H397L13 730Z"  />
<glyph unicode="]" horiz-adv-x="296" d="M143 714H34V764H203V-188H34V-138H143V714Z"  />
<glyph unicode="^" horiz-adv-x="600" d="M44 259L274 712H326L556 259H499L300 652L102 259H44Z"  />
<glyph unicode="_" horiz-adv-x="500" d="M0 -125V-75H500V-125H0Z"  />
<glyph unicode="`" horiz-adv-x="185" d="M-34 697H43L154 558H103L-34 697Z"  />
<glyph unicode="a" horiz-adv-x="481" d="M481 -6Q453 -6 431 -5T393 4T368 29T356 78H354Q326 29 284 9T186 -12Q157 -12 130 -5T81 18T46 58T33 115Q33 153 48 179T87 222T143 249T205 268L352 306V354Q352 401 321 421T232 442Q172 442 144 413T113 326L45 338Q75 492 234 492Q301 492 337 475T389 435T409 386T412 342V107Q412 84 417 71T431 52T453 45T481 44V-6ZM93 116Q93 96 102 83T125 61T156 48T191 44Q213 44 240 52T293 78T335 125T352 199V254L179 206Q143 196 118 177T93 116Z"  />
<glyph unicode="b" horiz-adv-x="500" d="M407 240Q407 331 367 383T258 436Q215 436 188 419T146 373T126 310T120 240Q120 205 126 170T149 107T192 62T262 44Q327 44 367 96T407 240ZM63 712H123V406H125Q141 447 179 469T266 492Q307 492 343 476T407 426T451 345T467 234Q467 167 447 121T397 45T331 2T263 -12Q218 -12 180 8T125 74H123V0H63V712Z"  />
<glyph unicode="c" horiz-adv-x="463" d="M388 361Q370 401 335 418T256 436Q225 436 196 424T144 388T107 326T93 240Q93 190 107 154T143 93T193 56T250 44Q298 44 332 66T382 122L443 107Q417 47 367 18T250 -12Q205 -12 166 6T97 57T51 136T33 240Q34 297 50 343T97 423T170 474T264 492Q286 492 312 487T363 469T410 432T449 373L388 361Z"  />
<glyph unicode="d" horiz-adv-x="500" d="M93 240Q93 149 133 97T238 44Q280 44 307 61T351 107T373 170T380 240Q380 275 375 310T354 373T312 418T242 436Q174 436 134 384T93 240ZM377 65H375Q354 22 316 5T235 -12Q201 -12 166 1T101 44T52 120T33 234Q33 297 49 345T92 426T156 475T234 492Q285 492 319 472T375 417H377V712H437V0H377V65Z"  />
<glyph unicode="e" horiz-adv-x="500" d="M101 242V229Q101 189 110 155T138 97T186 58T255 44Q318 44 353 71T411 146L467 131Q440 64 385 26T250 -12Q205 -12 166 4T97 52T50 131T33 240Q33 301 50 348T96 427T165 475T250 492Q303 492 343 473T410 421T451 341T467 242H101ZM399 292Q394 318 384 344T357 390T314 423T250 436Q218 436 192 425T147 394T117 348T101 292H399Z"  />
<glyph unicode="f" horiz-adv-x="296" d="M118 430H13V480H118V632Q118 686 151 708T236 730Q244 730 261 728T289 720V663Q280 668 267 671T234 674Q203 674 191 657T178 603V480H283V430H178V0H118V430Z"  />
<glyph unicode="g" horiz-adv-x="519" d="M394 231Q394 270 388 306T366 372T319 418T242 436Q174 436 134 384T93 240Q93 149 133 97T242 44Q285 44 314 58T361 98T386 157T394 231ZM96 -63Q104 -133 144 -162T245 -192Q276 -192 304 -187T352 -164T384 -113T396 -26V73L395 75Q368 29 327 9T237 -12Q205 -12 169 1T103 44T53 120T33 234Q33 297 49 345T92 426T156 475T234 492Q291 492 332 469T394 401H396V480H456V-21Q456 -58 451 -98T424 -171T360 -226T245 -248Q153 -248 99 -210T35 -76L96 -63Z"  />
<glyph unicode="h" horiz-adv-x="500" d="M63 712H123V409H125Q148 455 187 473T268 492Q312 492 344 480T396 446T427 393T437 325V0H377V307Q377 380 347 408T260 436Q233 436 208 427T165 399T135 350T123 280V0H63V712Z"  />
<glyph unicode="i" horiz-adv-x="186" d="M63 678H123V584H63V678ZM63 480H123V0H63V480Z"  />
<glyph unicode="j" horiz-adv-x="186" d="M63 678H123V584H63V678ZM63 480H123V-137Q123 -199 95 -223T22 -248Q4 -248 -18 -244T-56 -231V-168Q-45 -177 -24 -184T18 -192Q50 -192 56 -172T63 -117V480Z"  />
<glyph unicode="k" horiz-adv-x="481" d="M63 712H123V227L385 480H461L266 291L480 0H407L223 250L123 153V0H63V712Z"  />
<glyph unicode="l" horiz-adv-x="186" d="M63 712H123V0H63V712Z"  />
<glyph unicode="m" horiz-adv-x="760" d="M68 480H128V403H130Q146 441 179 466T263 492Q317 492 355 467T401 387H403Q422 436 457 464T553 492Q605 492 633 473T675 427T690 369T692 317V0H632V310Q632 330 631 352T620 393T593 424T540 436Q508 436 484 423T444 386T419 333T410 267V0H350V302Q350 325 348 349T336 392T309 424T258 436Q202 436 165 390T128 264V0H68V480Z"  />
<glyph unicode="n" horiz-adv-x="500" d="M63 480H123V410H125Q148 455 187 473T268 492Q312 492 344 480T396 446T427 393T437 325V0H377V307Q377 380 347 408T260 436Q233 436 208 427T165 399T135 350T123 280V0H63V480Z"  />
<glyph unicode="o" horiz-adv-x="500" d="M250 436Q217 436 188 423T138 384T105 323T93 240Q93 193 105 157T138 96T188 57T250 44Q283 44 312 57T362 95T395 157T407 240Q407 286 395 322T362 384T312 422T250 436ZM33 240Q33 301 50 348T96 427T165 475T250 492Q295 492 334 476T403 428T450 349T467 240Q467 178 450 131T404 53T335 5T250 -12Q205 -12 166 4T97 52T50 131T33 240Z"  />
<glyph unicode="p" horiz-adv-x="500" d="M407 240Q407 331 367 383T263 436Q218 436 191 419T147 373T126 309T120 240Q120 205 125 170T146 107T190 62T262 44Q327 44 367 96T407 240ZM63 480H123V408H125Q139 443 177 467T266 492Q305 492 341 477T406 431T450 354T467 248Q467 173 450 123T404 43T341 1T270 -12Q217 -12 180 7T125 68H123V-248H63V480Z"  />
<glyph unicode="q" horiz-adv-x="500" d="M93 240Q93 149 133 97T238 44Q282 44 310 61T353 107T374 170T380 240Q380 274 375 309T353 372T310 418T237 436Q173 436 133 384T93 240ZM377 -248V74H375Q355 28 317 8T230 -12Q194 -12 159 0T96 43T51 123T33 248Q33 308 49 354T94 430T158 476T234 492Q285 492 323 468T375 408H377V480H437V-248H377Z"  />
<glyph unicode="r" horiz-adv-x="296" d="M72 480H132V413H134Q159 451 188 471T264 492Q276 492 286 492T307 490V438Q288 442 267 442Q197 442 165 396T132 276V0H72V480Z"  />
<glyph unicode="s" horiz-adv-x="444" d="M83 133Q103 81 134 60T222 38Q240 38 261 42T299 57T327 87T339 136Q339 172 318 189T266 215T197 230T129 249T76 287T55 360Q55 386 65 410T97 452T148 481T219 492Q290 492 336 468T400 383L343 369Q327 414 299 428T228 442Q194 442 172 436T138 418T120 392T115 358Q115 327 136 312T188 288T257 272T325 251T378 209T399 134Q399 104 387 78T351 31T293 0T213 -12Q186 -12 160 -7T109 11T64 50T25 115L83 133Z"  />
<glyph unicode="t" horiz-adv-x="278" d="M8 480H106V685H166V480H270V430H166V113Q166 99 166 87T170 65T181 50T201 44Q222 44 237 51T267 68V8Q222 -12 188 -12Q172 -12 157 -8T131 7T113 33T106 73V430H8V480Z"  />
<glyph unicode="u" horiz-adv-x="500" d="M377 70H375Q352 25 313 7T232 -12Q143 -12 103 34T63 155V480H123V173Q123 100 153 72T240 44Q267 44 292 53T335 81T365 130T377 200V480H437V0H377V70Z"  />
<glyph unicode="v" horiz-adv-x="407" d="M2 480H61L192 95H194L343 480H405L214 0H167L2 480Z"  />
<glyph unicode="w" horiz-adv-x="667" d="M-1 480H61L187 103H189L309 480H358L478 103H480L606 480H668L504 0H454L334 387H332L213 0H163L-1 480Z"  />
<glyph unicode="x" horiz-adv-x="426" d="M181 252L23 480H90L215 299L342 480H409L249 252L422 0H356L215 205L71 0H4L181 252Z"  />
<glyph unicode="y" horiz-adv-x="426" d="M10 480H66L205 76H207L365 480H422L185 -129Q177 -150 168 -171T146 -209T115 -237T68 -248Q51 -248 35 -243T4 -230V-168Q18 -176 33 -184T66 -192Q79 -192 89 -185T106 -168T118 -147T126 -127L175 -1L10 480Z"  />
<glyph unicode="z" horiz-adv-x="370" d="M272 430H32V480H356V447L89 50H360V0H10V41L272 430Z"  />
<glyph unicode="{" horiz-adv-x="333" d="M83 313Q109 312 123 330T145 373T153 426T155 470V637Q155 658 159 680T173 721T200 752T243 764H293V714H255Q230 714 223 689T215 613V453Q215 433 211 409T199 361T177 319T143 289V287Q163 277 176 258T198 215T211 168T215 123V-37Q215 -88 222 -113T255 -138H293V-188H243Q217 -188 201 -176T174 -146T159 -105T155 -61V106Q155 122 154 149T146 202T125 246T83 263V313Z"  />
<glyph unicode="|" horiz-adv-x="222" d="M86 786H136V-214H86V786Z"  />
<glyph unicode="}" horiz-adv-x="333" d="M250 263Q223 264 209 246T187 203T179 150T178 106V-61Q178 -82 174 -104T160 -145T132 -176T90 -188H40V-138H78Q103 -138 110 -113T118 -37V123Q118 143 122 167T134 215T156 257T190 287V289Q170 299 157 318T135 361T122 408T118 453V613Q118 664 111 689T78 714H40V764H90Q115 764 132 752T159 722T174 681T178 637V470Q178 453 179 426T188 374T209 330T250 313V263Z"  />
<glyph unicode="~" horiz-adv-x="600" d="M531 280Q519 263 507 248T480 220T447 201T406 194Q377 194 353 204T303 228Q278 241 251 251T189 262Q156 262 138 241T105 190L69 226Q77 242 88 257T115 285T148 304T189 312Q219 312 250 302T310 278Q339 265 364 255T406 244Q422 244 434 250T456 266T476 289T495 316L531 280Z"  />
<glyph unicode="&#xA0;" horiz-adv-x="278" />
<glyph unicode="&#xA1;" horiz-adv-x="278" d="M101 492H177V376H101V492ZM105 163L114 323H164L173 163V-220H105V163Z"  />
<glyph unicode="&#xA2;" horiz-adv-x="556" d="M260 -10Q220 -6 186 14T126 67T86 143T70 240Q72 343 121 410T260 490V600H310V492Q333 491 358 485T406 465T450 429T486 373L425 361Q409 396 379 415T310 436V44Q349 50 377 71T419 122L480 107Q456 53 413 23T310 -12V-120H260V-10ZM260 434Q234 429 211 414T169 375T141 317T130 240Q130 196 141 162T170 104T211 65T260 45V434Z"  />
<glyph unicode="&#xA3;" horiz-adv-x="556" d="M404 283H285Q297 262 304 239T312 193Q312 167 306 144T282 96Q292 91 306 84T338 69T373 56T409 50Q430 50 443 58T463 82T472 119T474 165V187L542 180Q542 140 536 105T513 44T472 3T407 -12Q365 -12 326 6T252 42Q244 31 231 22T201 5T165 -7T127 -12Q105 -12 85 -9T49 4T24 30T14 70Q14 88 22 102T44 125T75 138T110 143Q140 143 168 137T227 117Q237 134 240 154T244 195Q243 221 233 240T208 283H70V339H162Q142 359 121 380T83 426T55 479T44 542Q44 596 67 631T126 687T202 716T275 724Q318 724 358 712T430 675T481 613T500 524L432 513Q432 550 419 577T384 624T333 652T272 662Q238 662 209 655T159 632T125 593T112 536Q112 505 127 478T165 427T211 381T251 339H404V283ZM117 38Q142 38 164 45T198 70Q181 80 157 86T114 93Q99 93 87 88T74 63Q74 49 88 44T117 38Z"  />
<glyph unicode="&#xA4;" horiz-adv-x="556" d="M80 350Q80 309 95 273T138 210T201 168T278 152Q319 152 355 167T418 210T460 273T476 350Q476 391 461 427T418 490T355 532T278 548Q237 548 201 533T138 490T96 427T80 350ZM84 197Q58 229 44 267T30 350Q30 395 44 434T85 505L30 560L68 598L124 543Q156 569 195 583T278 598Q323 598 362 584T433 544L488 598L526 560L473 502Q499 470 512 432T526 350Q526 307 512 268T473 196L526 140L488 102L435 160Q403 132 363 117T278 102Q233 102 193 117T121 160L68 102L30 140L84 197Z"  />
<glyph unicode="&#xA5;" horiz-adv-x="556" d="M244 161H81V211H244V292L235 308H81V358H207L7 712H84L278 362L475 712H549L349 358H475V308H321L312 292V211H475V161H312V0H244V161Z"  />
<glyph unicode="&#xA6;" horiz-adv-x="222" d="M86 661H136V411H86V661ZM86 161H136V-89H86V161Z"  />
<glyph unicode="&#xA7;" horiz-adv-x="556" d="M338 193Q354 202 370 215T399 243T420 277T428 315Q428 345 409 363T367 393L230 456Q215 447 198 435T165 407T140 375T130 338Q130 318 139 304T163 278T194 258T227 243L338 193ZM413 602Q378 632 346 650T266 668Q250 668 234 664T205 652T184 631T175 600Q175 548 222 527L404 442Q446 422 471 393T496 316Q496 266 467 223T387 164Q425 146 448 118T471 46Q471 8 455 -20T412 -68T353 -98T285 -108Q249 -108 219 -102T161 -84T107 -55T52 -15L100 32Q137 -1 183 -23T280 -46Q301 -46 323 -41T362 -25T391 4T403 46Q403 72 380 93T299 141L171 199Q144 211 124 224T90 253T69 289T62 337Q62 363 71 386T96 429T133 462T179 485Q143 508 125 532T107 595Q107 627 120 652T156 694T207 721T266 730Q320 730 370 707T458 647L413 602Z"  />
<glyph unicode="&#xA8;" horiz-adv-x="185" d="M145 670H205V568H145V670ZM-20 670H40V568H-20V670Z"  />
<glyph unicode="&#xA9;" horiz-adv-x="800" d="M606 278Q598 242 581 212T538 160T481 126T413 114Q360 114 317 132T244 184T197 261T180 356Q180 408 195 452T241 528T313 579T410 597Q447 597 480 587T540 556T583 506T606 438H550Q540 483 504 515T411 547Q370 547 338 532T285 491T252 430T240 356Q240 319 252 285T286 223T341 180T413 164Q469 164 505 197T550 278H606ZM714 356Q714 423 690 482T624 585T525 654T400 680Q334 680 277 655T177 586T110 483T86 356Q86 288 110 229T176 126T275 57T400 32Q467 32 524 57T624 126T690 229T714 356ZM400 -18Q323 -18 255 11T136 92T56 211T26 356Q26 434 55 502T136 620T255 700T400 730Q478 730 546 701T664 620T744 501T774 356Q774 279 745 211T665 92T546 12T400 -18Z"  />
<glyph unicode="&#xAA;" horiz-adv-x="313" d="M302 422Q284 422 270 423T245 429T228 445T219 476H217Q199 447 173 435T110 422Q91 422 74 426T42 440T20 463T11 498Q11 522 21 538T47 564T83 581T123 593L216 616V636Q216 645 215 654T206 670T183 681T138 686Q66 686 63 625L19 632Q38 724 140 724Q184 724 208 714T243 690T257 660T260 634V493Q260 468 271 464T302 460V422ZM216 578L106 549Q85 544 70 533T55 499Q55 476 73 468T114 460Q132 460 150 466T182 482T206 506T216 535V578Z"  />
<glyph unicode="&#xAB;" horiz-adv-x="352" d="M283 450L331 418L228 263L331 108L283 76L161 263L283 450ZM143 450L191 418L88 263L191 108L143 76L21 263L143 450Z"  />
<glyph unicode="&#xAC;" horiz-adv-x="600" d="M503 325H47V375H553V108H503V325Z"  />
<glyph unicode="&#xAD;" horiz-adv-x="370" d="M45 232V294H325V232H45Z"  />
<glyph unicode="&#xAE;" horiz-adv-x="800" d="M714 356Q714 423 690 482T624 585T525 654T400 680Q334 680 277 655T177 586T110 483T86 356Q86 288 110 229T176 126T275 57T400 32Q467 32 524 57T624 126T690 229T714 356ZM400 -18Q323 -18 255 11T136 92T56 211T26 356Q26 434 55 502T136 620T255 700T400 730Q478 730 546 701T664 620T744 501T774 356Q774 279 745 211T665 92T546 12T400 -18ZM314 376H417Q439 376 458 379T490 391T511 416T519 459Q519 503 490 522T417 541H314V376ZM314 129H264V585H429Q459 585 484 578T528 555T558 515T569 459Q569 405 541 371T461 332L589 129H527L406 332H314V129Z"  />
<glyph unicode="&#xAF;" horiz-adv-x="185" d="M-36 597V641H221V597H-36Z"  />
<glyph unicode="&#xB0;" horiz-adv-x="400" d="M95 581Q95 559 103 540T125 507T159 484T200 476Q222 476 241 484T274 506T296 540T305 581Q305 603 297 622T274 655T241 677T200 686Q178 686 159 678T126 655T103 622T95 581ZM57 581Q57 611 68 637T98 682T144 713T200 724Q230 724 256 713T301 683T332 637T343 581Q343 551 332 525T302 480T256 449T200 438Q170 438 144 449T99 479T68 525T57 581Z"  />
<glyph unicode="&#xB1;" horiz-adv-x="600" d="M47 50H553V0H47V50ZM275 506H325V323H553V273H325V90H275V273H47V323H275V506Z"  />
<glyph unicode="&#xB2;" horiz-adv-x="361" d="M33 334Q50 345 75 361T128 396T185 437T236 483T273 534T288 589Q288 631 260 655T185 680Q140 680 111 659T81 594Q81 574 88 556T109 522L47 527Q39 544 35 562T31 598Q31 631 44 654T78 693T127 716T183 724Q204 724 231 719T281 699T321 655T338 582Q338 542 313 504T252 433T178 375T112 335V334H322V290H33V334Z"  />
<glyph unicode="&#xB3;" horiz-adv-x="361" d="M70 426Q70 393 81 374T110 344T147 330T184 327Q203 327 221 331T255 346T279 371T288 406Q288 436 277 453T249 478T210 488T166 490H144Q134 490 125 490Q117 490 106 489V535Q116 534 125 534Q134 534 144 534H164Q218 534 248 553T279 604Q279 647 251 663T183 680Q133 680 109 661T79 597L29 608Q46 670 85 697T188 724Q227 724 254 713T297 686T321 649T329 611Q329 572 305 545T232 516V514Q237 514 254 512T290 500T323 468T338 408Q338 377 326 354T293 315T244 291T185 283Q114 283 71 316T20 413L70 426Z"  />
<glyph unicode="&#xB4;" horiz-adv-x="185" d="M142 697H219L82 558H31L142 697Z"  />
<glyph unicode="&#xB5;" horiz-adv-x="544" d="M63 480H123V173Q123 137 133 112T161 72T199 51T240 44Q265 44 289 53T333 81T365 130T377 200V480H437V104Q437 80 442 62T475 44Q499 44 521 61V11Q504 3 490 -1T457 -6Q428 -6 412 3T389 25T380 52T377 76H375Q352 26 313 7T232 -12Q194 -12 167 3T123 40V-248H63V480Z"  />
<glyph unicode="&#xB6;" horiz-adv-x="600" d="M273 326Q232 326 195 340T129 380T83 441T66 519Q66 607 123 659T289 712H506V-90H456V668H323V-90H273V326Z"  />
<glyph unicode="&#xB7;" horiz-adv-x="278" d="M85 313Q85 336 100 351T139 367Q162 367 177 352T193 313Q193 290 178 275T139 259Q116 259 101 274T85 313Z"  />
<glyph unicode="&#xB8;" horiz-adv-x="185" d="M37 -159Q48 -165 65 -171T102 -177Q114 -177 125 -175T146 -166T162 -151T168 -128Q168 -115 163 -107T149 -95T132 -88T115 -86Q101 -86 90 -89T72 -96L57 -83L117 0H155L109 -58L111 -60Q119 -56 127 -55T149 -54Q158 -54 171 -57T195 -68T215 -90T224 -126Q224 -137 220 -151T202 -178T167 -200T111 -209Q84 -209 62 -203T22 -189L37 -159Z"  />
<glyph unicode="&#xB9;" horiz-adv-x="361" d="M90 652Q104 652 119 654T147 663T168 683T177 717H226V290H176V626Q156 615 135 612T90 608V652Z"  />
<glyph unicode="&#xBA;" horiz-adv-x="325" d="M66 572Q66 551 71 531T87 495T117 470T162 460Q189 460 207 469T237 495T254 531T259 572Q259 593 254 613T238 650T208 676T162 686Q135 686 117 676T88 650T71 614T66 572ZM22 574Q22 604 31 631T57 679T101 712T162 724Q197 724 223 712T267 679T294 631T303 574Q303 543 295 516T270 467T226 434T163 422Q127 422 101 434T57 467T31 515T22 574Z"  />
<glyph unicode="&#xBB;" horiz-adv-x="352" d="M124 263L21 418L69 450L191 263L69 76L21 108L124 263ZM264 263L161 418L209 450L331 263L209 76L161 108L264 263Z"  />
<glyph unicode="&#xBC;" horiz-adv-x="834" d="M90 652Q104 652 119 654T147 663T168 683T177 717H226V290H176V626Q156 615 135 612T90 608V652ZM140 -18L581 730H636L194 -18H140ZM638 146V359H636L487 146H638ZM432 140L634 427H688V146H750V102H688V0H638V102H432V140Z"  />
<glyph unicode="&#xBD;" horiz-adv-x="834" d="M446 44Q462 55 487 71T541 106T598 147T649 193T686 244T701 299Q701 341 673 365T598 390Q553 390 524 369T494 304Q494 284 501 266T522 232L460 237Q452 254 448 272T444 308Q444 341 457 364T491 403T540 426T596 434Q617 434 644 429T694 409T734 365T751 292Q751 252 726 214T665 143T591 85T525 45V44H735V0H446V44ZM90 652Q104 652 119 654T147 663T168 683T177 717H226V290H176V626Q156 615 135 612T90 608V652ZM110 -18L551 730H606L164 -18H110Z"  />
<glyph unicode="&#xBE;" horiz-adv-x="834" d="M66 426Q66 394 77 375T106 345T144 331T181 327Q202 327 220 332T253 347T276 371T285 406Q285 436 273 453T241 479Q224 488 205 489T163 491H141Q131 491 122 491Q114 491 103 490V536Q113 535 122 535Q131 535 141 535H161Q215 535 245 554T276 604Q276 644 250 662T180 680Q86 680 75 597L25 608Q42 670 81 697T185 724Q224 724 251 713T294 686T318 649T326 611Q326 572 302 545T229 516V514Q234 514 251 512T287 500T320 468T335 408Q335 377 323 354T289 315T240 291T181 283Q111 283 67 316T16 413L66 426ZM200 -18L641 730H696L254 -18H200ZM681 146V359H679L530 146H681ZM475 140L677 427H731V146H793V102H731V0H681V102H475V140Z"  />
<glyph unicode="&#xBF;" horiz-adv-x="481" d="M296 492V376H220V492H296ZM288 318V258Q288 226 275 202T242 157T199 117T156 75T123 24T110 -42Q110 -72 120 -96T148 -138T190 -166T243 -176Q272 -176 297 -166T340 -139T368 -99T379 -49Q379 -32 377 -19T372 6T363 30T352 58L427 36Q435 13 437 -10T439 -57Q439 -86 429 -117T397 -176T336 -220T243 -238Q199 -238 162 -224T99 -185T57 -123T42 -42Q42 5 56 38T90 98T135 144T179 185T214 229T228 284V318H288Z"  />
<glyph unicode="&#xC0;" horiz-adv-x="611" d="M441 270L309 621L173 270H441ZM340 712L616 0H543L463 214H150L65 0H-5L285 712H340ZM179 894H256L367 755H316L179 894Z"  />
<glyph unicode="&#xC1;" horiz-adv-x="611" d="M441 270L309 621L173 270H441ZM340 712L616 0H543L463 214H150L65 0H-5L285 712H340ZM355 894H432L295 755H244L355 894Z"  />
<glyph unicode="&#xC2;" horiz-adv-x="611" d="M441 270L309 621L173 270H441ZM340 712L616 0H543L463 214H150L65 0H-5L285 712H340ZM222 755H159L271 894H338L452 755H387L305 857L222 755Z"  />
<glyph unicode="&#xC3;" horiz-adv-x="611" d="M441 270L309 621L173 270H441ZM340 712L616 0H543L463 214H150L65 0H-5L285 712H340ZM149 766Q153 797 164 816T190 846T216 860T234 864Q254 864 273 857T311 842Q329 834 346 828T380 821Q402 821 410 834T424 868H462Q460 851 455 834T439 802T414 780T380 771Q360 771 341 778T304 794Q285 802 268 808T234 814Q212 814 202 799T186 766H149Z"  />
<glyph unicode="&#xC4;" horiz-adv-x="611" d="M441 270L309 621L173 270H441ZM340 712L616 0H543L463 214H150L65 0H-5L285 712H340ZM358 867H418V765H358V867ZM193 867H253V765H193V867Z"  />
<glyph unicode="&#xC5;" horiz-adv-x="611" d="M441 270L309 621L173 270H441ZM340 712L616 0H543L463 214H150L65 0H-5L285 712H340ZM213 831Q213 873 241 902T312 931Q354 931 383 902T412 831Q412 811 404 793T383 762T351 740T312 732Q291 732 273 740T242 761T221 793T213 831ZM245 831Q245 803 264 784T312 764Q340 764 360 783T380 831Q380 860 360 879T312 899Q284 899 265 880T245 831Z"  />
<glyph unicode="&#xC6;" horiz-adv-x="1000" d="M442 712H941V650H530V398H900V336H530V62H959V0H462V206H192L64 0H-15L442 712ZM234 268H462V632H460L234 268Z"  />
<glyph unicode="&#xC7;" horiz-adv-x="648" d="M336 -17Q275 -16 222 6T129 73T67 188T44 356Q44 457 69 528T135 644T231 709T343 730Q396 730 439 720T516 688T578 631T626 546L558 512Q547 549 531 578T491 627T433 657T350 668Q290 668 246 646T172 582T127 484T112 356Q112 271 130 212T182 115T261 61T361 44Q445 44 491 84T561 195L626 160Q591 70 527 29T373 -17L341 -58L343 -60Q351 -56 359 -55T381 -54Q390 -54 403 -57T427 -68T447 -90T456 -126Q456 -137 452 -151T434 -178T399 -200T343 -209Q316 -209 294 -203T254 -189L269 -159Q280 -165 297 -171T334 -177Q346 -177 357 -175T378 -166T394 -151T400 -128Q400 -115 395 -107T381 -95T364 -88T347 -86Q333 -86 322 -89T304 -96L289 -83L336 -17Z"  />
<glyph unicode="&#xC8;" horiz-adv-x="593" d="M65 712H531V650H133V398H492V336H133V62H552V0H65V712ZM170 894H247L358 755H307L170 894Z"  />
<glyph unicode="&#xC9;" horiz-adv-x="593" d="M65 712H531V650H133V398H492V336H133V62H552V0H65V712ZM346 894H423L286 755H235L346 894Z"  />
<glyph unicode="&#xCA;" horiz-adv-x="593" d="M65 712H531V650H133V398H492V336H133V62H552V0H65V712ZM213 755H150L262 894H329L443 755H378L296 857L213 755Z"  />
<glyph unicode="&#xCB;" horiz-adv-x="593" d="M65 712H531V650H133V398H492V336H133V62H552V0H65V712ZM349 867H409V765H349V867ZM184 867H244V765H184V867Z"  />
<glyph unicode="&#xCC;" horiz-adv-x="222" d="M77 712H145V0H77V712ZM-15 894H62L173 755H122L-15 894Z"  />
<glyph unicode="&#xCD;" horiz-adv-x="222" d="M77 712H145V0H77V712ZM161 894H238L101 755H50L161 894Z"  />
<glyph unicode="&#xCE;" horiz-adv-x="222" d="M77 712H145V0H77V712ZM28 755H-35L77 894H144L258 755H193L111 857L28 755Z"  />
<glyph unicode="&#xCF;" horiz-adv-x="222" d="M77 712H145V0H77V712ZM164 867H224V765H164V867ZM-1 867H59V765H-1V867Z"  />
<glyph unicode="&#xD0;" horiz-adv-x="685" d="M80 712H372Q421 712 460 697T529 655T580 593T614 518T634 437T641 356Q641 302 627 240T577 124T485 36T341 0H80V368H25V412H80V712ZM148 412H350V368H148V62H365Q421 62 460 89T525 159T561 254T573 356Q573 405 562 457T525 552T461 622T365 650H148V412Z"  />
<glyph unicode="&#xD1;" horiz-adv-x="704" d="M80 712H147L554 114H556V712H624V0H557L150 598H148V0H80V712ZM196 766Q200 797 211 816T237 846T263 860T281 864Q301 864 320 857T358 842Q376 834 393 828T427 821Q449 821 457 834T471 868H509Q507 851 502 834T486 802T461 780T427 771Q407 771 388 778T351 794Q332 802 315 808T281 814Q259 814 249 799T233 766H196Z"  />
<glyph unicode="&#xD2;" horiz-adv-x="704" d="M112 356Q112 300 125 245T168 145T243 72T352 44Q415 44 460 72T535 144T578 244T592 356Q592 411 579 467T536 567T461 640T352 668Q289 668 244 640T169 568T126 467T112 356ZM44 356Q44 427 62 494T119 613T215 698T352 730Q431 730 489 698T585 614T641 494T660 356Q660 285 642 218T585 99T489 14T352 -18Q273 -18 215 14T119 98T63 218T44 356ZM226 894H303L414 755H363L226 894Z"  />
<glyph unicode="&#xD3;" horiz-adv-x="704" d="M112 356Q112 300 125 245T168 145T243 72T352 44Q415 44 460 72T535 144T578 244T592 356Q592 411 579 467T536 567T461 640T352 668Q289 668 244 640T169 568T126 467T112 356ZM44 356Q44 427 62 494T119 613T215 698T352 730Q431 730 489 698T585 614T641 494T660 356Q660 285 642 218T585 99T489 14T352 -18Q273 -18 215 14T119 98T63 218T44 356ZM402 894H479L342 755H291L402 894Z"  />
<glyph unicode="&#xD4;" horiz-adv-x="704" d="M112 356Q112 300 125 245T168 145T243 72T352 44Q415 44 460 72T535 144T578 244T592 356Q592 411 579 467T536 567T461 640T352 668Q289 668 244 640T169 568T126 467T112 356ZM44 356Q44 427 62 494T119 613T215 698T352 730Q431 730 489 698T585 614T641 494T660 356Q660 285 642 218T585 99T489 14T352 -18Q273 -18 215 14T119 98T63 218T44 356ZM269 755H206L318 894H385L499 755H434L352 857L269 755Z"  />
<glyph unicode="&#xD5;" horiz-adv-x="704" d="M112 356Q112 300 125 245T168 145T243 72T352 44Q415 44 460 72T535 144T578 244T592 356Q592 411 579 467T536 567T461 640T352 668Q289 668 244 640T169 568T126 467T112 356ZM44 356Q44 427 62 494T119 613T215 698T352 730Q431 730 489 698T585 614T641 494T660 356Q660 285 642 218T585 99T489 14T352 -18Q273 -18 215 14T119 98T63 218T44 356ZM196 766Q200 797 211 816T237 846T263 860T281 864Q301 864 320 857T358 842Q376 834 393 828T427 821Q449 821 457 834T471 868H509Q507 851 502 834T486 802T461 780T427 771Q407 771 388 778T351 794Q332 802 315 808T281 814Q259 814 249 799T233 766H196Z"  />
<glyph unicode="&#xD6;" horiz-adv-x="704" d="M112 356Q112 300 125 245T168 145T243 72T352 44Q415 44 460 72T535 144T578 244T592 356Q592 411 579 467T536 567T461 640T352 668Q289 668 244 640T169 568T126 467T112 356ZM44 356Q44 427 62 494T119 613T215 698T352 730Q431 730 489 698T585 614T641 494T660 356Q660 285 642 218T585 99T489 14T352 -18Q273 -18 215 14T119 98T63 218T44 356ZM405 867H465V765H405V867ZM240 867H300V765H240V867Z"  />
<glyph unicode="&#xD7;" horiz-adv-x="600" d="M300 290L490 479L526 443L335 253L526 63L490 27L300 218L110 27L74 63L265 253L74 443L110 479L300 290Z"  />
<glyph unicode="&#xD8;" horiz-adv-x="704" d="M114 108Q78 159 61 223T44 356Q44 427 62 494T119 613T215 698T352 730Q420 730 471 707T559 644L620 718L660 685L592 603Q627 552 643 488T660 356Q660 285 642 218T585 99T489 14T352 -18Q286 -18 235 4T147 66L87 -6L46 26L114 108ZM190 117Q218 84 258 64T352 44Q415 44 460 72T535 144T578 244T592 356Q592 406 581 456T546 548L190 117ZM516 593Q487 627 447 647T352 668Q289 668 244 640T169 568T126 467T112 356Q112 305 123 255T159 162L516 593Z"  />
<glyph unicode="&#xD9;" horiz-adv-x="666" d="M595 231Q595 170 577 124T524 46T441 -2T333 -18Q274 -18 226 -2T143 45T90 123T71 231V712H139V233Q139 181 154 145T196 87T257 54T333 44Q373 44 408 54T470 86T511 145T527 233V712H595V231ZM207 894H284L395 755H344L207 894Z"  />
<glyph unicode="&#xDA;" horiz-adv-x="666" d="M595 231Q595 170 577 124T524 46T441 -2T333 -18Q274 -18 226 -2T143 45T90 123T71 231V712H139V233Q139 181 154 145T196 87T257 54T333 44Q373 44 408 54T470 86T511 145T527 233V712H595V231ZM383 894H460L323 755H272L383 894Z"  />
<glyph unicode="&#xDB;" horiz-adv-x="666" d="M595 231Q595 170 577 124T524 46T441 -2T333 -18Q274 -18 226 -2T143 45T90 123T71 231V712H139V233Q139 181 154 145T196 87T257 54T333 44Q373 44 408 54T470 86T511 145T527 233V712H595V231ZM250 755H187L299 894H366L480 755H415L333 857L250 755Z"  />
<glyph unicode="&#xDC;" horiz-adv-x="666" d="M595 231Q595 170 577 124T524 46T441 -2T333 -18Q274 -18 226 -2T143 45T90 123T71 231V712H139V233Q139 181 154 145T196 87T257 54T333 44Q373 44 408 54T470 86T511 145T527 233V712H595V231ZM386 867H446V765H386V867ZM221 867H281V765H221V867Z"  />
<glyph unicode="&#xDD;" horiz-adv-x="610" d="M271 297L3 712H85L307 360L529 712H607L339 297V0H271V297ZM355 894H432L295 755H244L355 894Z"  />
<glyph unicode="&#xDE;" horiz-adv-x="630" d="M148 272H422Q441 272 463 279T504 303T535 344T548 405Q548 421 545 443T530 487T495 522T432 537H148V272ZM80 712H148V599H444Q487 599 519 583T573 539T605 477T616 405Q616 355 599 318T554 257T494 222T428 210H148V0H80V712Z"  />
<glyph unicode="&#xDF;" horiz-adv-x="464" d="M52 526Q52 621 95 675T230 730Q273 730 304 718T356 683T387 630T397 564Q397 504 372 468T286 411V409Q331 400 360 379T407 327T432 260T440 183Q440 144 431 108T401 43T350 -1T276 -18Q251 -18 221 -9T171 12V81Q197 64 222 51T280 38Q310 38 329 53T359 90T375 140T380 190Q380 287 326 330T182 374H157V430H177Q206 430 234 435T286 455T323 494T337 556Q337 608 311 641T228 674Q177 674 145 640T112 532V0H52V526Z"  />
<glyph unicode="&#xE0;" horiz-adv-x="481" d="M481 -6Q453 -6 431 -5T393 4T368 29T356 78H354Q326 29 284 9T186 -12Q157 -12 130 -5T81 18T46 58T33 115Q33 153 48 179T87 222T143 249T205 268L352 306V354Q352 401 321 421T232 442Q172 442 144 413T113 326L45 338Q75 492 234 492Q301 492 337 475T389 435T409 386T412 342V107Q412 84 417 71T431 52T453 45T481 44V-6ZM93 116Q93 96 102 83T125 61T156 48T191 44Q213 44 240 52T293 78T335 125T352 199V254L179 206Q143 196 118 177T93 116ZM114 697H191L302 558H251L114 697Z"  />
<glyph unicode="&#xE1;" horiz-adv-x="481" d="M481 -6Q453 -6 431 -5T393 4T368 29T356 78H354Q326 29 284 9T186 -12Q157 -12 130 -5T81 18T46 58T33 115Q33 153 48 179T87 222T143 249T205 268L352 306V354Q352 401 321 421T232 442Q172 442 144 413T113 326L45 338Q75 492 234 492Q301 492 337 475T389 435T409 386T412 342V107Q412 84 417 71T431 52T453 45T481 44V-6ZM93 116Q93 96 102 83T125 61T156 48T191 44Q213 44 240 52T293 78T335 125T352 199V254L179 206Q143 196 118 177T93 116ZM290 697H367L230 558H179L290 697Z"  />
<glyph unicode="&#xE2;" horiz-adv-x="481" d="M481 -6Q453 -6 431 -5T393 4T368 29T356 78H354Q326 29 284 9T186 -12Q157 -12 130 -5T81 18T46 58T33 115Q33 153 48 179T87 222T143 249T205 268L352 306V354Q352 401 321 421T232 442Q172 442 144 413T113 326L45 338Q75 492 234 492Q301 492 337 475T389 435T409 386T412 342V107Q412 84 417 71T431 52T453 45T481 44V-6ZM93 116Q93 96 102 83T125 61T156 48T191 44Q213 44 240 52T293 78T335 125T352 199V254L179 206Q143 196 118 177T93 116ZM157 558H94L206 697H273L387 558H322L240 660L157 558Z"  />
<glyph unicode="&#xE3;" horiz-adv-x="481" d="M481 -6Q453 -6 431 -5T393 4T368 29T356 78H354Q326 29 284 9T186 -12Q157 -12 130 -5T81 18T46 58T33 115Q33 153 48 179T87 222T143 249T205 268L352 306V354Q352 401 321 421T232 442Q172 442 144 413T113 326L45 338Q75 492 234 492Q301 492 337 475T389 435T409 386T412 342V107Q412 84 417 71T431 52T453 45T481 44V-6ZM93 116Q93 96 102 83T125 61T156 48T191 44Q213 44 240 52T293 78T335 125T352 199V254L179 206Q143 196 118 177T93 116ZM84 569Q88 600 99 619T125 649T151 663T169 667Q189 667 208 660T246 645Q264 637 281 631T315 624Q337 624 345 637T359 671H397Q395 654 390 637T374 605T349 583T315 574Q295 574 276 581T239 597Q220 605 203 611T169 617Q147 617 137 602T121 569H84Z"  />
<glyph unicode="&#xE4;" horiz-adv-x="481" d="M481 -6Q453 -6 431 -5T393 4T368 29T356 78H354Q326 29 284 9T186 -12Q157 -12 130 -5T81 18T46 58T33 115Q33 153 48 179T87 222T143 249T205 268L352 306V354Q352 401 321 421T232 442Q172 442 144 413T113 326L45 338Q75 492 234 492Q301 492 337 475T389 435T409 386T412 342V107Q412 84 417 71T431 52T453 45T481 44V-6ZM93 116Q93 96 102 83T125 61T156 48T191 44Q213 44 240 52T293 78T335 125T352 199V254L179 206Q143 196 118 177T93 116ZM293 670H353V568H293V670ZM128 670H188V568H128V670Z"  />
<glyph unicode="&#xE5;" horiz-adv-x="481" d="M481 -6Q453 -6 431 -5T393 4T368 29T356 78H354Q326 29 284 9T186 -12Q157 -12 130 -5T81 18T46 58T33 115Q33 153 48 179T87 222T143 249T205 268L352 306V354Q352 401 321 421T232 442Q172 442 144 413T113 326L45 338Q75 492 234 492Q301 492 337 475T389 435T409 386T412 342V107Q412 84 417 71T431 52T453 45T481 44V-6ZM93 116Q93 96 102 83T125 61T156 48T191 44Q213 44 240 52T293 78T335 125T352 199V254L179 206Q143 196 118 177T93 116ZM141 644Q141 686 169 715T240 744Q282 744 311 715T340 644Q340 624 332 606T311 575T279 553T240 545Q219 545 201 553T170 574T149 606T141 644ZM173 644Q173 616 192 597T240 577Q268 577 288 596T308 644Q308 673 288 692T240 712Q212 712 193 693T173 644Z"  />
<glyph unicode="&#xE6;" horiz-adv-x="815" d="M421 242V229Q421 189 430 155T458 97T506 58T575 44Q640 44 676 71T734 146L790 131Q763 64 709 26T578 -12Q515 -12 463 15T387 97Q352 38 301 13T186 -12Q157 -12 130 -5T81 18T46 58T33 115Q33 153 48 178T87 221T143 248T205 268L361 306V354Q361 404 328 423T236 442Q173 442 144 413T113 326L45 338Q75 492 234 492Q292 492 336 477T409 415Q438 453 481 472T573 492Q626 492 666 473T733 421T774 341T790 242H421ZM722 292Q717 318 709 344T684 390T640 423T573 436Q540 436 514 425T468 394T437 348T421 292H722ZM93 116Q93 96 102 83T124 61T152 48T182 44Q215 44 247 53T304 82T345 131T361 200V254L179 206Q143 196 118 177T93 116Z"  />
<glyph unicode="&#xE7;" horiz-adv-x="463" d="M242 -11Q198 -10 161 9T95 60T51 138T33 240Q34 297 50 343T97 423T170 474T264 492Q286 492 312 487T363 469T410 432T449 373L388 361Q370 401 335 418T256 436Q225 436 196 424T144 388T107 326T93 240Q93 190 107 154T143 93T193 56T250 44Q298 44 332 66T382 122L443 107Q420 54 378 25T280 -10L242 -58L244 -60Q252 -56 260 -55T282 -54Q291 -54 304 -57T328 -68T348 -90T357 -126Q357 -137 353 -151T335 -178T300 -200T244 -209Q217 -209 195 -203T155 -189L170 -159Q181 -165 198 -171T235 -177Q247 -177 258 -175T279 -166T295 -151T301 -128Q301 -115 296 -107T282 -95T265 -88T248 -86Q234 -86 223 -89T205 -96L190 -83L242 -11Z"  />
<glyph unicode="&#xE8;" horiz-adv-x="500" d="M101 242V229Q101 189 110 155T138 97T186 58T255 44Q318 44 353 71T411 146L467 131Q440 64 385 26T250 -12Q205 -12 166 4T97 52T50 131T33 240Q33 301 50 348T96 427T165 475T250 492Q303 492 343 473T410 421T451 341T467 242H101ZM399 292Q394 318 384 344T357 390T314 423T250 436Q218 436 192 425T147 394T117 348T101 292H399ZM124 697H201L312 558H261L124 697Z"  />
<glyph unicode="&#xE9;" horiz-adv-x="500" d="M101 242V229Q101 189 110 155T138 97T186 58T255 44Q318 44 353 71T411 146L467 131Q440 64 385 26T250 -12Q205 -12 166 4T97 52T50 131T33 240Q33 301 50 348T96 427T165 475T250 492Q303 492 343 473T410 421T451 341T467 242H101ZM399 292Q394 318 384 344T357 390T314 423T250 436Q218 436 192 425T147 394T117 348T101 292H399ZM300 697H377L240 558H189L300 697Z"  />
<glyph unicode="&#xEA;" horiz-adv-x="500" d="M101 242V229Q101 189 110 155T138 97T186 58T255 44Q318 44 353 71T411 146L467 131Q440 64 385 26T250 -12Q205 -12 166 4T97 52T50 131T33 240Q33 301 50 348T96 427T165 475T250 492Q303 492 343 473T410 421T451 341T467 242H101ZM399 292Q394 318 384 344T357 390T314 423T250 436Q218 436 192 425T147 394T117 348T101 292H399ZM167 558H104L216 697H283L397 558H332L250 660L167 558Z"  />
<glyph unicode="&#xEB;" horiz-adv-x="500" d="M101 242V229Q101 189 110 155T138 97T186 58T255 44Q318 44 353 71T411 146L467 131Q440 64 385 26T250 -12Q205 -12 166 4T97 52T50 131T33 240Q33 301 50 348T96 427T165 475T250 492Q303 492 343 473T410 421T451 341T467 242H101ZM399 292Q394 318 384 344T357 390T314 423T250 436Q218 436 192 425T147 394T117 348T101 292H399ZM303 670H363V568H303V670ZM138 670H198V568H138V670Z"  />
<glyph unicode="&#xEC;" horiz-adv-x="186" d="M63 480H123V0H63V480ZM-33 697H44L155 558H104L-33 697Z"  />
<glyph unicode="&#xED;" horiz-adv-x="186" d="M63 480H123V0H63V480ZM143 697H220L83 558H32L143 697Z"  />
<glyph unicode="&#xEE;" horiz-adv-x="186" d="M63 480H123V0H63V480ZM10 558H-53L59 697H126L240 558H175L93 660L10 558Z"  />
<glyph unicode="&#xEF;" horiz-adv-x="186" d="M63 480H123V0H63V480ZM146 670H206V568H146V670ZM-19 670H41V568H-19V670Z"  />
<glyph unicode="&#xF0;" horiz-adv-x="500" d="M407 240Q407 292 395 329T362 390T313 425T250 436Q217 436 188 425T138 390T105 329T93 240Q93 188 105 151T138 90T188 55T250 44Q284 44 312 55T362 90T395 151T407 240ZM92 595L173 649Q159 661 144 671T113 693L150 730Q169 719 186 707T221 682L302 736L331 710L252 656Q298 618 337 576T405 486T450 381T467 259Q467 125 410 57T250 -12Q205 -12 166 4T97 52T50 131T33 240Q33 301 50 348T96 427T165 475T250 492Q292 492 317 478T367 443H369Q339 494 297 539T206 625L121 567L92 595Z"  />
<glyph unicode="&#xF1;" horiz-adv-x="500" d="M63 480H123V410H125Q148 455 187 473T268 492Q312 492 344 480T396 446T427 393T437 325V0H377V307Q377 380 347 408T260 436Q233 436 208 427T165 399T135 350T123 280V0H63V480ZM94 569Q98 600 109 619T135 649T161 663T179 667Q199 667 218 660T256 645Q274 637 291 631T325 624Q347 624 355 637T369 671H407Q405 654 400 637T384 605T359 583T325 574Q305 574 286 581T249 597Q230 605 213 611T179 617Q157 617 147 602T131 569H94Z"  />
<glyph unicode="&#xF2;" horiz-adv-x="500" d="M250 436Q217 436 188 423T138 384T105 323T93 240Q93 193 105 157T138 96T188 57T250 44Q283 44 312 57T362 95T395 157T407 240Q407 286 395 322T362 384T312 422T250 436ZM33 240Q33 301 50 348T96 427T165 475T250 492Q295 492 334 476T403 428T450 349T467 240Q467 178 450 131T404 53T335 5T250 -12Q205 -12 166 4T97 52T50 131T33 240ZM124 697H201L312 558H261L124 697Z"  />
<glyph unicode="&#xF3;" horiz-adv-x="500" d="M250 436Q217 436 188 423T138 384T105 323T93 240Q93 193 105 157T138 96T188 57T250 44Q283 44 312 57T362 95T395 157T407 240Q407 286 395 322T362 384T312 422T250 436ZM33 240Q33 301 50 348T96 427T165 475T250 492Q295 492 334 476T403 428T450 349T467 240Q467 178 450 131T404 53T335 5T250 -12Q205 -12 166 4T97 52T50 131T33 240ZM300 697H377L240 558H189L300 697Z"  />
<glyph unicode="&#xF4;" horiz-adv-x="500" d="M250 436Q217 436 188 423T138 384T105 323T93 240Q93 193 105 157T138 96T188 57T250 44Q283 44 312 57T362 95T395 157T407 240Q407 286 395 322T362 384T312 422T250 436ZM33 240Q33 301 50 348T96 427T165 475T250 492Q295 492 334 476T403 428T450 349T467 240Q467 178 450 131T404 53T335 5T250 -12Q205 -12 166 4T97 52T50 131T33 240ZM167 558H104L216 697H283L397 558H332L250 660L167 558Z"  />
<glyph unicode="&#xF5;" horiz-adv-x="500" d="M250 436Q217 436 188 423T138 384T105 323T93 240Q93 193 105 157T138 96T188 57T250 44Q283 44 312 57T362 95T395 157T407 240Q407 286 395 322T362 384T312 422T250 436ZM33 240Q33 301 50 348T96 427T165 475T250 492Q295 492 334 476T403 428T450 349T467 240Q467 178 450 131T404 53T335 5T250 -12Q205 -12 166 4T97 52T50 131T33 240ZM94 569Q98 600 109 619T135 649T161 663T179 667Q199 667 218 660T256 645Q274 637 291 631T325 624Q347 624 355 637T369 671H407Q405 654 400 637T384 605T359 583T325 574Q305 574 286 581T249 597Q230 605 213 611T179 617Q157 617 147 602T131 569H94Z"  />
<glyph unicode="&#xF6;" horiz-adv-x="500" d="M250 436Q217 436 188 423T138 384T105 323T93 240Q93 193 105 157T138 96T188 57T250 44Q283 44 312 57T362 95T395 157T407 240Q407 286 395 322T362 384T312 422T250 436ZM33 240Q33 301 50 348T96 427T165 475T250 492Q295 492 334 476T403 428T450 349T467 240Q467 178 450 131T404 53T335 5T250 -12Q205 -12 166 4T97 52T50 131T33 240ZM303 670H363V568H303V670ZM138 670H198V568H138V670Z"  />
<glyph unicode="&#xF7;" horiz-adv-x="600" d="M244 46Q244 69 260 85T300 102Q323 102 339 86T356 46Q356 25 340 8T301 -10Q278 -10 261 6T244 46ZM244 460Q244 483 260 499T300 516Q323 516 339 500T356 460Q356 439 340 422T301 404Q278 404 261 420T244 460ZM47 228V278H553V228H47Z"  />
<glyph unicode="&#xF8;" horiz-adv-x="500" d="M113 39Q76 69 55 120T33 240Q33 301 50 348T96 427T165 475T250 492Q280 492 307 485T358 465L383 509L415 489L388 443Q424 411 445 360T467 240Q467 178 450 131T404 53T335 5T250 -12Q190 -12 143 17L118 -27L85 -9L113 39ZM172 67Q189 55 209 50T250 44Q283 44 312 57T362 95T395 157T407 240Q407 289 394 327T357 389L172 67ZM328 413Q294 436 250 436Q217 436 188 423T138 384T105 323T93 240Q93 191 106 154T143 91L328 413Z"  />
<glyph unicode="&#xF9;" horiz-adv-x="500" d="M377 70H375Q352 25 313 7T232 -12Q143 -12 103 34T63 155V480H123V173Q123 100 153 72T240 44Q267 44 292 53T335 81T365 130T377 200V480H437V0H377V70ZM124 697H201L312 558H261L124 697Z"  />
<glyph unicode="&#xFA;" horiz-adv-x="500" d="M377 70H375Q352 25 313 7T232 -12Q143 -12 103 34T63 155V480H123V173Q123 100 153 72T240 44Q267 44 292 53T335 81T365 130T377 200V480H437V0H377V70ZM300 697H377L240 558H189L300 697Z"  />
<glyph unicode="&#xFB;" horiz-adv-x="500" d="M377 70H375Q352 25 313 7T232 -12Q143 -12 103 34T63 155V480H123V173Q123 100 153 72T240 44Q267 44 292 53T335 81T365 130T377 200V480H437V0H377V70ZM167 558H104L216 697H283L397 558H332L250 660L167 558Z"  />
<glyph unicode="&#xFC;" horiz-adv-x="500" d="M377 70H375Q352 25 313 7T232 -12Q143 -12 103 34T63 155V480H123V173Q123 100 153 72T240 44Q267 44 292 53T335 81T365 130T377 200V480H437V0H377V70ZM303 670H363V568H303V670ZM138 670H198V568H138V670Z"  />
<glyph unicode="&#xFD;" horiz-adv-x="426" d="M10 480H66L205 76H207L365 480H422L185 -129Q177 -150 168 -171T146 -209T115 -237T68 -248Q51 -248 35 -243T4 -230V-168Q18 -176 33 -184T66 -192Q79 -192 89 -185T106 -168T118 -147T126 -127L175 -1L10 480ZM263 697H340L203 558H152L263 697Z"  />
<glyph unicode="&#xFE;" horiz-adv-x="500" d="M407 240Q407 331 367 383T258 436Q215 436 188 419T146 373T126 310T120 240Q120 205 125 170T146 107T188 62T258 44Q326 44 366 96T407 240ZM63 712H123V402H125Q139 441 177 466T266 492Q307 492 343 476T407 426T451 345T467 234Q467 167 447 121T397 45T331 2T263 -12Q218 -12 180 8T125 74H123V-248H63V712Z"  />
<glyph unicode="&#xFF;" horiz-adv-x="426" d="M10 480H66L205 76H207L365 480H422L185 -129Q177 -150 168 -171T146 -209T115 -237T68 -248Q51 -248 35 -243T4 -230V-168Q18 -176 33 -184T66 -192Q79 -192 89 -185T106 -168T118 -147T126 -127L175 -1L10 480ZM266 670H326V568H266V670ZM101 670H161V568H101V670Z"  />
<glyph unicode="&#x131;" horiz-adv-x="186" d="M63 480H123V0H63V480Z"  />
<glyph unicode="&#x152;" horiz-adv-x="1056" d="M591 62H1031V0H538Q524 -3 509 -6T477 -12Q460 -14 442 -16T403 -18Q316 -18 250 9T137 85T68 203T44 356Q44 440 67 509T134 627T243 703T392 730Q437 730 476 724T545 712H1008V650H591V398H967V336H591V62ZM523 652Q495 658 465 663T409 668Q335 668 279 646T186 582T131 484T112 356Q112 286 130 229T186 130T279 67T409 44Q438 44 469 48T523 60V652Z"  />
<glyph unicode="&#x153;" horiz-adv-x="889" d="M254 436Q221 436 192 424T141 386T106 325T93 240Q93 192 106 156T140 94T191 57T254 44Q287 44 316 56T367 94T402 155T415 240Q415 288 402 324T368 386T317 423T254 436ZM475 242V229Q475 189 484 155T512 97T560 58T629 44Q697 44 733 71T792 146L848 131Q821 64 767 26T636 -12Q555 -12 509 18T438 100Q425 69 405 48T359 14T305 -6T250 -12Q205 -12 166 4T97 52T50 131T33 240Q33 301 50 348T96 427T165 475T250 492Q311 492 358 468T438 380Q468 433 519 462T631 492Q684 492 724 473T791 421T832 341T848 242H475ZM780 292Q775 318 766 344T740 390T695 423T622 436Q591 436 566 425T521 394T491 348T475 292H780Z"  />
<glyph unicode="&#x160;" horiz-adv-x="611" d="M108 214Q110 169 125 137T166 84T228 54T308 44Q350 44 385 54T447 84T488 129T503 189Q503 230 485 255T437 298T369 325T291 346T213 370T145 406T97 462T78 549Q78 598 99 632T154 688T227 720T305 730Q396 730 462 695T559 571L496 537Q474 607 423 637T305 668Q278 668 250 661T198 638T161 601T146 549Q146 509 164 485T212 444T280 418T358 398T436 375T504 341T552 285T571 200Q571 94 502 38T308 -18Q254 -18 210 -8T131 26T73 87T40 179L108 214ZM387 894H452L338 755H271L159 894H223L305 792L387 894Z"  />
<glyph unicode="&#x161;" horiz-adv-x="444" d="M83 133Q103 81 134 60T222 38Q240 38 261 42T299 57T327 87T339 136Q339 172 318 189T266 215T197 230T129 249T76 287T55 360Q55 386 65 410T97 452T148 481T219 492Q290 492 336 468T400 383L343 369Q327 414 299 428T228 442Q194 442 172 436T138 418T120 392T115 358Q115 327 136 312T188 288T257 272T325 251T378 209T399 134Q399 104 387 78T351 31T293 0T213 -12Q186 -12 160 -7T109 11T64 50T25 115L83 133ZM304 697H369L255 558H188L76 697H140L222 595L304 697Z"  />
<glyph unicode="&#x178;" horiz-adv-x="610" d="M271 297L3 712H85L307 360L529 712H607L339 297V0H271V297ZM358 867H418V765H358V867ZM193 867H253V765H193V867Z"  />
<glyph unicode="&#x17D;" horiz-adv-x="574" d="M47 712H550V668L119 62H546V0H24V44L455 650H47V712ZM369 894H434L320 755H253L141 894H205L287 792L369 894Z"  />
<glyph unicode="&#x17E;" horiz-adv-x="370" d="M272 430H32V480H356V447L89 50H360V0H10V41L272 430ZM267 697H332L218 558H151L39 697H103L185 595L267 697Z"  />
<glyph unicode="&#x192;" horiz-adv-x="556" d="M412 283H295L252 -93Q250 -110 247 -136T231 -188T196 -230T132 -248Q101 -248 72 -240L67 -238L74 -182Q87 -186 100 -189T125 -192Q157 -192 173 -172T192 -122L238 283H125L131 333H243L272 569Q276 598 282 626T301 675T336 710T393 724Q411 724 427 720T461 712L455 659L441 663Q421 668 403 668Q382 668 369 661T349 641T338 613T332 579L302 333H416L412 283Z"  />
<glyph unicode="&#x2C6;" horiz-adv-x="185" d="M9 558H-54L58 697H125L239 558H174L92 660L9 558Z"  />
<glyph unicode="&#x2C7;" horiz-adv-x="185" d="M174 697H239L125 558H58L-54 697H10L92 595L174 697Z"  />
<glyph unicode="&#x2DA;" horiz-adv-x="185" d="M-7 644Q-7 686 21 715T92 744Q134 744 163 715T192 644Q192 624 184 606T163 575T131 553T92 545Q71 545 53 553T22 574T1 606T-7 644ZM25 644Q25 616 44 597T92 577Q120 577 140 596T160 644Q160 673 140 692T92 712Q64 712 45 693T25 644Z"  />
<glyph unicode="&#x2DC;" horiz-adv-x="185" d="M-64 569Q-60 600 -49 619T-23 649T3 663T21 667Q41 667 60 660T98 645Q116 637 133 631T167 624Q189 624 197 637T211 671H249Q247 654 242 637T226 605T201 583T167 574Q147 574 128 581T91 597Q72 605 55 611T21 617Q-1 617 -11 602T-27 569H-64Z"  />
<glyph unicode="&#x2013;" horiz-adv-x="500" d="M0 291H500V235H0V291Z"  />
<glyph unicode="&#x2014;" horiz-adv-x="1000" d="M130 291H870V235H130V291Z"  />
<glyph unicode="&#x2018;" horiz-adv-x="278" d="M172 438H96V546Q96 598 111 642T148 712L182 687Q158 659 148 624T139 554H172V438Z"  />
<glyph unicode="&#x2019;" horiz-adv-x="278" d="M106 712H182V604Q182 595 181 579T175 542T160 494T130 438L96 463Q120 491 130 526T139 596H106V712Z"  />
<glyph unicode="&#x201A;" horiz-adv-x="278" d="M101 116H177V8Q177 -1 176 -17T170 -54T155 -102T125 -158L91 -133Q115 -105 125 -70T134 0H101V116Z"  />
<glyph unicode="&#x201C;" horiz-adv-x="315" d="M252 438H176V546Q176 598 191 642T228 712L262 687Q238 659 228 624T219 554H252V438ZM129 438H53V546Q53 598 68 642T105 712L139 687Q115 659 105 624T96 554H129V438Z"  />
<glyph unicode="&#x201D;" horiz-adv-x="315" d="M63 712H139V604Q139 595 138 579T132 542T117 494T87 438L53 463Q77 491 87 526T96 596H63V712ZM186 712H262V604Q262 595 261 579T255 542T240 494T210 438L176 463Q200 491 210 526T219 596H186V712Z"  />
<glyph unicode="&#x201E;" horiz-adv-x="315" d="M63 116H139V8Q139 -44 124 -88T87 -158L53 -133Q77 -105 87 -70T96 0H63V116ZM186 116H262V8Q262 -44 247 -88T210 -158L176 -133Q200 -105 210 -70T219 0H186V116Z"  />
<glyph unicode="&#x2020;" horiz-adv-x="554" d="M247 712H307V472H480V416H307V-90H247V416H74V472H247V712Z"  />
<glyph unicode="&#x2021;" horiz-adv-x="554" d="M247 712H307V492H480V436H307V193H480V137H307V-90H247V137H74V193H247V436H74V492H247V712Z"  />
<glyph unicode="&#x2022;" horiz-adv-x="500" d="M72 356Q72 393 86 425T124 482T180 520T250 534Q287 534 319 520T376 482T414 426T428 356Q428 319 414 287T376 230T320 192T250 178Q213 178 181 192T124 230T86 286T72 356Z"  />
<glyph unicode="&#x2026;" horiz-adv-x="1000" d="M871 0H795V116H871V0ZM538 0H462V116H538V0ZM205 0H129V116H205V0Z"  />
<glyph unicode="&#x2030;" horiz-adv-x="1000" d="M163 -37L124 -16L516 740L557 722L163 -37ZM831 38Q853 38 867 51T888 84T899 126T902 167Q902 185 899 207T889 249T867 282T831 296Q809 296 796 283T774 250T763 208T760 167Q760 149 763 127T774 85T795 52T831 38ZM831 -12Q795 -12 772 5T735 49T716 106T710 167Q710 195 715 227T734 285T771 328T831 346Q868 346 891 329T928 285T947 227T952 167Q952 138 947 107T929 49T892 6T831 -12ZM531 38Q553 38 567 51T588 84T599 126T602 167Q602 185 599 207T589 249T567 282T531 296Q509 296 496 283T474 250T463 208T460 167Q460 149 463 127T474 85T495 52T531 38ZM531 -12Q495 -12 472 5T435 49T416 106T410 167Q410 195 415 227T434 285T471 328T531 346Q568 346 591 329T628 285T647 227T652 167Q652 138 647 107T629 49T592 6T531 -12ZM169 416Q191 416 205 429T226 462T237 504T240 545Q240 563 237 585T227 627T205 660T169 674Q147 674 134 661T112 628T101 586T98 545Q98 527 101 505T112 463T133 430T169 416ZM169 366Q133 366 110 383T73 427T54 484T48 545Q48 573 53 605T72 663T109 706T169 724Q206 724 229 707T266 663T285 605T290 545Q290 516 285 485T267 427T230 384T169 366Z"  />
<glyph unicode="&#x2039;" horiz-adv-x="278" d="M224 418L121 263L224 108L176 76L54 263L176 450L224 418Z"  />
<glyph unicode="&#x203A;" horiz-adv-x="278" d="M102 450L224 263L102 76L54 108L157 263L54 418L102 450Z"  />
<glyph unicode="&#x20AC;" horiz-adv-x="556" d="M484 416L466 366H143Q142 361 142 355T143 338Q143 331 143 322T145 299H447L428 249H152Q168 164 222 107Q282 45 367 45Q416 45 454 63Q473 73 494 89T541 131V54Q497 16 459 3Q420 -12 365 -12Q253 -12 180 60Q112 127 87 249H15L34 299H78Q77 305 77 314T76 336Q76 346 76 353Q76 361 77 366H15L33 416H80Q99 566 181 648Q257 724 371 724Q495 724 557 647L534 586Q466 667 370 667Q282 667 223 602Q161 534 147 416H484Z"  />
<glyph unicode="&#x2122;" horiz-adv-x="990" d="M848 668H846L697 300H667L518 668H516V300H466V712H551L684 378L813 712H898V300H848V668ZM207 668H72V712H392V668H257V300H207V668Z"  />

</font>
</defs>
</svg>
