<?xml  version="1.0" encoding="UTF-8"?>
<!DOCTYPE svg PUBLIC "-//W3C//DTD SVG 1.0//EN" "http://www.w3.org/TR/2001/REC-SVG-20010904/DTD/svg10.dtd" >
<svg xmlns="http://www.w3.org/2000/svg" >
<metadata>
<version>1.0</version>
<id><![CDATA[Basic Commercial W01 Bold]]></id>
<vendor>Monotype Imaging Inc.</vendor>
<credits>
<name>Fonts.com WebFonts</name>
<URL>http://webfonts.fonts.com</URL>
<role>Home of the Web fonts</role>
</credits>
<license>
<URL>http://webfonts.fonts.com/Legal</URL>
</license>
<copyright><![CDATA[Copyright 2003 - 2007 Linotype GmbH, www.linotype.com. All rights reserved. This font software may not be reproduced, modified, disclosed or transferred without the express written approval of Linotype GmbH. Basic Commercial is a trademark of Linotype GmbH registered in the U.S. Patent and Trademark Office and may be registered in certain other jurisdictions. This typeface is original artwork of Linotype Design Studio. The design may be protected in certain jurisdictions.]]></copyright>
<trademark><![CDATA[Basic Commercial is a trademark of Linotype GmbH registered in the U.S. Patent and Trademark Office and may be registered in certain other jurisdictions.]]></trademark>
<licensee>
<name></name>
</licensee>
</metadata>
<defs >
<font horiz-adv-x="522" id="432e459a-c917-431c-8099-76cbb7c83210">
<font-face font-family="" panose-1="2 11 7 3 4 5 3 2 2 4" ascent="943" descent="-225" units-per-em="1000" alphabetic="0">
</font-face>
<missing-glyph horiz-adv-x="278" />

<glyph unicode="&#xA;" />
<glyph unicode="&#xD;" horiz-adv-x="278" />
<glyph unicode=" " horiz-adv-x="278" />
<glyph unicode="!" horiz-adv-x="260" d="M63 138H197V0H63V138ZM197 436L158 183H102L63 436V712H197V436Z"  />
<glyph unicode="&quot;" horiz-adv-x="389" d="M69 712H163V434H69V712ZM226 712H320V434H226V712Z"  />
<glyph unicode="#" horiz-adv-x="556" d="M335 403H239L221 277H317L335 403ZM29 277H126L144 403H60V491H157L184 680H279L252 491H348L375 680H470L443 491H527V403H430L412 277H496V189H399L372 0H277L304 189H208L181 0H86L113 189H29V277Z"  />
<glyph unicode="$" horiz-adv-x="556" d="M238 580Q173 568 173 510Q173 475 192 461T238 440V580ZM129 181Q145 148 174 128T238 100V301Q199 316 163 331T100 367T56 421T39 503Q39 546 56 580T100 639T164 677T238 692V803H326V692Q351 691 379 682T433 658T481 623T519 577L427 505Q410 533 385 554T326 580V414Q367 401 404 386T469 347T514 290T531 205Q531 152 511 112T460 44T393 3T326 -12V-130H238V-12Q175 -10 119 21T25 103L129 181ZM326 100Q354 109 375 133T397 191Q397 224 376 244T326 272V100Z"  />
<glyph unicode="%" horiz-adv-x="1000" d="M664 718H751L335 -38H248L664 718ZM277 616Q256 616 244 606T225 580T217 546T215 511Q215 495 216 477T224 443T243 417T277 406Q298 406 310 416T329 442T337 476T339 511Q339 527 338 545T330 579T311 605T277 616ZM277 692Q317 692 347 679T398 641T428 583T439 511Q439 472 429 439T398 382T348 344T277 330Q237 330 207 343T156 381T126 439T115 511Q115 550 125 583T156 640T206 678T277 692ZM723 274Q702 274 690 264T671 238T663 204T661 169Q661 153 662 135T670 101T689 75T723 64Q744 64 756 74T775 100T783 134T785 169Q785 185 784 203T776 237T757 263T723 274ZM723 350Q763 350 793 337T844 299T874 241T885 169Q885 130 875 97T844 40T794 2T723 -12Q683 -12 653 1T602 39T572 97T561 169Q561 208 571 241T602 298T652 336T723 350Z"  />
<glyph unicode="&amp;" horiz-adv-x="630" d="M320 580Q292 580 280 562T267 525Q267 500 276 483T299 450Q326 455 350 473T375 523Q375 548 360 564T320 580ZM239 311Q202 300 177 270T151 199Q151 173 160 153T184 120T220 101T261 94Q291 94 316 105T359 134L239 311ZM439 221Q448 231 455 246T468 278T477 309T481 333H593Q593 323 589 300T574 248T548 188T507 133Q527 116 540 108T571 100Q587 100 601 103V6Q577 0 542 0Q507 0 480 8T427 42Q391 19 348 4T253 -12Q206 -12 165 2T94 42T47 107T29 194Q29 229 42 261T76 319T124 367T180 403Q169 421 157 448T145 508Q145 545 158 575T196 628T252 662T321 674Q357 674 386 663T437 632T469 585T481 524Q481 490 471 465T443 421T401 387T348 360L439 221Z"  />
<glyph unicode="&apos;" horiz-adv-x="278" d="M92 712H186V434H92V712Z"  />
<glyph unicode="(" horiz-adv-x="352" d="M331 693Q289 654 261 605T216 504T191 399T183 300Q183 253 190 201T215 97T261 -5T331 -93L299 -142Q239 -96 193 -48T114 55T66 169T49 300Q49 370 65 430T114 545T192 647T299 742L331 693Z"  />
<glyph unicode=")" horiz-adv-x="352" d="M21 -93Q63 -54 91 -5T136 96T161 201T169 300Q169 346 162 398T137 503T91 605T21 693L53 742Q113 696 159 648T238 545T286 431T303 300Q303 230 287 170T238 55T160 -47T53 -142L21 -93Z"  />
<glyph unicode="*" horiz-adv-x="352" d="M330 574L236 544L296 461L236 418L176 504L116 418L58 461L116 544L22 574L44 642L138 612V712H213V612L306 642L330 574Z"  />
<glyph unicode="+" horiz-adv-x="600" d="M250 203H47V303H250V506H350V303H553V203H350V0H250V203Z"  />
<glyph unicode="&#x2c;" horiz-adv-x="278" d="M72 138H206V-27Q206 -55 196 -74T168 -107T127 -129T79 -140V-79Q100 -77 115 -66T130 -31V0H72V138Z"  />
<glyph unicode="-" horiz-adv-x="333" d="M42 348H291V236H42V348Z"  />
<glyph unicode="." horiz-adv-x="278" d="M72 138H206V0H72V138Z"  />
<glyph unicode="/" horiz-adv-x="463" d="M346 730H455L117 -18H8L346 730Z"  />
<glyph unicode="0" horiz-adv-x="556" d="M278 580Q220 580 192 524T164 340Q164 213 192 157T278 100Q336 100 364 156T392 340Q392 467 364 523T278 580ZM278 692Q342 692 388 668T465 597T511 486T526 340Q526 259 511 194T466 83T389 13T278 -12Q214 -12 168 12T91 83T45 194T30 340Q30 421 45 486T90 597T167 667T278 692Z"  />
<glyph unicode="1" horiz-adv-x="556" d="M258 406Q258 446 247 459T201 473H93V555H113Q158 555 187 564T235 589T264 629T280 680H380V0H258V406Z"  />
<glyph unicode="2" horiz-adv-x="556" d="M48 429Q48 487 61 535T103 618T176 672T282 692Q330 692 370 677T438 635T482 568T498 481Q498 414 471 362T401 265T309 183T214 106H508V0H48V106Q72 121 104 143T171 194T239 256T299 324T342 397T358 470Q358 490 354 509T340 542T312 565T267 574Q239 574 221 563T191 532T175 484T170 420L48 429Z"  />
<glyph unicode="3" horiz-adv-x="556" d="M230 412H279Q317 412 342 430T368 488Q368 531 345 555T278 580Q252 580 235 570T206 543T190 505T182 463L49 491Q66 591 127 641T288 692Q330 692 368 681T436 648T484 591T502 510Q502 450 474 416T390 367V365Q454 350 486 307T519 197Q519 144 499 105T445 40T367 1T273 -12Q223 -12 180 0T105 40T55 112T37 222H165Q165 167 192 134T277 100Q325 100 352 129T379 205Q379 233 371 252T349 284T317 301T279 306H230V412Z"  />
<glyph unicode="4" horiz-adv-x="556" d="M325 536H323L152 262H325V536ZM325 156H24V250L322 680H447V262H532V156H447V0H325V156Z"  />
<glyph unicode="5" horiz-adv-x="556" d="M104 680H484L471 562H208L187 420Q241 468 309 468Q363 468 403 450T470 399T510 325T523 235Q523 176 504 131T451 53T371 5T270 -12Q222 -12 180 0T106 36T55 99T33 188L173 199Q174 156 200 125T271 94Q302 94 323 106T357 137T377 182T383 234Q383 302 352 332T269 362Q231 362 209 346T172 297L56 306L104 680Z"  />
<glyph unicode="6" horiz-adv-x="556" d="M286 324Q238 324 213 295T187 212Q187 159 212 130T286 100Q334 100 359 129T385 212Q385 265 360 294T286 324ZM377 502Q374 538 353 559T296 580Q260 580 237 559T200 507T182 439T177 373H179Q185 382 196 393T223 413T261 429T312 436Q360 436 397 420T460 374T499 303T513 212Q513 165 497 124T450 53T379 6T286 -12Q212 -12 165 18T90 96T53 204T43 323Q43 404 59 471T106 588T185 664T297 692Q383 692 437 649T506 519L377 502Z"  />
<glyph unicode="7" horiz-adv-x="556" d="M59 680H508V568Q470 532 432 470T362 330T306 168T277 0H113Q132 152 193 286T362 556H59V680Z"  />
<glyph unicode="8" horiz-adv-x="556" d="M179 490Q179 442 205 421T278 400Q324 400 350 421T377 490Q377 538 351 559T278 580Q232 580 206 559T179 490ZM165 197Q165 146 196 123T278 100Q328 100 359 123T391 197Q391 248 360 271T278 294Q228 294 197 271T165 197ZM278 692Q322 692 364 682T438 647T491 585T511 490Q511 452 490 414T427 355Q475 331 503 291T531 197Q531 141 508 101T449 36T367 0T278 -12Q234 -12 189 -1T108 36T48 101T25 197Q25 251 53 291T129 355Q88 376 67 414T45 490Q45 546 65 584T117 647T192 681T278 692Z"  />
<glyph unicode="9" horiz-adv-x="556" d="M270 356Q318 356 343 385T369 468Q369 521 344 550T270 580Q222 580 197 551T171 468Q171 415 196 386T270 356ZM179 178Q182 142 203 121T260 100Q296 100 319 121T356 173T374 241T379 307H377Q371 298 360 287T333 267T295 251T244 244Q196 244 159 260T96 306T57 377T43 468Q43 515 59 556T106 627T177 674T270 692Q346 692 394 662T468 584T503 476T513 357Q513 276 497 209T450 92T371 16T259 -12Q173 -12 119 31T50 161L179 178Z"  />
<glyph unicode=":" horiz-adv-x="278" d="M72 138H206V0H72V138ZM72 512H206V374H72V512Z"  />
<glyph unicode=";" horiz-adv-x="278" d="M72 512H206V374H72V512ZM72 138H206V-27Q206 -55 196 -74T168 -107T127 -129T79 -140V-79Q100 -77 115 -66T130 -31V0H72V138Z"  />
<glyph unicode="&lt;" horiz-adv-x="600" d="M47 215V291L553 514V408L182 253L553 98V-8L47 215Z"  />
<glyph unicode="=" horiz-adv-x="600" d="M47 198H553V98H47V198ZM47 408H553V308H47V408Z"  />
<glyph unicode="&gt;" horiz-adv-x="600" d="M553 291V215L47 -8V98L418 253L47 408V514L553 291Z"  />
<glyph unicode="?" horiz-adv-x="574" d="M220 138H354V0H220V138ZM231 240Q231 270 233 293T243 334T263 368T297 398Q313 408 328 418T356 442T377 473T385 513Q385 556 356 584T278 612Q247 612 226 601T190 572T169 528T161 476L39 493Q41 548 59 592T110 666T187 713T287 730Q335 730 378 716T453 674T505 608T525 518Q525 479 516 451T489 400T447 358T395 319Q366 299 355 277T343 220V183H231V240Z"  />
<glyph unicode="@" horiz-adv-x="930" d="M558 292Q558 324 540 345T490 367Q463 367 442 354T407 319T385 269T377 211Q377 169 396 150T446 130Q475 130 496 146T531 186T551 238T558 292ZM884 328Q884 263 864 212T811 126T737 73T652 54Q573 54 541 114Q516 80 484 64T415 48Q380 48 352 59T305 91T274 141T263 205Q263 255 280 299T325 377T392 430T473 450Q512 450 538 436T576 399H578L587 440H700L647 211Q642 193 641 181T640 161Q640 148 648 140T667 131Q687 131 707 144T744 181T771 242T781 325Q781 381 761 427T704 507T615 559T497 578Q423 578 363 552T261 481T195 372T171 235Q171 162 194 105T259 7T360 -54T492 -75Q523 -75 557 -70T624 -56T689 -35T746 -7L789 -86Q726 -123 647 -145T486 -168Q388 -168 308 -140T169 -60T78 66T46 235Q46 326 79 406T172 544T315 637T497 671Q585 671 657 646T779 574T856 466T884 328Z"  />
<glyph unicode="A" horiz-adv-x="630" d="M237 712H393L631 0H491L450 138H180L139 0H-1L237 712ZM316 582H314L216 256H414L316 582Z"  />
<glyph unicode="B" horiz-adv-x="667" d="M65 712H400Q444 712 482 701T549 668T594 613T611 535Q611 476 580 439T490 391V389Q527 385 555 369T603 329T633 275T643 213Q643 146 621 105T561 40T473 8T368 0H65V712ZM199 426H358Q380 426 400 430T436 446T461 474T471 517Q471 558 444 582T358 606H199V426ZM199 118H373Q434 118 468 139T503 217Q503 277 468 301T372 326H199V118Z"  />
<glyph unicode="C" horiz-adv-x="685" d="M537 473Q533 503 520 527T485 569T437 596T380 606Q327 606 289 585T227 528T191 447T179 356Q179 309 190 265T226 185T289 128T380 106Q415 106 442 117T491 147T527 192T552 250L674 194Q631 86 559 34T380 -18Q294 -18 231 12T124 93T60 213T39 356Q39 431 62 499T130 618T237 700T380 730Q488 730 564 674T666 506L537 473Z"  />
<glyph unicode="D" horiz-adv-x="704" d="M199 124H321Q370 124 408 134T472 171T511 242T525 356Q525 408 513 451T476 524T412 571T318 588H199V124ZM65 712H315Q407 712 473 685T582 611T645 498T665 356Q665 181 583 91T340 0H65V712Z"  />
<glyph unicode="E" horiz-adv-x="611" d="M65 712H569V588H199V426H539V308H199V124H595V0H65V712Z"  />
<glyph unicode="F" horiz-adv-x="537" d="M65 712H533V588H199V418H491V300H199V0H65V712Z"  />
<glyph unicode="G" horiz-adv-x="741" d="M558 470Q552 491 541 515T508 559T456 593T380 606Q327 606 289 585T227 528T191 447T179 356Q179 309 190 265T226 185T289 128T380 106Q416 106 448 118T506 151T546 203T561 271H385V389H683V0H567V61Q549 41 527 26T479 2T429 -13T380 -18Q294 -18 231 12T124 93T60 213T39 356Q39 431 62 499T130 618T237 700T380 730Q489 730 565 677T683 521L558 470Z"  />
<glyph unicode="H" horiz-adv-x="704" d="M65 712H199V445H505V712H639V0H505V321H199V0H65V712Z"  />
<glyph unicode="I" horiz-adv-x="278" d="M72 712H206V0H72V712Z"  />
<glyph unicode="J" horiz-adv-x="389" d="M317 153Q317 103 296 70T243 18T173 -10T101 -18Q71 -18 50 -15T12 -9V120Q24 115 44 114T82 112Q99 112 117 115T149 129T173 157T183 203V712H317V153Z"  />
<glyph unicode="K" horiz-adv-x="648" d="M65 712H199V392L481 712H640L407 442L656 0H501L313 333L199 204V0H65V712Z"  />
<glyph unicode="L" horiz-adv-x="500" d="M65 712H199V124H488V0H65V712Z"  />
<glyph unicode="M" horiz-adv-x="796" d="M65 712H270L400 160H402L532 712H731V0H603V594H601L461 0H335L195 594H193V0H65V712Z"  />
<glyph unicode="N" horiz-adv-x="686" d="M70 712H193L492 205H494V712H616V0H493L194 507H192V0H70V712Z"  />
<glyph unicode="O" horiz-adv-x="760" d="M380 730Q460 730 523 700T630 619T697 499T721 356Q721 281 698 213T630 94T523 12T380 -18Q300 -18 237 12T130 93T63 213T39 356Q39 431 62 499T130 618T237 700T380 730ZM380 606Q327 606 289 585T227 528T191 447T179 356Q179 309 190 265T226 185T289 128T380 106Q433 106 471 127T533 184T569 264T581 356Q581 402 570 447T534 527T471 584T380 606Z"  />
<glyph unicode="P" horiz-adv-x="611" d="M199 352H332Q395 352 426 385T457 472Q457 509 448 533T421 573T380 594T327 600H199V352ZM65 712H348Q411 712 457 694T535 644T581 568T597 472Q597 419 580 376T530 303T454 257T357 240H199V0H65V712Z"  />
<glyph unicode="Q" horiz-adv-x="778" d="M751 -37Q732 -32 710 -23T666 -1T624 25T589 56Q548 21 496 2T380 -18Q300 -18 237 12T130 93T63 213T39 356Q39 431 62 499T130 618T237 700T380 730Q460 730 523 700T630 619T697 499T721 356Q721 298 707 244T664 144Q684 121 714 105T789 88L751 -37ZM380 606Q327 606 289 585T227 528T191 447T179 356Q179 309 190 265T226 185T289 128T380 106Q433 106 471 127T533 184T569 264T581 356Q581 402 570 447T534 527T471 584T380 606Z"  />
<glyph unicode="R" horiz-adv-x="630" d="M199 380H345Q396 380 429 408T462 487Q462 536 429 565T325 594H199V380ZM65 712H362Q419 712 463 696T538 652T585 584T602 497Q602 437 585 399T544 337T498 303T461 287L620 0H465L327 262H199V0H65V712Z"  />
<glyph unicode="S" horiz-adv-x="648" d="M114 214Q152 158 207 132T329 106Q353 106 380 110T429 125T465 153T480 197Q480 218 471 232T442 256T396 275T333 291L254 309Q211 319 173 333T105 369T58 425T40 508Q40 564 64 606T128 675T216 716T316 730Q408 730 482 696T613 587L502 503Q476 552 429 579T315 606Q257 606 219 586T180 527Q180 505 191 491T223 466T270 449T327 436L414 417Q454 408 491 395T556 359T602 302T620 216Q620 151 592 106T520 34T419 -6T308 -18Q264 -18 220 -9T136 20T60 67T0 132L114 214Z"  />
<glyph unicode="T" horiz-adv-x="538" d="M202 588H7V712H531V588H336V0H202V588Z"  />
<glyph unicode="U" horiz-adv-x="704" d="M639 219Q639 165 619 121T560 46T469 -1T352 -18Q287 -18 235 -2T144 46T86 121T65 219V712H199V254Q199 221 206 195T232 151T279 122T352 112Q395 112 424 122T472 150T497 195T505 254V712H639V219Z"  />
<glyph unicode="V" horiz-adv-x="594" d="M-1 712H139L296 144H298L455 712H595L387 0H207L-1 712Z"  />
<glyph unicode="W" horiz-adv-x="834" d="M9 712H144L242 156H246L354 712H488L593 162H595L690 712H825L679 0H523L418 512H416L311 0H155L9 712Z"  />
<glyph unicode="X" horiz-adv-x="648" d="M244 385L41 712H196L324 506L452 712H607L404 385L642 0H488L324 265L160 0H6L244 385Z"  />
<glyph unicode="Y" horiz-adv-x="630" d="M248 278L11 712H160L315 418L470 712H619L382 278V0H248V278Z"  />
<glyph unicode="Z" horiz-adv-x="593" d="M19 118L403 594H52V712H574V594L191 118H574V0H19V118Z"  />
<glyph unicode="[" horiz-adv-x="352" d="M67 712H331V612H195V-12H331V-112H67V712Z"  />
<glyph unicode="\" horiz-adv-x="463" d="M455 -18H346L8 730H117L455 -18Z"  />
<glyph unicode="]" horiz-adv-x="352" d="M285 -112H21V-12H157V612H21V712H285V-112Z"  />
<glyph unicode="^" horiz-adv-x="600" d="M256 680H344L543 276H438L300 562L162 276H57L256 680Z"  />
<glyph unicode="_" horiz-adv-x="500" d="M0 -75H500V-125H0V-75Z"  />
<glyph unicode="`" horiz-adv-x="241" d="M196 568H113L-29 712H105L196 568Z"  />
<glyph unicode="a" horiz-adv-x="537" d="M361 253Q349 247 335 243T303 235L236 221Q219 217 204 213T177 201T159 181T152 151Q152 122 175 105T231 88Q252 88 275 93T317 110T348 139T361 181V253ZM483 85Q483 46 490 27T502 0H373Q367 9 364 22T361 46Q289 -12 196 -12Q160 -12 129 -1T74 30T38 80T24 147Q24 184 37 211T73 257T122 287T178 305L229 315Q245 318 263 321T300 329T333 337T361 345V360Q361 397 333 410T265 424Q211 424 191 407T171 348L49 353Q49 398 67 429T115 480T184 509T265 518Q306 518 345 513T415 489T464 439T483 352V85Z"  />
<glyph unicode="b" horiz-adv-x="574" d="M298 406Q263 406 240 393T204 357T184 308T178 253Q178 226 184 199T203 149T240 114T298 100Q332 100 355 113T392 149T412 198T418 253Q418 280 412 307T393 357T356 392T298 406ZM60 712H182V463Q210 489 245 503T326 518Q375 518 415 497T485 440T530 356T546 253Q546 198 530 150T485 66T416 9T326 -12Q271 -12 239 5T184 49H182V0H60V712Z"  />
<glyph unicode="c" horiz-adv-x="519" d="M394 325Q382 363 353 384T287 406Q254 406 230 393T189 359T164 311T156 253Q156 223 163 196T186 147T224 113T280 100Q307 100 327 109T361 132T386 163T403 198L507 143Q494 115 476 88T431 38T367 2T278 -12Q220 -12 174 8T95 63T46 147T28 253Q28 310 45 358T96 442T177 498T287 518Q333 518 368 506T428 475T471 429T501 374L394 325Z"  />
<glyph unicode="d" horiz-adv-x="574" d="M392 49H390Q367 22 335 5T248 -12Q199 -12 159 9T89 66T44 150T28 253Q28 308 44 356T89 440T158 497T248 518Q293 518 328 504T392 463V712H514V0H392V49ZM276 406Q241 406 218 393T182 357T162 308T156 253Q156 226 162 199T181 149T218 114T276 100Q310 100 333 113T370 149T390 198T396 253Q396 280 390 307T371 357T334 392T276 406Z"  />
<glyph unicode="e" horiz-adv-x="556" d="M402 318Q402 328 396 345T375 378T340 406T287 418Q233 418 200 389T156 318H402ZM156 224Q157 196 168 173T197 134T239 109T287 100Q323 100 348 109T391 130T418 154T433 172L536 112Q522 90 501 68T449 28T379 -1T287 -12Q225 -12 177 8T96 63T46 147T28 253Q28 310 45 358T96 442T177 498T287 518Q350 518 396 498T472 439T516 347T530 224H156Z"  />
<glyph unicode="f" horiz-adv-x="315" d="M79 418H5V506H79V586Q79 625 91 649T123 688T171 707T228 712Q269 712 310 709V603Q290 606 270 606Q233 606 217 591T201 542V506H310V418H201V0H79V418Z"  />
<glyph unicode="g" horiz-adv-x="574" d="M396 272Q396 292 390 315T371 359T334 392T276 406Q241 406 218 393T182 359T162 316T156 272Q156 252 162 229T181 185T218 152T276 138Q310 138 333 151T370 185T390 228T396 272ZM514 11Q514 -43 495 -77T440 -132T357 -160T251 -168Q191 -168 152 -153T88 -114T55 -63T45 -11H173Q180 -37 205 -55T277 -74Q337 -74 364 -47T392 28V82Q377 66 359 56T322 39T284 29T248 26Q201 26 161 43T91 92T45 169T28 272Q28 329 44 374T90 452T160 501T248 518Q303 518 335 501T390 457H392V506H514V11Z"  />
<glyph unicode="h" horiz-adv-x="574" d="M60 712H182V456H184Q204 482 240 500T329 518Q361 518 394 510T453 482T497 426T514 335V0H392V300Q392 353 371 376T302 400Q267 400 244 387T208 354T188 308T182 260V0H60V712Z"  />
<glyph unicode="i" horiz-adv-x="242" d="M60 712H182V588H60V712ZM60 506H182V0H60V506Z"  />
<glyph unicode="j" horiz-adv-x="242" d="M60 712H182V588H60V712ZM182 -55Q182 -91 168 -113T129 -147T75 -163T13 -168H-3V-56H2Q9 -56 19 -55T38 -49T53 -36T60 -14V506H182V-55Z"  />
<glyph unicode="k" horiz-adv-x="537" d="M60 712H182V316L374 506H532L336 309L551 0H402L251 227L182 159V0H60V712Z"  />
<glyph unicode="l" horiz-adv-x="242" d="M60 712H182V0H60V712Z"  />
<glyph unicode="m" horiz-adv-x="870" d="M60 506H182V456Q210 485 244 501T328 518Q350 518 373 514T416 501T452 478T477 442Q505 479 543 498T633 518Q716 518 763 478T810 356V0H688V307Q688 351 668 378T605 406Q579 406 559 395T525 364T504 319T496 267V0H374V307Q374 351 354 378T289 406Q264 406 245 395T211 364T190 319T182 267V0H60V506Z"  />
<glyph unicode="n" horiz-adv-x="556" d="M60 506H182V456H184Q211 489 248 503T322 518Q413 518 454 474T496 346V0H374V309Q374 326 370 342T356 371T330 392T290 400Q268 400 249 393T214 369T191 327T182 267V0H60V506Z"  />
<glyph unicode="o" horiz-adv-x="574" d="M287 406Q254 406 230 393T189 359T164 311T156 253Q156 223 164 196T188 147T229 113T287 100Q320 100 344 113T385 147T410 195T418 253Q418 283 410 310T386 359T345 393T287 406ZM287 518Q348 518 396 498T478 443T528 359T546 253Q546 196 529 148T478 64T397 8T287 -12Q225 -12 177 8T96 63T46 147T28 253Q28 310 45 358T96 442T177 498T287 518Z"  />
<glyph unicode="p" horiz-adv-x="574" d="M298 100Q332 100 355 113T392 149T412 198T418 253Q418 280 412 307T393 357T356 392T298 406Q263 406 240 393T204 357T184 308T178 253Q178 226 184 199T203 149T240 114T298 100ZM60 506H182V463H184Q212 489 247 503T328 518Q376 518 416 497T485 440T530 356T546 253Q546 198 530 150T485 66T416 9T326 -12Q271 -12 239 5T182 49V-162H60V506Z"  />
<glyph unicode="q" horiz-adv-x="574" d="M276 100Q310 100 333 113T370 149T390 198T396 253Q396 280 390 307T371 357T334 392T276 406Q241 406 218 393T182 357T162 308T156 253Q156 226 162 199T181 149T218 114T276 100ZM514 -162H392V49H390Q369 22 337 5T250 -12Q200 -12 160 9T90 66T44 150T28 253Q28 308 44 356T89 440T158 497T246 518Q272 518 292 515T328 504T359 487T390 463H392V506H514V-162Z"  />
<glyph unicode="r" horiz-adv-x="352" d="M60 506H182V436H184Q206 480 246 499T340 518V394Q309 394 281 386T230 361T195 315T182 245V0H60V506Z"  />
<glyph unicode="s" horiz-adv-x="500" d="M386 346Q375 371 344 394T259 418Q216 418 191 405T166 369Q166 347 189 337T248 320T325 306T402 284T461 241T485 165Q485 119 466 86T416 31T344 -1T260 -12Q170 -12 110 15T15 80L107 151Q128 120 166 104T253 88Q275 88 293 93T324 107T344 126T351 147Q351 168 328 178T270 196T195 210T119 234T61 278T38 354Q38 397 55 428T103 479T174 508T262 518Q307 518 342 508T402 484T445 453T471 426L386 346Z"  />
<glyph unicode="t" horiz-adv-x="315" d="M79 685H201V506H310V418H201V162Q201 132 211 116T256 100Q269 100 282 102T310 106V6Q288 1 265 -2T213 -6Q138 -6 109 26T79 116V418H5V506H79V685Z"  />
<glyph unicode="u" horiz-adv-x="574" d="M514 0H392V50H390Q370 24 334 6T245 -12Q213 -12 180 -4T121 24T77 80T60 171V506H182V206Q182 153 203 130T272 106Q306 106 329 117T366 147T386 188T392 234V506H514V0Z"  />
<glyph unicode="v" horiz-adv-x="464" d="M1 506H130L231 156H233L334 506H463L296 0H168L1 506Z"  />
<glyph unicode="w" horiz-adv-x="742" d="M8 506H134L219 162H221L316 506H426L521 162H523L608 506H734L588 0H468L372 339H370L274 0H154L8 506Z"  />
<glyph unicode="x" horiz-adv-x="482" d="M170 273L18 506H160L241 382L322 506H464L312 273L487 0H341L241 160L141 0H-5L170 273Z"  />
<glyph unicode="y" horiz-adv-x="463" d="M297 -45Q286 -80 273 -103T241 -141T197 -162T139 -168Q116 -168 100 -166T66 -161V-52Q75 -54 86 -55T114 -56Q143 -56 157 -47T182 -13L0 506H131L240 138H242L337 506H463L297 -45Z"  />
<glyph unicode="z" horiz-adv-x="481" d="M26 94L294 400H54V506H455V412L190 106H455V0H26V94Z"  />
<glyph unicode="{" horiz-adv-x="352" d="M325 642H287Q261 642 249 630T237 588V413Q237 380 229 360T207 327T177 310T146 301V299Q161 296 177 291T206 273T228 241T237 187V12Q237 -17 249 -29T287 -42H325V-112H243Q174 -112 145 -87T115 4V174Q115 200 110 217T95 245T72 260T45 265V335Q59 335 72 339T94 354T109 382T115 426V596Q115 662 144 687T243 712H325V642Z"  />
<glyph unicode="|" horiz-adv-x="222" d="M61 786H161V-214H61V786Z"  />
<glyph unicode="}" horiz-adv-x="352" d="M27 -42H65Q91 -42 103 -30T115 12V187Q115 220 123 240T145 273T175 290T206 299V301Q191 304 175 309T146 327T124 359T115 413V588Q115 617 103 629T65 642H27V712H109Q178 712 207 687T237 596V426Q237 400 242 383T257 355T280 340T307 335V265Q278 265 258 246T237 174V4Q237 -62 208 -87T109 -112H27V-42Z"  />
<glyph unicode="~" horiz-adv-x="600" d="M531 255Q523 239 512 224T485 196T451 177T406 169Q380 169 352 178T295 201Q267 213 238 225T189 237Q162 237 142 214T105 165L69 251Q77 267 88 282T115 310T149 329T194 337Q220 337 248 328T305 305Q333 293 362 281T411 269Q438 269 458 292T495 341L531 255Z"  />
<glyph unicode="&#xA0;" horiz-adv-x="278" />
<glyph unicode="&#xA1;" horiz-adv-x="260" d="M197 424H63V562H197V424ZM63 126L102 379H158L197 126V-150H63V126Z"  />
<glyph unicode="&#xA2;" horiz-adv-x="556" d="M251 -12Q200 -4 161 19T94 78T53 157T39 253Q39 304 53 348T94 428T160 487T251 518V630H333V518Q370 514 399 501T449 468T486 424T512 374L405 325Q396 354 377 373T333 400V107Q362 118 382 144T413 198L517 143Q502 110 482 83T437 35T387 3T333 -12V-124H251V-12ZM251 397Q209 380 188 341T167 253Q167 205 188 166T251 109V397Z"  />
<glyph unicode="&#xA3;" horiz-adv-x="556" d="M94 91Q94 78 102 71T125 64Q143 64 155 71T177 92Q166 103 152 111T122 120Q111 120 104 113T94 91ZM58 369H137Q126 382 116 398T96 433T82 471T76 511Q76 558 92 592T136 649T203 681T287 692Q352 692 395 675T465 626T502 546T513 439H380Q382 450 383 459T385 481Q385 526 364 553T294 580Q258 580 234 561T210 503Q210 485 216 468T231 435T249 402T264 369H386V275H296Q298 258 299 245T301 217Q301 176 287 140Q301 133 321 123T358 112Q374 112 383 124T396 152T402 186T404 216H532V211Q532 178 527 139T508 67T467 11T397 -12Q377 -12 357 -6T316 9T276 29T242 51Q219 25 192 10T128 -6Q81 -6 53 21T24 95Q24 116 31 135T52 169T83 193T122 202Q144 202 165 197T207 181Q207 207 204 232T194 275H58V369Z"  />
<glyph unicode="&#xA4;" horiz-adv-x="556" d="M420 340Q420 370 410 397T382 444T338 476T278 488Q245 488 219 476T174 444T146 397T136 340Q136 310 146 283T174 236T218 204T278 192Q311 192 337 203T382 235T410 283T420 340ZM80 194Q55 223 43 260T30 340Q30 381 42 420T80 486L23 543L75 595L132 539Q159 562 198 575T278 588Q318 588 357 575T424 539L481 595L533 543L476 486Q502 459 514 420T526 340Q526 298 514 261T476 194L533 137L481 85L424 143Q397 117 359 105T278 92Q236 92 198 104T132 143L75 85L23 137L80 194Z"  />
<glyph unicode="&#xA5;" horiz-adv-x="556" d="M217 145H61V227H217V286L207 304H61V386H163L5 680H127L278 392L429 680H551L393 386H495V304H349L339 286V227H495V145H339V0H217V145Z"  />
<glyph unicode="&#xA6;" horiz-adv-x="222" d="M61 661H161V411H61V661ZM61 161H161V-89H61V161Z"  />
<glyph unicode="&#xA7;" horiz-adv-x="556" d="M138 333Q138 307 152 293T196 263L343 189Q373 198 395 218T418 273Q418 298 404 312T360 342L213 416Q183 407 161 387T138 333ZM418 586Q374 606 339 618T268 630Q242 630 222 622T202 594Q202 585 206 578T219 564T245 547T287 524L439 443Q486 418 508 385T530 303Q530 275 522 252T498 209T464 174T422 146Q452 127 469 96T486 33Q486 -11 466 -41T414 -92T343 -121T267 -130Q230 -130 199 -124T143 -109T97 -89T60 -69L120 22Q130 14 145 5T179 -11T218 -24T259 -30Q276 -30 292 -27T322 -19T344 -4T352 17Q352 34 332 47T267 83L129 153Q84 176 55 212T26 305Q26 365 56 403T139 464Q109 485 92 513T74 579Q74 619 91 647T135 694T195 721T262 730Q320 730 369 718T472 683L418 586Z"  />
<glyph unicode="&#xA8;" horiz-adv-x="241" d="M-23 692H89V580H-23V692ZM152 692H264V580H152V692Z"  />
<glyph unicode="&#xA9;" horiz-adv-x="800" d="M602 290Q596 252 579 223T536 173T478 142T411 131Q363 131 323 148T255 196T212 267T196 356Q196 404 210 445T253 517T321 564T411 581Q446 581 478 571T535 542T578 493T602 426H514Q506 464 478 484T411 505Q382 505 360 493T322 461T298 414T290 356Q290 327 299 302T323 256T361 225T411 213Q453 213 481 231T514 290H602ZM120 356Q120 293 141 239T199 144T288 81T400 58Q459 58 510 81T599 144T658 238T680 356Q680 419 659 473T600 568T511 631T400 654Q340 654 289 631T200 568T141 474T120 356ZM26 356Q26 440 56 508T138 626T257 703T400 730Q475 730 542 703T661 627T743 509T774 356Q774 272 744 204T662 86T543 9T400 -18Q325 -18 258 9T139 85T57 203T26 356Z"  />
<glyph unicode="&#xAA;" horiz-adv-x="349" d="M231 527Q214 519 193 516T152 508T119 496T106 473Q106 458 118 451T152 444Q166 444 180 447T205 456T224 473T231 496V527ZM325 432Q325 409 329 398T337 380H244Q240 386 239 394T237 409Q214 392 186 383T123 374Q76 374 44 399T12 469Q12 496 23 513T54 542T96 560T144 571T191 578T231 588V597Q231 615 213 622T168 629Q140 629 128 620T116 590L28 593Q28 620 40 638T71 669T117 686T171 692Q202 692 230 689T279 675T312 645T325 592V432Z"  />
<glyph unicode="&#xAB;" horiz-adv-x="426" d="M193 362L109 292L193 222V106L49 219V365L193 478V362ZM377 362L293 292L377 222V106L233 219V365L377 478V362Z"  />
<glyph unicode="&#xAC;" horiz-adv-x="600" d="M47 408H553V104H453V308H47V408Z"  />
<glyph unicode="&#xAD;" horiz-adv-x="333" d="M42 348H291V236H42V348Z"  />
<glyph unicode="&#xAE;" horiz-adv-x="800" d="M335 391H402Q420 391 436 392T464 400T483 416T490 445Q490 462 483 472T464 488T436 496T402 498H335V391ZM253 568H416Q492 568 532 540T572 444Q572 386 541 358T465 324L575 145H487L379 321H335V145H253V568ZM120 356Q120 293 141 239T199 144T288 81T400 58Q459 58 510 81T599 144T658 238T680 356Q680 419 659 473T600 568T511 631T400 654Q340 654 289 631T200 568T141 474T120 356ZM26 356Q26 440 56 508T138 626T257 703T400 730Q475 730 542 703T661 627T743 509T774 356Q774 272 744 204T662 86T543 9T400 -18Q325 -18 258 9T139 85T57 203T26 356Z"  />
<glyph unicode="&#xAF;" horiz-adv-x="241" d="M-23 672H264V602H-23V672Z"  />
<glyph unicode="&#xB0;" horiz-adv-x="400" d="M57 549Q57 614 96 653T200 692Q265 692 304 653T343 549Q343 484 304 445T200 406Q135 406 96 445T57 549ZM127 549Q127 520 149 498T200 476Q229 476 251 498T273 549Q273 578 251 600T200 622Q171 622 149 600T127 549Z"  />
<glyph unicode="&#xB1;" horiz-adv-x="600" d="M47 100H553V0H47V100ZM250 271H47V371H250V506H350V371H553V271H350V136H250V271Z"  />
<glyph unicode="&#xB2;" horiz-adv-x="361" d="M23 534Q23 569 32 598T60 648T110 680T183 692Q251 692 290 658T329 566Q329 525 312 494T268 439T213 395T160 360V358H335V276H47Q34 276 29 281T23 294V332Q23 347 33 352Q58 367 90 389T152 439T202 495T223 554Q223 578 213 594T173 610Q140 610 132 587T123 529L23 534Z"  />
<glyph unicode="&#xB3;" horiz-adv-x="361" d="M149 529H179Q202 529 218 538T234 568Q234 587 221 598T180 610Q150 610 136 594T122 555L25 572Q36 632 78 662T188 692Q216 692 242 686T289 666T322 632T334 583Q334 548 314 527T255 497V495Q299 487 322 461T345 395Q345 363 332 340T296 301T243 278T178 270Q145 270 116 277T64 301T29 344T16 410H110Q110 384 127 368T176 352Q239 352 239 406Q239 430 223 441T177 453H149V529Z"  />
<glyph unicode="&#xB4;" horiz-adv-x="241" d="M136 712H270L128 568H45L136 712Z"  />
<glyph unicode="&#xB5;" horiz-adv-x="602" d="M182 506V206Q182 189 185 168T205 129Q219 114 237 110T272 106Q304 106 324 114T355 134Q371 148 381 174T392 234V506H514V162Q514 141 516 131T521 116Q524 111 532 106T556 100Q559 100 562 100Q566 100 569 101Q575 102 580 103T594 106V6Q589 4 584 3T574 0Q563 -2 547 -4T516 -6Q490 -6 470 -2T431 18Q417 29 410 41T399 62Q383 38 360 22Q337 4 311 -4T252 -12Q236 -12 221 -9Q199 -4 180 6V-162H60V506H182Z"  />
<glyph unicode="&#xB6;" horiz-adv-x="600" d="M236 347Q186 347 146 360T78 397T35 454T20 526Q20 577 37 612T85 670T160 702T256 712H527V-112H439V636H324V-112H236V347Z"  />
<glyph unicode="&#xB7;" horiz-adv-x="278" d="M139 383Q170 383 192 361T215 307Q215 276 193 254T139 231Q108 231 86 253T63 307Q63 338 85 360T139 383Z"  />
<glyph unicode="&#xB8;" horiz-adv-x="241" d="M58 -159Q74 -164 90 -169T123 -174Q133 -174 144 -173T163 -167T177 -155T183 -134Q183 -115 169 -107T134 -99Q123 -99 115 -101T99 -106L77 -87L143 0H191L147 -57L149 -59Q159 -54 181 -54Q195 -54 210 -58T237 -72T257 -96T265 -130Q265 -155 254 -173T226 -202T187 -219T143 -225Q106 -225 83 -217T40 -199L58 -159Z"  />
<glyph unicode="&#xB9;" horiz-adv-x="361" d="M160 518Q160 539 153 546T123 554H55V618H68Q98 618 117 623T148 638T166 659T177 686H254V276H160V518Z"  />
<glyph unicode="&#xBA;" horiz-adv-x="373" d="M187 616Q168 616 153 609T128 589T113 562T107 533Q107 518 112 504T128 477T153 458T187 450Q206 450 220 457T245 477T260 503T266 533Q266 547 261 562T245 589T221 608T187 616ZM187 692Q229 692 261 680T315 647T348 596T360 533Q360 499 349 470T316 420T262 386T187 374Q145 374 113 386T58 419T25 470T13 533Q13 567 24 596T58 646T112 680T187 692Z"  />
<glyph unicode="&#xBB;" horiz-adv-x="426" d="M233 222L317 292L233 362V478L377 365V219L233 106V222ZM49 222L133 292L49 362V478L193 365V219L49 106V222Z"  />
<glyph unicode="&#xBC;" horiz-adv-x="834" d="M145 518Q145 539 138 546T108 554H40V618H53Q83 618 102 623T133 638T151 659T162 686H239V276H145V518ZM558 718H645L229 -38H142L558 718ZM648 301H646L544 160H648V301ZM648 84H456V150L649 410H742V160H794V84H742V0H648V84Z"  />
<glyph unicode="&#xBD;" horiz-adv-x="834" d="M482 258Q482 293 491 322T519 372T569 404T642 416Q710 416 749 382T788 290Q788 249 771 218T727 163T672 119T619 84V82H794V0H506Q493 0 488 5T482 18V56Q482 71 492 76Q517 91 549 113T611 163T661 219T682 278Q682 302 672 318T632 334Q599 334 591 311T582 253L482 258ZM145 518Q145 539 138 546T108 554H40V618H53Q83 618 102 623T133 638T151 659T162 686H239V276H145V518ZM548 718H635L219 -38H132L548 718Z"  />
<glyph unicode="&#xBE;" horiz-adv-x="834" d="M616 718H703L287 -38H200L616 718ZM648 301H646L544 160H648V301ZM173 529H203Q226 529 242 538T258 568Q258 587 245 598T204 610Q174 610 160 594T146 555L49 572Q60 632 102 662T212 692Q240 692 266 686T313 666T346 632T358 583Q358 548 338 527T279 497V495Q323 487 346 461T369 395Q369 363 356 340T320 301T267 278T202 270Q169 270 140 277T88 301T53 344T40 410H134Q134 384 151 368T200 352Q263 352 263 406Q263 430 247 441T201 453H173V529ZM648 84H456V150L649 410H742V160H794V84H742V0H648V84Z"  />
<glyph unicode="&#xBF;" horiz-adv-x="574" d="M354 424H220V562H354V424ZM343 322Q343 292 341 269T331 227T311 193T277 164Q261 154 246 144T218 120T197 89T189 49Q189 6 218 -22T296 -50Q327 -50 348 -39T384 -10T405 34T413 86L535 69Q533 14 515 -30T464 -104T387 -151T287 -168Q239 -168 196 -154T121 -112T69 -46T49 44Q49 83 58 111T85 162T126 204T179 243Q208 263 219 285T231 342V379H343V322Z"  />
<glyph unicode="&#xC0;" horiz-adv-x="630" d="M237 712H393L631 0H491L450 138H180L139 0H-1L237 712ZM316 582H314L216 256H414L316 582ZM391 756H308L166 900H300L391 756Z"  />
<glyph unicode="&#xC1;" horiz-adv-x="630" d="M237 712H393L631 0H491L450 138H180L139 0H-1L237 712ZM316 582H314L216 256H414L316 582ZM331 900H465L323 756H240L331 900Z"  />
<glyph unicode="&#xC2;" horiz-adv-x="630" d="M237 712H393L631 0H491L450 138H180L139 0H-1L237 712ZM316 582H314L216 256H414L316 582ZM260 900H372L479 756H387L316 843L245 756H153L260 900Z"  />
<glyph unicode="&#xC3;" horiz-adv-x="630" d="M237 712H393L631 0H491L450 138H180L139 0H-1L237 712ZM316 582H314L216 256H414L316 582ZM139 761Q142 781 150 802T171 841T202 870T243 881Q266 881 285 874T322 860Q339 853 355 847T386 841Q409 841 419 853T436 885H492Q489 865 481 844T460 805T429 776T388 765Q365 765 346 772T309 786Q292 793 276 799T245 805Q222 805 212 793T195 761H139Z"  />
<glyph unicode="&#xC4;" horiz-adv-x="630" d="M237 712H393L631 0H491L450 138H180L139 0H-1L237 712ZM316 582H314L216 256H414L316 582ZM172 880H284V768H172V880ZM347 880H459V768H347V880Z"  />
<glyph unicode="&#xC5;" horiz-adv-x="630" d="M237 712H393L631 0H491L450 138H180L139 0H-1L237 712ZM316 582H314L216 256H414L316 582ZM258 840Q258 816 275 799T316 782Q341 782 357 799T374 840Q374 864 358 881T316 898Q292 898 275 881T258 840ZM213 840Q213 861 221 879T244 912T276 934T316 943Q337 943 355 935T388 912T411 880T419 840Q419 819 411 801T389 768T356 745T316 737Q295 737 277 745T244 767T222 800T213 840Z"  />
<glyph unicode="&#xC6;" horiz-adv-x="1000" d="M484 600H482L306 286H484V600ZM407 712H961V588H618V426H914V308H618V124H970V0H484V168H240L145 0H-11L407 712Z"  />
<glyph unicode="&#xC7;" horiz-adv-x="685" d="M352 -17Q274 -12 215 19T117 102T59 218T39 356Q39 431 62 499T130 618T237 700T380 730Q488 730 564 674T666 506L537 473Q533 503 520 527T485 569T437 596T380 606Q327 606 289 585T227 528T191 447T179 356Q179 309 190 265T226 185T289 128T380 106Q415 106 442 117T491 147T527 192T552 250L674 194Q594 -8 400 -17L369 -57L371 -59Q381 -54 403 -54Q417 -54 432 -58T459 -72T479 -96T487 -130Q487 -155 476 -173T448 -202T409 -219T365 -225Q328 -225 305 -217T262 -199L280 -159Q296 -164 312 -169T345 -174Q355 -174 366 -173T385 -167T399 -155T405 -134Q405 -115 391 -107T356 -99Q345 -99 337 -101T321 -106L299 -87L352 -17Z"  />
<glyph unicode="&#xC8;" horiz-adv-x="611" d="M65 712H569V588H199V426H539V308H199V124H595V0H65V712ZM381 756H298L156 900H290L381 756Z"  />
<glyph unicode="&#xC9;" horiz-adv-x="611" d="M65 712H569V588H199V426H539V308H199V124H595V0H65V712ZM321 900H455L313 756H230L321 900Z"  />
<glyph unicode="&#xCA;" horiz-adv-x="611" d="M65 712H569V588H199V426H539V308H199V124H595V0H65V712ZM250 900H362L469 756H377L306 843L235 756H143L250 900Z"  />
<glyph unicode="&#xCB;" horiz-adv-x="611" d="M65 712H569V588H199V426H539V308H199V124H595V0H65V712ZM162 880H274V768H162V880ZM337 880H449V768H337V880Z"  />
<glyph unicode="&#xCC;" horiz-adv-x="278" d="M72 712H206V0H72V712ZM215 756H132L-10 900H124L215 756Z"  />
<glyph unicode="&#xCD;" horiz-adv-x="278" d="M72 712H206V0H72V712ZM155 900H289L147 756H64L155 900Z"  />
<glyph unicode="&#xCE;" horiz-adv-x="278" d="M72 712H206V0H72V712ZM84 900H196L303 756H211L140 843L69 756H-23L84 900Z"  />
<glyph unicode="&#xCF;" horiz-adv-x="278" d="M72 712H206V0H72V712ZM-4 880H108V768H-4V880ZM171 880H283V768H171V880Z"  />
<glyph unicode="&#xD0;" horiz-adv-x="704" d="M199 420H379V326H199V124H321Q371 124 409 134T473 170T512 241T525 356Q525 408 513 451T477 524T414 571T321 588H199V420ZM65 326H-3V420H65V712H340Q419 712 479 685T581 610T643 497T665 356Q665 181 583 91T340 0H65V326Z"  />
<glyph unicode="&#xD1;" horiz-adv-x="686" d="M70 712H193L492 205H494V712H616V0H493L194 507H192V0H70V712ZM167 761Q170 781 178 802T199 841T230 870T271 881Q294 881 313 874T350 860Q367 853 383 847T414 841Q437 841 447 853T464 885H520Q517 865 509 844T488 805T457 776T416 765Q393 765 374 772T337 786Q320 793 304 799T273 805Q250 805 240 793T223 761H167Z"  />
<glyph unicode="&#xD2;" horiz-adv-x="760" d="M380 730Q460 730 523 700T630 619T697 499T721 356Q721 281 698 213T630 94T523 12T380 -18Q300 -18 237 12T130 93T63 213T39 356Q39 431 62 499T130 618T237 700T380 730ZM380 606Q327 606 289 585T227 528T191 447T179 356Q179 309 190 265T226 185T289 128T380 106Q433 106 471 127T533 184T569 264T581 356Q581 402 570 447T534 527T471 584T380 606ZM456 756H373L231 900H365L456 756Z"  />
<glyph unicode="&#xD3;" horiz-adv-x="760" d="M380 730Q460 730 523 700T630 619T697 499T721 356Q721 281 698 213T630 94T523 12T380 -18Q300 -18 237 12T130 93T63 213T39 356Q39 431 62 499T130 618T237 700T380 730ZM380 606Q327 606 289 585T227 528T191 447T179 356Q179 309 190 265T226 185T289 128T380 106Q433 106 471 127T533 184T569 264T581 356Q581 402 570 447T534 527T471 584T380 606ZM396 900H530L388 756H305L396 900Z"  />
<glyph unicode="&#xD4;" horiz-adv-x="760" d="M380 730Q460 730 523 700T630 619T697 499T721 356Q721 281 698 213T630 94T523 12T380 -18Q300 -18 237 12T130 93T63 213T39 356Q39 431 62 499T130 618T237 700T380 730ZM380 606Q327 606 289 585T227 528T191 447T179 356Q179 309 190 265T226 185T289 128T380 106Q433 106 471 127T533 184T569 264T581 356Q581 402 570 447T534 527T471 584T380 606ZM325 900H437L544 756H452L381 843L310 756H218L325 900Z"  />
<glyph unicode="&#xD5;" horiz-adv-x="760" d="M380 730Q460 730 523 700T630 619T697 499T721 356Q721 281 698 213T630 94T523 12T380 -18Q300 -18 237 12T130 93T63 213T39 356Q39 431 62 499T130 618T237 700T380 730ZM380 606Q327 606 289 585T227 528T191 447T179 356Q179 309 190 265T226 185T289 128T380 106Q433 106 471 127T533 184T569 264T581 356Q581 402 570 447T534 527T471 584T380 606ZM204 761Q207 781 215 802T236 841T267 870T308 881Q331 881 350 874T387 860Q404 853 420 847T451 841Q474 841 484 853T501 885H557Q554 865 546 844T525 805T494 776T453 765Q430 765 411 772T374 786Q357 793 341 799T310 805Q287 805 277 793T260 761H204Z"  />
<glyph unicode="&#xD6;" horiz-adv-x="760" d="M380 730Q460 730 523 700T630 619T697 499T721 356Q721 281 698 213T630 94T523 12T380 -18Q300 -18 237 12T130 93T63 213T39 356Q39 431 62 499T130 618T237 700T380 730ZM380 606Q327 606 289 585T227 528T191 447T179 356Q179 309 190 265T226 185T289 128T380 106Q433 106 471 127T533 184T569 264T581 356Q581 402 570 447T534 527T471 584T380 606ZM237 880H349V768H237V880ZM412 880H524V768H412V880Z"  />
<glyph unicode="&#xD7;" horiz-adv-x="600" d="M300 183L134 17L64 88L229 253L64 419L134 489L300 324L465 489L536 419L371 253L536 88L465 17L300 183Z"  />
<glyph unicode="&#xD8;" horiz-adv-x="759" d="M88 158Q39 247 39 356Q39 431 62 499T130 618T237 700T380 730Q455 730 514 704T618 630L678 684L742 617L672 555Q721 466 721 356Q721 281 698 213T630 94T523 12T380 -18Q305 -18 245 9T142 82L81 28L17 95L88 158ZM238 168Q263 139 297 123T380 106Q433 106 471 127T533 184T569 264T581 356Q581 409 566 460L238 168ZM522 545Q496 574 462 590T380 606Q327 606 289 585T227 528T191 447T179 356Q179 302 194 253L522 545Z"  />
<glyph unicode="&#xD9;" horiz-adv-x="704" d="M639 219Q639 165 619 121T560 46T469 -1T352 -18Q287 -18 235 -2T144 46T86 121T65 219V712H199V254Q199 221 206 195T232 151T279 122T352 112Q395 112 424 122T472 150T497 195T505 254V712H639V219ZM428 756H345L203 900H337L428 756Z"  />
<glyph unicode="&#xDA;" horiz-adv-x="704" d="M639 219Q639 165 619 121T560 46T469 -1T352 -18Q287 -18 235 -2T144 46T86 121T65 219V712H199V254Q199 221 206 195T232 151T279 122T352 112Q395 112 424 122T472 150T497 195T505 254V712H639V219ZM368 900H502L360 756H277L368 900Z"  />
<glyph unicode="&#xDB;" horiz-adv-x="704" d="M639 219Q639 165 619 121T560 46T469 -1T352 -18Q287 -18 235 -2T144 46T86 121T65 219V712H199V254Q199 221 206 195T232 151T279 122T352 112Q395 112 424 122T472 150T497 195T505 254V712H639V219ZM297 900H409L516 756H424L353 843L282 756H190L297 900Z"  />
<glyph unicode="&#xDC;" horiz-adv-x="704" d="M639 219Q639 165 619 121T560 46T469 -1T352 -18Q287 -18 235 -2T144 46T86 121T65 219V712H199V254Q199 221 206 195T232 151T279 122T352 112Q395 112 424 122T472 150T497 195T505 254V712H639V219ZM209 880H321V768H209V880ZM384 880H496V768H384V880Z"  />
<glyph unicode="&#xDD;" horiz-adv-x="630" d="M248 278L11 712H160L315 418L470 712H619L382 278V0H248V278ZM331 900H465L323 756H240L331 900Z"  />
<glyph unicode="&#xDE;" horiz-adv-x="611" d="M199 246H332Q395 246 426 280T457 370Q457 406 448 429T422 467T382 488T332 494H199V246ZM65 712H199V606H357Q410 606 454 590T530 543T579 468T597 370Q597 316 580 272T530 198T454 151T357 134H199V0H65V712Z"  />
<glyph unicode="&#xDF;" horiz-adv-x="556" d="M60 513Q60 570 75 610T119 675T187 712T274 724Q316 724 356 713T429 680T482 623T502 543Q502 498 479 465T411 418V416Q444 405 466 385T502 339T522 283T528 219Q528 115 475 55T315 -6Q268 -6 226 6V125Q240 114 256 110T291 106Q345 106 372 139T400 223Q400 290 368 326T258 362H230V459Q246 456 266 456Q284 456 301 461T331 476T353 501T362 539Q362 578 338 598T276 618Q258 618 241 613T211 595T190 562T182 514V0H60V513Z"  />
<glyph unicode="&#xE0;" horiz-adv-x="537" d="M361 253Q349 247 335 243T303 235L236 221Q219 217 204 213T177 201T159 181T152 151Q152 122 175 105T231 88Q252 88 275 93T317 110T348 139T361 181V253ZM483 85Q483 46 490 27T502 0H373Q367 9 364 22T361 46Q289 -12 196 -12Q160 -12 129 -1T74 30T38 80T24 147Q24 184 37 211T73 257T122 287T178 305L229 315Q245 318 263 321T300 329T333 337T361 345V360Q361 397 333 410T265 424Q211 424 191 407T171 348L49 353Q49 398 67 429T115 480T184 509T265 518Q306 518 345 513T415 489T464 439T483 352V85ZM344 568H261L119 712H253L344 568Z"  />
<glyph unicode="&#xE1;" horiz-adv-x="537" d="M361 253Q349 247 335 243T303 235L236 221Q219 217 204 213T177 201T159 181T152 151Q152 122 175 105T231 88Q252 88 275 93T317 110T348 139T361 181V253ZM483 85Q483 46 490 27T502 0H373Q367 9 364 22T361 46Q289 -12 196 -12Q160 -12 129 -1T74 30T38 80T24 147Q24 184 37 211T73 257T122 287T178 305L229 315Q245 318 263 321T300 329T333 337T361 345V360Q361 397 333 410T265 424Q211 424 191 407T171 348L49 353Q49 398 67 429T115 480T184 509T265 518Q306 518 345 513T415 489T464 439T483 352V85ZM284 712H418L276 568H193L284 712Z"  />
<glyph unicode="&#xE2;" horiz-adv-x="537" d="M361 253Q349 247 335 243T303 235L236 221Q219 217 204 213T177 201T159 181T152 151Q152 122 175 105T231 88Q252 88 275 93T317 110T348 139T361 181V253ZM483 85Q483 46 490 27T502 0H373Q367 9 364 22T361 46Q289 -12 196 -12Q160 -12 129 -1T74 30T38 80T24 147Q24 184 37 211T73 257T122 287T178 305L229 315Q245 318 263 321T300 329T333 337T361 345V360Q361 397 333 410T265 424Q211 424 191 407T171 348L49 353Q49 398 67 429T115 480T184 509T265 518Q306 518 345 513T415 489T464 439T483 352V85ZM213 712H325L432 568H340L269 655L198 568H106L213 712Z"  />
<glyph unicode="&#xE3;" horiz-adv-x="537" d="M361 253Q349 247 335 243T303 235L236 221Q219 217 204 213T177 201T159 181T152 151Q152 122 175 105T231 88Q252 88 275 93T317 110T348 139T361 181V253ZM483 85Q483 46 490 27T502 0H373Q367 9 364 22T361 46Q289 -12 196 -12Q160 -12 129 -1T74 30T38 80T24 147Q24 184 37 211T73 257T122 287T178 305L229 315Q245 318 263 321T300 329T333 337T361 345V360Q361 397 333 410T265 424Q211 424 191 407T171 348L49 353Q49 398 67 429T115 480T184 509T265 518Q306 518 345 513T415 489T464 439T483 352V85ZM92 573Q95 593 103 614T124 653T155 682T196 693Q219 693 238 686T275 672Q292 665 308 659T339 653Q362 653 372 665T389 697H445Q442 677 434 656T413 617T382 588T341 577Q318 577 299 584T262 598Q245 605 229 611T198 617Q175 617 165 605T148 573H92Z"  />
<glyph unicode="&#xE4;" horiz-adv-x="537" d="M361 253Q349 247 335 243T303 235L236 221Q219 217 204 213T177 201T159 181T152 151Q152 122 175 105T231 88Q252 88 275 93T317 110T348 139T361 181V253ZM483 85Q483 46 490 27T502 0H373Q367 9 364 22T361 46Q289 -12 196 -12Q160 -12 129 -1T74 30T38 80T24 147Q24 184 37 211T73 257T122 287T178 305L229 315Q245 318 263 321T300 329T333 337T361 345V360Q361 397 333 410T265 424Q211 424 191 407T171 348L49 353Q49 398 67 429T115 480T184 509T265 518Q306 518 345 513T415 489T464 439T483 352V85ZM125 692H237V580H125V692ZM300 692H412V580H300V692Z"  />
<glyph unicode="&#xE5;" horiz-adv-x="537" d="M361 253Q349 247 335 243T303 235L236 221Q219 217 204 213T177 201T159 181T152 151Q152 122 175 105T231 88Q252 88 275 93T317 110T348 139T361 181V253ZM483 85Q483 46 490 27T502 0H373Q367 9 364 22T361 46Q289 -12 196 -12Q160 -12 129 -1T74 30T38 80T24 147Q24 184 37 211T73 257T122 287T178 305L229 315Q245 318 263 321T300 329T333 337T361 345V360Q361 397 333 410T265 424Q211 424 191 407T171 348L49 353Q49 398 67 429T115 480T184 509T265 518Q306 518 345 513T415 489T464 439T483 352V85ZM211 634Q211 610 228 593T269 576Q294 576 310 593T327 634Q327 658 311 675T269 692Q245 692 228 675T211 634ZM166 634Q166 655 174 673T197 706T229 728T269 737Q290 737 308 729T341 706T364 674T372 634Q372 613 364 595T342 562T309 539T269 531Q248 531 230 539T197 561T175 594T166 634Z"  />
<glyph unicode="&#xE6;" horiz-adv-x="870" d="M716 318Q716 328 710 345T689 378T654 406T601 418Q568 418 546 408T510 382T489 349T480 318H716ZM358 247Q345 241 331 237T299 229L232 215Q215 211 200 207T173 195T155 175T148 145Q148 116 171 99T227 82Q248 82 271 88T314 109T345 152T358 220V247ZM480 224Q481 196 491 173T519 134T557 109T601 100Q639 100 670 115T734 168L826 108Q806 81 779 59T721 21T656 -3T590 -12Q561 -12 535 -5T485 13T442 38T407 66Q365 28 312 8T193 -12Q157 -12 126 -1T71 30T34 80T20 147Q20 184 34 211T71 257T125 289T191 308L225 315Q258 322 296 329T358 345V360Q358 383 333 403T264 424Q238 424 221 417T192 399T175 375T167 348H51Q53 394 70 426T116 479T182 509T261 518Q305 518 352 504T431 452Q440 462 455 474T492 495T541 511T601 518Q664 518 710 498T786 439T830 347T844 224H480Z"  />
<glyph unicode="&#xE7;" horiz-adv-x="519" d="M260 -10Q206 -7 163 14T90 70T44 152T28 253Q28 310 45 358T96 442T177 498T287 518Q333 518 368 506T428 475T471 429T501 374L394 325Q382 363 353 384T287 406Q254 406 230 393T189 359T164 311T156 253Q156 223 163 196T186 147T224 113T280 100Q307 100 327 109T361 132T386 163T403 198L507 143Q495 117 479 92T440 45T384 9T309 -10L272 -57L274 -59Q284 -54 306 -54Q320 -54 335 -58T362 -72T382 -96T390 -130Q390 -155 379 -173T351 -202T312 -219T268 -225Q231 -225 208 -217T165 -199L183 -159Q199 -164 215 -169T248 -174Q258 -174 269 -173T288 -167T302 -155T308 -134Q308 -115 294 -107T259 -99Q248 -99 240 -101T224 -106L202 -87L260 -10Z"  />
<glyph unicode="&#xE8;" horiz-adv-x="556" d="M402 318Q402 328 396 345T375 378T340 406T287 418Q233 418 200 389T156 318H402ZM156 224Q157 196 168 173T197 134T239 109T287 100Q323 100 348 109T391 130T418 154T433 172L536 112Q522 90 501 68T449 28T379 -1T287 -12Q225 -12 177 8T96 63T46 147T28 253Q28 310 45 358T96 442T177 498T287 518Q350 518 396 498T472 439T516 347T530 224H156ZM354 568H271L129 712H263L354 568Z"  />
<glyph unicode="&#xE9;" horiz-adv-x="556" d="M402 318Q402 328 396 345T375 378T340 406T287 418Q233 418 200 389T156 318H402ZM156 224Q157 196 168 173T197 134T239 109T287 100Q323 100 348 109T391 130T418 154T433 172L536 112Q522 90 501 68T449 28T379 -1T287 -12Q225 -12 177 8T96 63T46 147T28 253Q28 310 45 358T96 442T177 498T287 518Q350 518 396 498T472 439T516 347T530 224H156ZM294 712H428L286 568H203L294 712Z"  />
<glyph unicode="&#xEA;" horiz-adv-x="556" d="M402 318Q402 328 396 345T375 378T340 406T287 418Q233 418 200 389T156 318H402ZM156 224Q157 196 168 173T197 134T239 109T287 100Q323 100 348 109T391 130T418 154T433 172L536 112Q522 90 501 68T449 28T379 -1T287 -12Q225 -12 177 8T96 63T46 147T28 253Q28 310 45 358T96 442T177 498T287 518Q350 518 396 498T472 439T516 347T530 224H156ZM223 712H335L442 568H350L279 655L208 568H116L223 712Z"  />
<glyph unicode="&#xEB;" horiz-adv-x="556" d="M402 318Q402 328 396 345T375 378T340 406T287 418Q233 418 200 389T156 318H402ZM156 224Q157 196 168 173T197 134T239 109T287 100Q323 100 348 109T391 130T418 154T433 172L536 112Q522 90 501 68T449 28T379 -1T287 -12Q225 -12 177 8T96 63T46 147T28 253Q28 310 45 358T96 442T177 498T287 518Q350 518 396 498T472 439T516 347T530 224H156ZM135 692H247V580H135V692ZM310 692H422V580H310V692Z"  />
<glyph unicode="&#xEC;" horiz-adv-x="242" d="M60 506H182V0H60V506ZM196 568H113L-29 712H105L196 568Z"  />
<glyph unicode="&#xED;" horiz-adv-x="242" d="M60 506H182V0H60V506ZM136 712H270L128 568H45L136 712Z"  />
<glyph unicode="&#xEE;" horiz-adv-x="242" d="M60 506H182V0H60V506ZM65 712H177L284 568H192L121 655L50 568H-42L65 712Z"  />
<glyph unicode="&#xEF;" horiz-adv-x="242" d="M60 506H182V0H60V506ZM-22 692H90V580H-22V692ZM153 692H265V580H153V692Z"  />
<glyph unicode="&#xF0;" horiz-adv-x="574" d="M287 406Q254 406 230 393T189 359T164 311T156 253Q156 223 164 196T188 147T229 113T287 100Q320 100 344 113T385 147T410 195T418 253Q418 283 410 310T386 359T345 393T287 406ZM184 636Q170 647 151 659T112 681L210 746Q259 720 292 693L387 743L436 704L342 654Q389 617 427 577T491 491T532 391T546 272Q546 208 529 156T478 67T397 9T287 -12Q225 -12 177 8T96 63T46 147T28 253Q28 310 45 358T96 442T177 498T287 518Q300 518 315 515T341 505H343Q340 510 328 521T301 546T268 574T236 598L145 550L96 589L184 636Z"  />
<glyph unicode="&#xF1;" horiz-adv-x="556" d="M60 506H182V456H184Q211 489 248 503T322 518Q413 518 454 474T496 346V0H374V309Q374 326 370 342T356 371T330 392T290 400Q268 400 249 393T214 369T191 327T182 267V0H60V506ZM102 573Q105 593 113 614T134 653T165 682T206 693Q229 693 248 686T285 672Q302 665 318 659T349 653Q372 653 382 665T399 697H455Q452 677 444 656T423 617T392 588T351 577Q328 577 309 584T272 598Q255 605 239 611T208 617Q185 617 175 605T158 573H102Z"  />
<glyph unicode="&#xF2;" horiz-adv-x="574" d="M287 406Q254 406 230 393T189 359T164 311T156 253Q156 223 164 196T188 147T229 113T287 100Q320 100 344 113T385 147T410 195T418 253Q418 283 410 310T386 359T345 393T287 406ZM287 518Q348 518 396 498T478 443T528 359T546 253Q546 196 529 148T478 64T397 8T287 -12Q225 -12 177 8T96 63T46 147T28 253Q28 310 45 358T96 442T177 498T287 518ZM363 568H280L138 712H272L363 568Z"  />
<glyph unicode="&#xF3;" horiz-adv-x="574" d="M287 406Q254 406 230 393T189 359T164 311T156 253Q156 223 164 196T188 147T229 113T287 100Q320 100 344 113T385 147T410 195T418 253Q418 283 410 310T386 359T345 393T287 406ZM287 518Q348 518 396 498T478 443T528 359T546 253Q546 196 529 148T478 64T397 8T287 -12Q225 -12 177 8T96 63T46 147T28 253Q28 310 45 358T96 442T177 498T287 518ZM303 712H437L295 568H212L303 712Z"  />
<glyph unicode="&#xF4;" horiz-adv-x="574" d="M287 406Q254 406 230 393T189 359T164 311T156 253Q156 223 164 196T188 147T229 113T287 100Q320 100 344 113T385 147T410 195T418 253Q418 283 410 310T386 359T345 393T287 406ZM287 518Q348 518 396 498T478 443T528 359T546 253Q546 196 529 148T478 64T397 8T287 -12Q225 -12 177 8T96 63T46 147T28 253Q28 310 45 358T96 442T177 498T287 518ZM232 712H344L451 568H359L288 655L217 568H125L232 712Z"  />
<glyph unicode="&#xF5;" horiz-adv-x="574" d="M287 406Q254 406 230 393T189 359T164 311T156 253Q156 223 164 196T188 147T229 113T287 100Q320 100 344 113T385 147T410 195T418 253Q418 283 410 310T386 359T345 393T287 406ZM287 518Q348 518 396 498T478 443T528 359T546 253Q546 196 529 148T478 64T397 8T287 -12Q225 -12 177 8T96 63T46 147T28 253Q28 310 45 358T96 442T177 498T287 518ZM111 573Q114 593 122 614T143 653T174 682T215 693Q238 693 257 686T294 672Q311 665 327 659T358 653Q381 653 391 665T408 697H464Q461 677 453 656T432 617T401 588T360 577Q337 577 318 584T281 598Q264 605 248 611T217 617Q194 617 184 605T167 573H111Z"  />
<glyph unicode="&#xF6;" horiz-adv-x="574" d="M287 406Q254 406 230 393T189 359T164 311T156 253Q156 223 164 196T188 147T229 113T287 100Q320 100 344 113T385 147T410 195T418 253Q418 283 410 310T386 359T345 393T287 406ZM287 518Q348 518 396 498T478 443T528 359T546 253Q546 196 529 148T478 64T397 8T287 -12Q225 -12 177 8T96 63T46 147T28 253Q28 310 45 358T96 442T177 498T287 518ZM144 692H256V580H144V692ZM319 692H431V580H319V692Z"  />
<glyph unicode="&#xF7;" horiz-adv-x="600" d="M300 126Q331 126 353 104T376 50Q376 19 354 -3T300 -26Q269 -26 247 -4T224 50Q224 81 246 103T300 126ZM300 532Q331 532 353 510T376 456Q376 425 354 403T300 380Q269 380 247 402T224 456Q224 487 246 509T300 532ZM47 303H553V203H47V303Z"  />
<glyph unicode="&#xF8;" horiz-adv-x="574" d="M59 120Q43 148 36 181T28 253Q28 310 45 358T96 442T177 498T287 518Q347 518 393 499T472 447L523 488L568 430L515 388Q546 330 546 253Q546 196 529 148T478 64T397 8T287 -12Q227 -12 181 6T101 60L51 19L6 77L59 120ZM198 137Q214 120 236 110T287 100Q320 100 344 113T385 147T410 195T418 253Q418 282 411 306L198 137ZM375 370Q341 406 287 406Q254 406 230 393T189 359T164 311T156 253Q156 224 163 202L375 370Z"  />
<glyph unicode="&#xF9;" horiz-adv-x="574" d="M514 0H392V50H390Q370 24 334 6T245 -12Q213 -12 180 -4T121 24T77 80T60 171V506H182V206Q182 153 203 130T272 106Q306 106 329 117T366 147T386 188T392 234V506H514V0ZM363 568H280L138 712H272L363 568Z"  />
<glyph unicode="&#xFA;" horiz-adv-x="574" d="M514 0H392V50H390Q370 24 334 6T245 -12Q213 -12 180 -4T121 24T77 80T60 171V506H182V206Q182 153 203 130T272 106Q306 106 329 117T366 147T386 188T392 234V506H514V0ZM303 712H437L295 568H212L303 712Z"  />
<glyph unicode="&#xFB;" horiz-adv-x="574" d="M514 0H392V50H390Q370 24 334 6T245 -12Q213 -12 180 -4T121 24T77 80T60 171V506H182V206Q182 153 203 130T272 106Q306 106 329 117T366 147T386 188T392 234V506H514V0ZM232 712H344L451 568H359L288 655L217 568H125L232 712Z"  />
<glyph unicode="&#xFC;" horiz-adv-x="574" d="M514 0H392V50H390Q370 24 334 6T245 -12Q213 -12 180 -4T121 24T77 80T60 171V506H182V206Q182 153 203 130T272 106Q306 106 329 117T366 147T386 188T392 234V506H514V0ZM144 692H256V580H144V692ZM319 692H431V580H319V692Z"  />
<glyph unicode="&#xFD;" horiz-adv-x="463" d="M297 -45Q286 -80 273 -103T241 -141T197 -162T139 -168Q116 -168 100 -166T66 -161V-52Q75 -54 86 -55T114 -56Q143 -56 157 -47T182 -13L0 506H131L240 138H242L337 506H463L297 -45ZM247 712H381L239 568H156L247 712Z"  />
<glyph unicode="&#xFE;" horiz-adv-x="574" d="M298 100Q332 100 355 113T392 149T412 198T418 253Q418 280 412 307T393 357T356 392T298 406Q263 406 240 393T204 357T184 308T178 253Q178 226 184 199T203 149T240 114T298 100ZM60 712H182V463H184Q212 489 247 503T328 518Q376 518 416 497T485 440T530 356T546 253Q546 198 530 150T485 66T414 9T324 -12Q269 -12 237 5T184 49H182V-162H60V712Z"  />
<glyph unicode="&#xFF;" horiz-adv-x="463" d="M297 -45Q286 -80 273 -103T241 -141T197 -162T139 -168Q116 -168 100 -166T66 -161V-52Q75 -54 86 -55T114 -56Q143 -56 157 -47T182 -13L0 506H131L240 138H242L337 506H463L297 -45ZM88 692H200V580H88V692ZM263 692H375V580H263V692Z"  />
<glyph unicode="&#x131;" horiz-adv-x="242" d="M60 506H182V0H60V506Z"  />
<glyph unicode="&#x152;" horiz-adv-x="1000" d="M171 356Q171 309 182 265T218 185T281 128T372 106Q389 106 410 108T451 118T483 141T496 182V513Q496 530 486 547T460 577T420 598T372 606Q319 606 281 585T219 528T183 447T171 356ZM496 28Q470 8 433 -5T353 -18Q273 -18 213 14T113 98T52 218T31 356Q31 426 53 493T118 613T219 698T353 730Q395 730 428 721T496 689V712H964V588H630V426H927V308H630V124H984V0H496V28Z"  />
<glyph unicode="&#x153;" horiz-adv-x="907" d="M745 318Q743 337 736 355T715 387T682 409T640 418Q616 418 596 410T561 388T538 356T528 318H745ZM281 406Q251 406 228 393T188 359T164 311T156 253Q156 223 164 196T188 147T227 113T281 100Q311 100 334 113T374 147T398 195T406 253Q406 283 398 310T374 359T335 393T281 406ZM28 253Q28 310 45 358T95 442T175 498T281 518Q321 518 350 511T401 492T435 468T457 446Q469 458 485 470T523 493T574 511T640 518Q700 518 743 498T816 439T859 347T873 224H528Q530 167 562 134T640 100Q682 100 712 117T763 169L866 109Q848 85 824 63T770 25T708 -2T640 -12Q590 -12 542 9T462 78Q439 40 397 14T281 -12Q222 -12 175 8T96 63T46 147T28 253Z"  />
<glyph unicode="&#x160;" horiz-adv-x="648" d="M114 214Q152 158 207 132T329 106Q353 106 380 110T429 125T465 153T480 197Q480 218 471 232T442 256T396 275T333 291L254 309Q211 319 173 333T105 369T58 425T40 508Q40 564 64 606T128 675T216 716T316 730Q408 730 482 696T613 587L502 503Q476 552 429 579T315 606Q257 606 219 586T180 527Q180 505 191 491T223 466T270 449T327 436L414 417Q454 408 491 395T556 359T602 302T620 216Q620 151 592 106T520 34T419 -6T308 -18Q264 -18 220 -9T136 20T60 67T0 132L114 214ZM381 756H269L162 900H254L325 813L396 900H488L381 756Z"  />
<glyph unicode="&#x161;" horiz-adv-x="500" d="M386 346Q375 371 344 394T259 418Q216 418 191 405T166 369Q166 347 189 337T248 320T325 306T402 284T461 241T485 165Q485 119 466 86T416 31T344 -1T260 -12Q170 -12 110 15T15 80L107 151Q128 120 166 104T253 88Q275 88 293 93T324 107T344 126T351 147Q351 168 328 178T270 196T195 210T119 234T61 278T38 354Q38 397 55 428T103 479T174 508T262 518Q307 518 342 508T402 484T445 453T471 426L386 346ZM307 568H195L88 712H180L251 625L322 712H414L307 568Z"  />
<glyph unicode="&#x178;" horiz-adv-x="630" d="M248 278L11 712H160L315 418L470 712H619L382 278V0H248V278ZM172 880H284V768H172V880ZM347 880H459V768H347V880Z"  />
<glyph unicode="&#x17D;" horiz-adv-x="593" d="M19 118L403 594H52V712H574V594L191 118H574V0H19V118ZM353 756H241L134 900H226L297 813L368 900H460L353 756Z"  />
<glyph unicode="&#x17E;" horiz-adv-x="481" d="M26 94L294 400H54V506H455V412L190 106H455V0H26V94ZM297 568H185L78 712H170L241 625L312 712H404L297 568Z"  />
<glyph unicode="&#x192;" horiz-adv-x="556" d="M66 -57Q86 -62 106 -62Q138 -62 154 -45T173 1L211 340H119L128 434H222L233 536Q237 573 246 602T272 651T316 681T384 692Q405 692 426 690T468 684L453 586Q433 592 414 592Q395 592 383 585T364 566T354 539T348 508L339 434H438L430 340H329L292 5Q287 -40 278 -72T249 -126T197 -158T115 -168Q99 -168 82 -166T52 -159L66 -57Z"  />
<glyph unicode="&#x2C6;" horiz-adv-x="241" d="M65 712H177L284 568H192L121 655L50 568H-42L65 712Z"  />
<glyph unicode="&#x2C7;" horiz-adv-x="241" d="M177 568H65L-42 712H50L121 625L192 712H284L177 568Z"  />
<glyph unicode="&#x2DA;" horiz-adv-x="241" d="M63 634Q63 610 80 593T121 576Q146 576 162 593T179 634Q179 658 163 675T121 692Q97 692 80 675T63 634ZM18 634Q18 655 26 673T49 706T81 728T121 737Q142 737 160 729T193 706T216 674T224 634Q224 613 216 595T194 562T161 539T121 531Q100 531 82 539T49 561T27 594T18 634Z"  />
<glyph unicode="&#x2DC;" horiz-adv-x="241" d="M-56 573Q-53 593 -45 614T-24 653T7 682T48 693Q71 693 90 686T127 672Q144 665 160 659T191 653Q214 653 224 665T241 697H297Q294 677 286 656T265 617T234 588T193 577Q170 577 151 584T114 598Q97 605 81 611T50 617Q27 617 17 605T0 573H-56Z"  />
<glyph unicode="&#x2013;" horiz-adv-x="500" d="M0 348H500V236H0V348Z"  />
<glyph unicode="&#x2014;" horiz-adv-x="1000" d="M130 348H870V236H130V348Z"  />
<glyph unicode="&#x2018;" horiz-adv-x="278" d="M206 434H72V599Q72 627 82 646T110 679T151 701T199 712V651Q178 649 163 638T148 603V572H206V434Z"  />
<glyph unicode="&#x2019;" horiz-adv-x="278" d="M72 712H206V547Q206 519 196 500T168 467T127 445T79 434V495Q100 497 115 508T130 543V574H72V712Z"  />
<glyph unicode="&#x201A;" horiz-adv-x="278" d="M72 138H206V-27Q206 -55 196 -74T168 -107T127 -129T79 -140V-79Q100 -77 115 -66T130 -31V0H72V138Z"  />
<glyph unicode="&#x201C;" horiz-adv-x="389" d="M348 434H214V599Q214 627 224 646T252 679T293 701T341 712V651Q320 649 305 638T290 603V572H348V434ZM175 434H41V599Q41 627 51 646T79 679T120 701T168 712V651Q147 649 132 638T117 603V572H175V434Z"  />
<glyph unicode="&#x201D;" horiz-adv-x="389" d="M41 712H175V547Q175 519 165 500T137 467T96 445T48 434V495Q69 497 84 508T99 543V574H41V712ZM214 712H348V547Q348 519 338 500T310 467T269 445T221 434V495Q242 497 257 508T272 543V574H214V712Z"  />
<glyph unicode="&#x201E;" horiz-adv-x="389" d="M41 138H175V-27Q175 -55 165 -74T137 -107T96 -129T48 -140V-79Q69 -77 84 -66T99 -31V0H41V138ZM214 138H348V-27Q348 -55 338 -74T310 -107T269 -129T221 -140V-79Q242 -77 257 -66T272 -31V0H214V138Z"  />
<glyph unicode="&#x2020;" horiz-adv-x="556" d="M43 486H214V712H342V486H513V374H342V-112H214V374H43V486Z"  />
<glyph unicode="&#x2021;" horiz-adv-x="556" d="M217 88H43V194H217V412H43V518H217V712H339V518H513V412H339V194H513V88H339V-112H217V88Z"  />
<glyph unicode="&#x2022;" horiz-adv-x="500" d="M250 534Q286 534 318 520T375 482T414 425T428 356Q428 320 414 288T376 231T319 192T250 178Q214 178 182 192T125 230T87 286T72 356Q72 392 86 424T124 481T180 520T250 534Z"  />
<glyph unicode="&#x2026;" horiz-adv-x="1000" d="M766 138H900V0H766V138ZM433 138H567V0H433V138ZM100 138H234V0H100V138Z"  />
<glyph unicode="&#x2030;" horiz-adv-x="1000" d="M503 718H584L168 -38H87L503 718ZM837 260Q820 260 811 249T797 222T792 189T791 159Q791 147 791 130T796 96T810 69T837 58Q854 58 863 69T877 96T882 129T883 159Q883 171 883 188T878 222T864 249T837 260ZM837 330Q873 330 899 317T943 281T968 227T977 159Q977 123 969 92T943 37T900 1T837 -12Q801 -12 775 1T731 37T706 91T697 159Q697 195 705 226T731 281T774 317T837 330ZM163 622Q146 622 137 611T123 584T118 551T117 521Q117 509 117 492T122 458T136 431T163 420Q180 420 189 431T203 458T208 491T209 521Q209 533 209 550T204 584T190 611T163 622ZM163 692Q199 692 225 679T269 643T294 589T303 521Q303 485 295 454T269 399T226 363T163 350Q127 350 101 363T57 399T32 453T23 521Q23 557 31 588T57 643T100 679T163 692ZM508 260Q491 260 482 249T468 222T463 189T462 159Q462 147 462 130T467 96T481 69T508 58Q525 58 534 69T548 96T553 129T554 159Q554 171 554 188T549 222T535 249T508 260ZM508 330Q544 330 570 317T614 281T639 227T648 159Q648 123 640 92T614 37T571 1T508 -12Q472 -12 446 1T402 37T377 91T368 159Q368 195 376 226T402 281T445 317T508 330Z"  />
<glyph unicode="&#x2039;" horiz-adv-x="278" d="M211 362L127 292L211 222V106L67 219V365L211 478V362Z"  />
<glyph unicode="&#x203A;" horiz-adv-x="278" d="M67 222L151 292L67 362V478L211 365V219L67 106V222Z"  />
<glyph unicode="&#x20AC;" horiz-adv-x="556" d="M512 535Q447 576 375 576Q325 576 289 539Q252 501 242 438H476L445 357H232V308H426L396 229H245Q257 174 290 141Q326 104 379 104Q462 104 524 154V27Q458 -12 378 -12Q158 -12 106 229H24L53 308H96V357H24L54 438H104Q131 562 204 626Q277 692 385 692Q464 692 556 644L512 535Z"  />
<glyph unicode="&#x2122;" horiz-adv-x="990" d="M811 612H809L695 300H627L513 612H511V300H423V712H556L662 430L766 712H899V300H811V612ZM150 636H31V712H363V636H244V300H150V636Z"  />
<glyph unicode="&#xE300;" horiz-adv-x="278" d="M215 756H132L-10 900H124L215 756Z"  />
<glyph unicode="&#xE301;" horiz-adv-x="278" d="M155 900H289L147 756H64L155 900Z"  />
<glyph unicode="&#xE302;" horiz-adv-x="278" d="M84 900H196L303 756H211L140 843L69 756H-23L84 900Z"  />
<glyph unicode="&#xE303;" horiz-adv-x="278" d="M195 756H83L-24 900H68L139 813L210 900H302L195 756Z"  />
<glyph unicode="&#xE304;" horiz-adv-x="278" d="M-37 761Q-34 781 -26 802T-5 841T26 870T67 881Q90 881 109 874T146 860Q163 853 179 847T210 841Q233 841 243 853T260 885H316Q313 865 305 844T284 805T253 776T212 765Q189 765 170 772T133 786Q116 793 100 799T69 805Q46 805 36 793T19 761H-37Z"  />
<glyph unicode="&#xE305;" horiz-adv-x="278" d="M-4 880H108V768H-4V880ZM171 880H283V768H171V880Z"  />
<glyph unicode="&#xE308;" horiz-adv-x="278" d="M81 840Q81 816 98 799T139 782Q164 782 180 799T197 840Q197 864 181 881T139 898Q115 898 98 881T81 840ZM36 840Q36 861 44 879T67 912T99 934T139 943Q160 943 178 935T211 912T234 880T242 840Q242 819 234 801T212 768T179 745T139 737Q118 737 100 745T67 767T45 800T36 840Z"  />

</font>
</defs>
</svg>
