<?xml version="1.0" encoding="UTF-8"?>
<!-- Generator: Adobe Illustrator 15.1.0, SVG Export Plug-In  -->
<!DOCTYPE svg PUBLIC "-//W3C//DTD SVG 1.1//EN" "http://www.w3.org/Graphics/SVG/1.1/DTD/svg11.dtd" [
	<!ENTITY ns_flows "http://ns.adobe.com/Flows/1.0/">
]>
<svg version="1.1" xmlns="http://www.w3.org/2000/svg" xmlns:xlink="http://www.w3.org/1999/xlink" xmlns:a="http://ns.adobe.com/AdobeSVGViewerExtensions/3.0/" x="0px" y="0px" width="385px" height="142px" viewBox="0 0 385 142" overflow="visible" enable-background="new 0 0 385 142" xml:space="preserve">
<defs>
</defs>
<polygon fill="#DD1A26" points="59.863,12.773 79.14,55.271 104.835,0.371 134.261,0.371 153.664,141.564 116.012,141.564   107.772,83.513 107.383,83.513 79.14,141.564 52.491,83.977 "/>
<polygon fill="#DD1A26" points="15.413,0.368 0,141.564 35.752,141.564 51.163,0.368 "/>
<polygon fill="#FFFFFF" points="162.417,0.544 200.785,0.544 200.861,19.441 181.098,19.441 181.098,26.895 195.811,26.895   195.811,45.78 181.098,45.78 181.098,53.239 200.797,53.239 200.861,72.119 162.417,72.119 "/>
<polygon fill="#FFFFFF" points="208.434,0.544 252.575,0.544 252.464,18.644 239.846,18.644 239.846,72.119 221.167,72.119   221.167,18.644 208.478,18.644 "/>
<path fill="#FFFFFF" d="M278.518,34.154c6.961,0,11.225-2.385,11.225-8.852c0-6.459-4.264-8.847-11.225-8.847V34.154z M259.83,0.544  h24.552c14.212,0,24.052,7.767,24.052,22.969c0,7.658-3.478,13.42-9.732,17.604l13.709,31.002h-21.075l-12.613-29.517h-0.204v29.517  H259.83V0.544z"/>
<path fill="#FFFFFF" d="M349.391,18.651c-9.327,0-17.112,7.878-17.112,17.682s7.785,17.698,17.112,17.698  c9.421,0,17.107-8.272,17.107-17.698C366.498,26.918,358.812,18.651,349.391,18.651 M349.391,72.675  c-19.333,0-35.571-16.243-35.571-36.342C313.819,16.243,330.058,0,349.391,0c19.318,0,35.563,16.243,35.563,36.333  C384.954,56.433,368.709,72.675,349.391,72.675"/>
<path fill="#FFFFFF" d="M205.882,133.486H180.66v-13.164h26.292c4.856,0.053,7.067,2.169,7.116,6.818  C214.028,131.41,211.49,133.433,205.882,133.486 M180.66,99.87h26.012c1.905,0,3.352,0.559,4.415,1.662  c1.069,1.105,1.613,2.589,1.616,4.52c-0.003,1.772-0.601,3.249-1.811,4.471c-1.212,1.229-2.68,1.836-4.506,1.836H180.66V99.87z   M215.022,115.86c3.329-2.454,5.012-5.92,5.007-10.254c0.002-4.103-1.219-7.444-3.679-9.948c-2.459-2.508-5.845-3.747-10.084-3.747  h-33.1v49.528h32.65c5.236-0.008,9.214-1.078,11.899-3.285c2.688-2.201,4.02-5.537,4.013-9.868  C221.744,122.12,219.494,117.897,215.022,115.86"/>
<path fill="#FFFFFF" d="M241.307,122.722l10.242-22.846l10.119,22.846H241.307z M255.843,91.975h-8.712l-22.098,49.589h7.567  l4.814-11.088h28.14l4.813,11.088h7.575L255.843,91.975z"/>
<path fill="#FFFFFF" d="M326.991,141.225v-0.334V141.225z M318.323,141.564l-26.364-39.3v39.3h-7.489V92.031h8.981l26.374,39.328  V92.031h7.497v49.194v0.339H318.323z"/>
<polygon fill="#FFFFFF" points="385.019,141.024 385.434,141.564 375.814,141.564 356.256,116.073 346.875,126.538 346.875,141.564   339.389,141.564 339.389,92.031 346.875,92.031 346.871,116.884 372.5,92.031 383.385,92.031 361.89,110.902 "/>
</svg>