<?xml version="1.0" encoding="UTF-8"?>
<!-- Generator: Adobe Illustrator 15.0.0, SVG Export Plug-In . SVG Version: 6.00 Build 0)  -->
<!DOCTYPE svg PUBLIC "-//W3C//DTD SVG 1.1//EN" "http://www.w3.org/Graphics/SVG/1.1/DTD/svg11.dtd">
<svg version="1.1" id="Capa_1" xmlns="http://www.w3.org/2000/svg" xmlns:xlink="http://www.w3.org/1999/xlink" x="0px" y="0px" width="34.769px" height="47.935px" viewBox="0 793.956 34.769 47.935" enable-background="new 0 793.956 34.769 47.935" xml:space="preserve">
<path fill="none" d="M263-51.947"/>
<path fill="none" d="M263-51.947"/>
<path fill="none" d="M263-51.947"/>
<path fill="none" d="M263-51.947"/>
<path fill="none" d="M263-51.947"/>
<path fill="none" d="M263-51.947"/>
<path fill="none" d="M263-51.947"/>
<path fill="#5B5A5B" d="M13.701,822.369l-8.635-8.634c-0.285-0.285-0.748-0.285-1.033-0.001l-1.369,1.37  c-1.682,1.688-2.521,3.861-2.609,6.001c-0.092,2.14,0.56,4.376,2.092,6.201l0.084,0.097l3.03,3.408  c0.269,0.301,0.716,0.314,1.002,0.029l7.438-7.439C13.986,823.116,13.986,822.655,13.701,822.369"/>
<path fill="#5B5A5B" d="M0.882,803.043c-0.445,0.949-0.879,2.069-0.882,3.395c-0.001,0.796,0.166,1.643,0.537,2.49  c0.371,0.849,0.937,1.697,1.717,2.564c0.291,0.322,0.688,0.484,1.088,0.484c0.349,0.001,0.697-0.123,0.976-0.374  c0.599-0.538,0.649-1.461,0.108-2.062c-0.617-0.688-0.992-1.281-1.213-1.783c-0.219-0.505-0.291-0.919-0.293-1.321  c0-0.443,0.098-0.889,0.276-1.383c0.269-0.741,0.735-1.557,1.187-2.491c0.222-0.465,0.438-0.965,0.605-1.516  c0.166-0.547,0.28-1.147,0.279-1.791c0.002-0.779-0.174-1.61-0.557-2.424c-0.385-0.815-0.961-1.619-1.754-2.434  c-0.562-0.578-1.488-0.592-2.064-0.028c-0.577,0.563-0.591,1.485-0.03,2.064c0.622,0.636,0.992,1.182,1.205,1.636  c0.211,0.458,0.278,0.821,0.28,1.187c0,0.396-0.094,0.814-0.272,1.296C1.808,801.271,1.335,802.093,0.882,803.043"/>
<path fill="#5B5A5B" d="M15.236,820.872c0.287,0.286,0.75,0.286,1.033,0l7.44-7.438c0.284-0.286,0.271-0.734-0.03-1.002  l-3.406-3.029l-0.099-0.084c-1.825-1.532-4.062-2.184-6.201-2.094c-2.139,0.09-4.312,0.93-6,2.61l-1.37,1.369  c-0.285,0.286-0.283,0.748,0,1.032L15.236,820.872z"/>
<path fill="#5B5A5B" d="M34.757,828.506c0.147-3.349-1.095-6.802-3.633-9.325c-0.236-0.237-0.486-0.467-0.746-0.689l-4.035-3.556  c-0.309-0.259-0.789-0.238-1.074,0.047l-17.46,17.407c-0.284,0.286-0.306,0.767-0.048,1.075l3.558,4.032  c0.222,0.263,0.452,0.513,0.688,0.748c2.523,2.54,5.979,3.78,9.324,3.634c3.024-0.119,5.985-1.323,8.396-3.414  c0.868-0.729,1.627-1.577,1.631-1.582c0.099-0.118,0.151-0.189,0.166-0.207C33.5,834.305,34.643,831.437,34.757,828.506"/>
<path fill="none" d="M263-51.947"/>
<path fill="none" d="M263-51.947"/>
</svg>