<?xml version="1.0" encoding="UTF-8"?>
<!-- Generator: Adobe Illustrator 15.1.0, SVG Export Plug-In . SVG Version: 6.00 Build 0)  -->
<!DOCTYPE svg PUBLIC "-//W3C//DTD SVG 1.1//EN" "http://www.w3.org/Graphics/SVG/1.1/DTD/svg11.dtd">
<svg version="1.1" id="Capa_1" xmlns="http://www.w3.org/2000/svg" xmlns:xlink="http://www.w3.org/1999/xlink" x="0px" y="0px" width="60px" height="70px" viewBox="0 0 60 70" enable-background="new 0 0 60 70" xml:space="preserve">
<g>
	<path fill-rule="evenodd" clip-rule="evenodd" fill="#FFFFFF" d="M18.202,20.777c0-3.737,3.042-6.812,6.752-6.812h9.508   c3.707,0,6.755,3.074,6.755,6.812v5.606h8.459v-5.606c0-8.449-6.838-15.342-15.214-15.342h-9.508   c-8.375,0-15.214,6.893-15.214,15.342v5.606h8.462V20.777z"/>
	<path fill-rule="evenodd" clip-rule="evenodd" fill="#FFFFFF" d="M8.698,64.564h42.021c1.091,0,1.99-0.905,1.99-2.003V32.416   c0-1.101-0.896-2.008-1.99-2.008H8.698c-1.094,0-1.99,0.904-1.99,2.008v30.146C6.708,63.663,7.606,64.564,8.698,64.564    M29.838,36.398c3.286,0,5.946,2.818,5.946,6.297c0,2.105-2.137,4.696-2.137,4.696c-0.189,0.227-0.295,0.65-0.244,0.942   l2.134,11.35c0.109,0.568-0.273,1.033-0.847,1.033h-9.723c-0.574,0-0.956-0.465-0.851-1.033l1.961-10.316   c0.106-0.568,0.173-1.356,0.145-1.749l-0.187-0.227c0,0-2.144-2.591-2.144-4.696C23.892,39.217,26.555,36.398,29.838,36.398"/>
</g>
</svg>