<?xml version="1.0" encoding="UTF-8"?>
<!-- Generator: Adobe Illustrator 15.1.0, SVG Export Plug-In . SVG Version: 6.00 Build 0)  -->
<!DOCTYPE svg PUBLIC "-//W3C//DTD SVG 1.1//EN" "http://www.w3.org/Graphics/SVG/1.1/DTD/svg11.dtd">
<svg version="1.1" id="Capa_1" xmlns="http://www.w3.org/2000/svg" xmlns:xlink="http://www.w3.org/1999/xlink" x="0px" y="0px" width="59.996px" height="59.996px" viewBox="0 0 59.996 59.996" enable-background="new 0 0 59.996 59.996" xml:space="preserve">
<path fill="#D1D1D1" d="M29.998,0c16.566,0,29.998,13.431,29.998,29.998c0,16.566-13.432,29.998-29.998,29.998  C13.431,59.996,0,46.564,0,29.998C0,13.431,13.431,0,29.998,0z"/>
<path fill="#474747" d="M26.175,34.777l-0.035-6.407c0,0,2.465-1.174,3.16-1.524c0.908-0.457,1.235-0.735,1.599-1.082  c0.364-0.347,0.659-0.69,0.884-1.029c0.226-0.339,0.39-0.697,0.49-1.069c0.102-0.373,0.15-0.806,0.15-1.299  c0-0.759-0.241-1.385-0.723-1.878c-0.483-0.492-1.222-0.739-2.213-0.739c-0.866,0-1.798,0.193-2.795,0.58  c-0.999,0.386-2.031,0.859-3.098,1.419l-1.921-4.417c0.54-0.332,1.127-0.648,1.761-0.949c0.633-0.298,1.292-0.565,1.977-0.798  c0.684-0.232,1.377-0.417,2.081-0.549c0.703-0.133,1.393-0.2,2.07-0.2c1.279,0,4.189,0.175,6.083,1.919  c1.92,1.767,2.587,4.124,2.654,5.268c0.144,2.439-0.374,4.277-2.394,6.3c-1.724,1.727-4.544,3.037-4.693,3.354  c-0.095,0.202-0.069,3.103-0.069,3.103L26.175,34.777L26.175,34.777z M25.355,42c0-0.665,0.09-1.225,0.269-1.684  c0.18-0.458,0.429-0.828,0.749-1.111c0.32-0.282,0.695-0.486,1.127-0.613c0.433-0.127,0.896-0.19,1.387-0.19  c0.466,0,0.909,0.062,1.327,0.19c0.417,0.127,0.788,0.331,1.107,0.613c0.32,0.283,0.571,0.653,0.759,1.111  c0.187,0.46,0.279,1.021,0.279,1.684c0,0.637-0.093,1.179-0.279,1.633c-0.188,0.45-0.438,0.825-0.759,1.121  c-0.319,0.297-0.689,0.511-1.107,0.646c-0.418,0.135-0.861,0.201-1.327,0.201c-0.491,0-0.955-0.066-1.387-0.201  c-0.432-0.135-0.807-0.349-1.127-0.646c-0.319-0.295-0.569-0.671-0.749-1.121C25.445,43.179,25.355,42.636,25.355,42z"/>
</svg>