<?xml version="1.0" encoding="UTF-8"?>
<!-- Generator: Adobe Illustrator 15.1.0, SVG Export Plug-In . SVG Version: 6.00 Build 0)  -->
<!DOCTYPE svg PUBLIC "-//W3C//DTD SVG 1.1//EN" "http://www.w3.org/Graphics/SVG/1.1/DTD/svg11.dtd">
<svg version="1.1" id="Capa_1" xmlns="http://www.w3.org/2000/svg" xmlns:xlink="http://www.w3.org/1999/xlink" x="0px" y="0px" width="183px" height="53px" viewBox="0 0 183 53" enable-background="new 0 0 183 53" xml:space="preserve">
<g>
	<polygon fill="#FF0000" points="0.004,0 183,0 182.99,53 0,53  "/>
	<path fill="#FFFFFF" d="M28.792,10.211c0,3.474,5.936,7.33,5.936,11.295c0,0,0,0.383-0.166,0.792   c5.552,1.149,9.483,3.857,9.483,7.031c0,4.265-7.01,7.768-15.694,7.795c-0.056,0.027-0.109,0-0.165,0   c-8.602,0-15.583-3.392-15.583-7.631c0-3.174,4.26-5.744,9.4-7.111c0,1.75,5.854,7.302,5.99,9.545c0,0,0.028,0.191,0.028,0.411   c0,0.108,0,0.219-0.028,0.327c1.265-0.657,1.265-2.708,1.265-2.708c0-4.867-5.689-7.028-5.689-11.815   c0-1.858,0.88-3.226,1.676-3.61v1.342c0,3.473,6.158,7.356,6.158,10.529v1.04c1.428-0.548,1.428-3.147,1.428-3.147   c0-4.375-5.717-6.809-5.717-11.814c0-1.86,0.88-3.227,1.679-3.61L28.792,10.211L28.792,10.211z"/>
	<path fill="#FFFFFF" d="M56.549,35.782c-2.996,0-5.168-0.846-5.168-0.846v-5.171h0.743c0.385,2.735,2.474,4.813,4.864,4.813   s4.068-1.312,4.068-3.392c0-2.214-2.227-3.227-3.709-3.967l-2.144-1.064c-2.034-1.012-3.683-2.653-3.683-4.951   c0-2.872,2.144-5.332,6.239-5.332c2.803,0,5.111,0.93,5.111,0.93v4.622h-0.741c-0.439-2.461-1.815-4.403-4.618-4.403   c-2.088,0-3.325,1.421-3.325,2.871c0,1.888,1.317,2.735,2.859,3.502l2.143,1.066c1.951,0.984,4.37,2.624,4.37,5.416   C63.556,33.431,61.083,35.782,56.549,35.782L56.549,35.782z"/>
	<path fill="#FFFFFF" d="M70.399,30.15c-0.577,0.245-1.593,0.71-1.593,2.021c0,0.713,0.412,1.861,1.842,1.861   c0.686,0,1.648-0.384,2.334-0.931v-4.049L70.399,30.15L70.399,30.15z M69.273,35.674c-1.868,0-3.078-1.23-3.078-3.063   c0-1.312,0.962-2.324,3.078-3.09l3.709-1.34v-1.148c0-1.724-0.796-2.791-2.006-2.791c-0.823,0-1.648,0.411-2.061,1.067   c-0.165,0.247-0.193,0.6-0.193,0.875c0,0.465,0.302,1.012,0.302,1.012l-1.814,0.82c-0.22-0.383-0.495-0.956-0.495-1.531   c0-0.109,0.028-0.218,0.028-0.301c0.137-0.984,0.988-1.64,2.144-2.324c1.126-0.685,2.088-0.876,2.776-0.876   c3.463,0,4.067,2.734,4.067,3.638v5.661c0,0.902,0.083,1.476,0.824,1.476c0.221,0,0.356,0,0.659-0.108l0.66-0.219v0.82   l-3.847,1.421c-0.578-0.408-0.853-1.148-0.962-1.776C72.158,34.662,70.592,35.674,69.273,35.674L69.273,35.674z"/>
	<path fill="#FFFFFF" d="M78.726,35.399v-0.656l0.907-0.163c0.55-0.109,0.935-0.52,0.935-1.065v-7.304   c0-0.628-0.303-0.957-0.853-0.957c-0.191,0-0.411,0.027-0.632,0.108l-0.357,0.139v-0.823l3.958-1.695h0.576v2.025   c1.21-1.34,2.639-2.025,3.903-2.025c2.803,0,4.149,1.997,4.149,4.322v6.21c0,0.546,0.413,0.982,0.962,1.065l0.934,0.163v0.656   h-6.539v-0.656l0.907-0.163c0.549-0.109,0.99-0.52,0.99-1.065v-6.182c0-0.82-0.221-2.654-2.418-2.654   c-1.211,0-2.229,0.74-2.832,1.287v7.55c0,0.546,0.439,0.954,0.989,1.064l0.907,0.163V35.4L78.726,35.399L78.726,35.399z"/>
	<path fill="#FFFFFF" d="M102.687,24.651h-3.848v6.781c0,1.504,0.797,2.327,1.952,2.327c0.468,0,1.21-0.139,1.896-0.521l0.302,0.656   l-2.473,1.56c0,0-0.494,0.081-0.743,0.081c-2.39,0-3.682-1.394-3.682-4.348v-6.536h-2.006v-0.684c0,0,3.024-1.148,4.204-3.965   h0.549v3.474h4.344L102.687,24.651L102.687,24.651z"/>
	<path fill="#FFFFFF" d="M108.453,30.15c-0.578,0.245-1.595,0.71-1.595,2.021c0,0.713,0.413,1.861,1.842,1.861   c0.688,0,1.65-0.384,2.335-0.931v-4.049L108.453,30.15L108.453,30.15z M107.327,35.674c-1.869,0-3.078-1.23-3.078-3.063   c0-1.312,0.962-2.324,3.078-3.09l3.709-1.34v-1.148c0-1.724-0.795-2.791-2.004-2.791c-0.827,0-1.651,0.411-2.064,1.067   c-0.163,0.247-0.191,0.6-0.191,0.875c0,0.465,0.302,1.012,0.302,1.012l-1.813,0.82c-0.22-0.383-0.494-0.956-0.494-1.531   c0-0.109,0.025-0.218,0.025-0.301c0.138-0.984,0.99-1.64,2.144-2.324c1.129-0.685,2.091-0.876,2.777-0.876   c3.462,0,4.068,2.734,4.068,3.638v5.661c0,0.902,0.082,1.476,0.825,1.476c0.219,0,0.356,0,0.658-0.108l0.66-0.219v0.82   l-3.848,1.421c-0.578-0.408-0.853-1.148-0.96-1.776C110.21,34.662,108.646,35.674,107.327,35.674L107.327,35.674z"/>
	<path fill="#FFFFFF" d="M116.779,35.399v-0.656l0.907-0.163c0.55-0.109,0.935-0.52,0.935-1.065v-7.304   c0-0.628-0.302-0.957-0.853-0.957c-0.191,0-0.411,0.027-0.631,0.108l-0.358,0.139v-0.823l3.957-1.695h0.578v2.025   c1.209-1.34,2.637-2.025,3.901-2.025c2.805,0,4.15,1.997,4.15,4.322v6.21c0,0.546,0.414,0.982,0.964,1.065l0.933,0.163v0.656   h-6.541v-0.656l0.907-0.163c0.551-0.109,0.989-0.52,0.989-1.065v-6.182c0-0.82-0.22-2.654-2.417-2.654   c-1.211,0-2.229,0.74-2.831,1.287v7.55c0,0.546,0.439,0.954,0.989,1.064l0.907,0.163V35.4L116.779,35.399L116.779,35.399z"/>
	<path fill="#FFFFFF" d="M139.479,24.133c-1.979,0-4.013,1.258-4.013,4.922c0,3.062,1.54,4.924,3.957,4.924   c1.456,0,2.363-0.848,2.583-1.286v-7.11C141.65,24.679,140.633,24.133,139.479,24.133L139.479,24.133z M138.242,35.674   c-2.583,0-5.686-1.914-5.686-6.072c0-3.637,2.829-6.618,6.623-6.618c1.264,0,2.171,0.247,2.829,0.521v-6.262   c0-0.657-0.356-0.85-0.797-0.85c-0.247,0-0.522,0.057-0.769,0.137l-0.551,0.192V15.9l4.287-1.805h0.578v18.022   c0,1.04,0.165,1.642,0.907,1.642c0.219,0,0.356,0,0.658-0.108l0.66-0.219v0.82l-3.848,1.421c-0.604-0.408-0.905-1.176-1.042-1.806   C141.376,34.636,140.083,35.674,138.242,35.674L138.242,35.674z"/>
	<path fill="#FFFFFF" d="M156.627,27.223v-0.055c0-2.05-1.153-3.035-2.528-3.035c-1.54,0-2.694,1.011-3.025,3.089H156.627   L156.627,27.223z M150.995,28.345v0.138c-0.027,3.637,2.062,5.47,4.671,5.47c1.317,0,2.527-0.492,3.489-1.232v1.096   c-1.099,1.013-2.774,1.858-4.834,1.858c-4.287,0-6.184-3.199-6.184-6.235c0-3.555,2.719-6.454,6.239-6.454   c2.884,0,5.14,2.024,5.14,5.004v0.355H150.995L150.995,28.345z"/>
	<path fill="#FFFFFF" d="M161.134,35.399v-0.656l0.906-0.163c0.521-0.109,0.936-0.52,0.936-1.065v-7.304   c0-0.628-0.302-0.957-0.854-0.957c-0.191,0-0.41,0.027-0.631,0.108l-0.357,0.139v-0.823l3.902-1.695h0.578v2.653   c0.987-1.914,2.171-2.707,3.518-2.707c1.099,0,1.373,0.273,1.373,0.273v2.9h-0.549c-0.137-0.767-0.66-1.149-1.484-1.149   c-0.88,0-1.978,0.247-2.747,1.833v6.729c0,0.546,0.548,0.982,1.071,1.065l1.318,0.163v0.656H161.134L161.134,35.399z"/>
</g>
</svg>